G04 #@! TF.GenerationSoftware,KiCad,Pcbnew,(5.0.2-5)-5*
G04 #@! TF.CreationDate,2019-04-21T12:33:13+02:00*
G04 #@! TF.ProjectId,FPGAtom,46504741-746f-46d2-9e6b-696361645f70,rev?*
G04 #@! TF.SameCoordinates,Original*
G04 #@! TF.FileFunction,Copper,L1,Top*
G04 #@! TF.FilePolarity,Positive*
%FSLAX46Y46*%
G04 Gerber Fmt 4.6, Leading zero omitted, Abs format (unit mm)*
G04 Created by KiCad (PCBNEW (5.0.2-5)-5) date Sunday, 21 April 2019 at 12:33:13*
%MOMM*%
%LPD*%
G01*
G04 APERTURE LIST*
G04 #@! TA.AperFunction,NonConductor*
%ADD10C,0.300000*%
G04 #@! TD*
G04 #@! TA.AperFunction,ComponentPad*
%ADD11O,1.600000X1.600000*%
G04 #@! TD*
G04 #@! TA.AperFunction,ComponentPad*
%ADD12C,1.600000*%
G04 #@! TD*
G04 #@! TA.AperFunction,ComponentPad*
%ADD13C,1.700000*%
G04 #@! TD*
G04 #@! TA.AperFunction,ComponentPad*
%ADD14R,1.700000X1.700000*%
G04 #@! TD*
G04 #@! TA.AperFunction,ComponentPad*
%ADD15C,1.520000*%
G04 #@! TD*
G04 #@! TA.AperFunction,ComponentPad*
%ADD16R,1.520000X1.520000*%
G04 #@! TD*
G04 #@! TA.AperFunction,ComponentPad*
%ADD17R,1.600000X1.600000*%
G04 #@! TD*
G04 #@! TA.AperFunction,ComponentPad*
%ADD18O,1.700000X1.700000*%
G04 #@! TD*
G04 #@! TA.AperFunction,ComponentPad*
%ADD19C,2.000000*%
G04 #@! TD*
G04 #@! TA.AperFunction,ComponentPad*
%ADD20C,1.800000*%
G04 #@! TD*
G04 #@! TA.AperFunction,ComponentPad*
%ADD21R,1.800000X1.800000*%
G04 #@! TD*
G04 #@! TA.AperFunction,ComponentPad*
%ADD22C,2.080000*%
G04 #@! TD*
G04 #@! TA.AperFunction,ComponentPad*
%ADD23C,5.500000*%
G04 #@! TD*
G04 #@! TA.AperFunction,ComponentPad*
%ADD24R,2.000000X2.000000*%
G04 #@! TD*
G04 #@! TA.AperFunction,ComponentPad*
%ADD25R,2.200000X2.200000*%
G04 #@! TD*
G04 #@! TA.AperFunction,ComponentPad*
%ADD26O,2.200000X2.200000*%
G04 #@! TD*
G04 #@! TA.AperFunction,ComponentPad*
%ADD27R,3.500000X3.500000*%
G04 #@! TD*
G04 #@! TA.AperFunction,ComponentPad*
%ADD28C,1.440000*%
G04 #@! TD*
G04 #@! TA.AperFunction,SMDPad,CuDef*
%ADD29R,2.649220X4.000500*%
G04 #@! TD*
G04 #@! TA.AperFunction,SMDPad,CuDef*
%ADD30R,2.640000X4.000000*%
G04 #@! TD*
G04 #@! TA.AperFunction,SMDPad,CuDef*
%ADD31R,0.899160X2.499360*%
G04 #@! TD*
G04 #@! TA.AperFunction,ComponentPad*
%ADD32O,3.000000X1.524000*%
G04 #@! TD*
G04 #@! TA.AperFunction,ComponentPad*
%ADD33O,1.524000X3.000000*%
G04 #@! TD*
G04 #@! TA.AperFunction,ComponentPad*
%ADD34C,3.250000*%
G04 #@! TD*
G04 #@! TA.AperFunction,ComponentPad*
%ADD35C,4.000000*%
G04 #@! TD*
G04 #@! TA.AperFunction,ComponentPad*
%ADD36O,1.800000X1.800000*%
G04 #@! TD*
G04 #@! TA.AperFunction,ViaPad*
%ADD37C,0.800000*%
G04 #@! TD*
G04 #@! TA.AperFunction,Conductor*
%ADD38C,0.250000*%
G04 #@! TD*
G04 #@! TA.AperFunction,Conductor*
%ADD39C,1.000000*%
G04 #@! TD*
G04 APERTURE END LIST*
D10*
X394711142Y-162232285D02*
X394711142Y-161732285D01*
X393925428Y-161732285D02*
X395425428Y-161732285D01*
X395425428Y-162446571D01*
X393925428Y-163018000D02*
X395425428Y-163018000D01*
X395425428Y-163589428D01*
X395354000Y-163732285D01*
X395282571Y-163803714D01*
X395139714Y-163875142D01*
X394925428Y-163875142D01*
X394782571Y-163803714D01*
X394711142Y-163732285D01*
X394639714Y-163589428D01*
X394639714Y-163018000D01*
X395354000Y-165303714D02*
X395425428Y-165160857D01*
X395425428Y-164946571D01*
X395354000Y-164732285D01*
X395211142Y-164589428D01*
X395068285Y-164518000D01*
X394782571Y-164446571D01*
X394568285Y-164446571D01*
X394282571Y-164518000D01*
X394139714Y-164589428D01*
X393996857Y-164732285D01*
X393925428Y-164946571D01*
X393925428Y-165089428D01*
X393996857Y-165303714D01*
X394068285Y-165375142D01*
X394568285Y-165375142D01*
X394568285Y-165089428D01*
X394354000Y-165946571D02*
X394354000Y-166660857D01*
X393925428Y-165803714D02*
X395425428Y-166303714D01*
X393925428Y-166803714D01*
X394925428Y-167089428D02*
X394925428Y-167660857D01*
X395425428Y-167303714D02*
X394139714Y-167303714D01*
X393996857Y-167375142D01*
X393925428Y-167518000D01*
X393925428Y-167660857D01*
X393925428Y-168375142D02*
X393996857Y-168232285D01*
X394068285Y-168160857D01*
X394211142Y-168089428D01*
X394639714Y-168089428D01*
X394782571Y-168160857D01*
X394854000Y-168232285D01*
X394925428Y-168375142D01*
X394925428Y-168589428D01*
X394854000Y-168732285D01*
X394782571Y-168803714D01*
X394639714Y-168875142D01*
X394211142Y-168875142D01*
X394068285Y-168803714D01*
X393996857Y-168732285D01*
X393925428Y-168589428D01*
X393925428Y-168375142D01*
X393925428Y-169518000D02*
X394925428Y-169518000D01*
X394782571Y-169518000D02*
X394854000Y-169589428D01*
X394925428Y-169732285D01*
X394925428Y-169946571D01*
X394854000Y-170089428D01*
X394711142Y-170160857D01*
X393925428Y-170160857D01*
X394711142Y-170160857D02*
X394854000Y-170232285D01*
X394925428Y-170375142D01*
X394925428Y-170589428D01*
X394854000Y-170732285D01*
X394711142Y-170803714D01*
X393925428Y-170803714D01*
X394496857Y-172660857D02*
X394496857Y-173803714D01*
X393925428Y-176518000D02*
X394639714Y-176018000D01*
X393925428Y-175660857D02*
X395425428Y-175660857D01*
X395425428Y-176232285D01*
X395354000Y-176375142D01*
X395282571Y-176446571D01*
X395139714Y-176518000D01*
X394925428Y-176518000D01*
X394782571Y-176446571D01*
X394711142Y-176375142D01*
X394639714Y-176232285D01*
X394639714Y-175660857D01*
X393925428Y-177375142D02*
X393996857Y-177232285D01*
X394068285Y-177160857D01*
X394211142Y-177089428D01*
X394639714Y-177089428D01*
X394782571Y-177160857D01*
X394854000Y-177232285D01*
X394925428Y-177375142D01*
X394925428Y-177589428D01*
X394854000Y-177732285D01*
X394782571Y-177803714D01*
X394639714Y-177875142D01*
X394211142Y-177875142D01*
X394068285Y-177803714D01*
X393996857Y-177732285D01*
X393925428Y-177589428D01*
X393925428Y-177375142D01*
X393925428Y-178732285D02*
X393996857Y-178589428D01*
X394139714Y-178518000D01*
X395425428Y-178518000D01*
X393925428Y-179946571D02*
X394711142Y-179946571D01*
X394854000Y-179875142D01*
X394925428Y-179732285D01*
X394925428Y-179446571D01*
X394854000Y-179303714D01*
X393996857Y-179946571D02*
X393925428Y-179803714D01*
X393925428Y-179446571D01*
X393996857Y-179303714D01*
X394139714Y-179232285D01*
X394282571Y-179232285D01*
X394425428Y-179303714D01*
X394496857Y-179446571D01*
X394496857Y-179803714D01*
X394568285Y-179946571D01*
X394925428Y-180660857D02*
X393925428Y-180660857D01*
X394782571Y-180660857D02*
X394854000Y-180732285D01*
X394925428Y-180875142D01*
X394925428Y-181089428D01*
X394854000Y-181232285D01*
X394711142Y-181303714D01*
X393925428Y-181303714D01*
X393925428Y-182660857D02*
X395425428Y-182660857D01*
X393996857Y-182660857D02*
X393925428Y-182518000D01*
X393925428Y-182232285D01*
X393996857Y-182089428D01*
X394068285Y-182018000D01*
X394211142Y-181946571D01*
X394639714Y-181946571D01*
X394782571Y-182018000D01*
X394854000Y-182089428D01*
X394925428Y-182232285D01*
X394925428Y-182518000D01*
X394854000Y-182660857D01*
X393925428Y-185232285D02*
X393925428Y-184518000D01*
X395425428Y-184518000D01*
X393996857Y-186303714D02*
X393925428Y-186160857D01*
X393925428Y-185875142D01*
X393996857Y-185732285D01*
X394139714Y-185660857D01*
X394711142Y-185660857D01*
X394854000Y-185732285D01*
X394925428Y-185875142D01*
X394925428Y-186160857D01*
X394854000Y-186303714D01*
X394711142Y-186375142D01*
X394568285Y-186375142D01*
X394425428Y-185660857D01*
X394925428Y-187660857D02*
X393925428Y-187660857D01*
X394925428Y-187018000D02*
X394139714Y-187018000D01*
X393996857Y-187089428D01*
X393925428Y-187232285D01*
X393925428Y-187446571D01*
X393996857Y-187589428D01*
X394068285Y-187660857D01*
X393925428Y-188375142D02*
X394925428Y-188375142D01*
X394639714Y-188375142D02*
X394782571Y-188446571D01*
X394854000Y-188518000D01*
X394925428Y-188660857D01*
X394925428Y-188803714D01*
X393996857Y-189232285D02*
X393925428Y-189375142D01*
X393925428Y-189660857D01*
X393996857Y-189803714D01*
X394139714Y-189875142D01*
X394211142Y-189875142D01*
X394354000Y-189803714D01*
X394425428Y-189660857D01*
X394425428Y-189446571D01*
X394496857Y-189303714D01*
X394639714Y-189232285D01*
X394711142Y-189232285D01*
X394854000Y-189303714D01*
X394925428Y-189446571D01*
X394925428Y-189660857D01*
X394854000Y-189803714D01*
X391375428Y-162660857D02*
X392875428Y-162660857D01*
X391375428Y-163303714D02*
X392161142Y-163303714D01*
X392304000Y-163232285D01*
X392375428Y-163089428D01*
X392375428Y-162875142D01*
X392304000Y-162732285D01*
X392232571Y-162660857D01*
X392375428Y-163803714D02*
X392375428Y-164375142D01*
X392875428Y-164018000D02*
X391589714Y-164018000D01*
X391446857Y-164089428D01*
X391375428Y-164232285D01*
X391375428Y-164375142D01*
X392375428Y-164660857D02*
X392375428Y-165232285D01*
X392875428Y-164875142D02*
X391589714Y-164875142D01*
X391446857Y-164946571D01*
X391375428Y-165089428D01*
X391375428Y-165232285D01*
X392375428Y-165732285D02*
X390875428Y-165732285D01*
X392304000Y-165732285D02*
X392375428Y-165875142D01*
X392375428Y-166160857D01*
X392304000Y-166303714D01*
X392232571Y-166375142D01*
X392089714Y-166446571D01*
X391661142Y-166446571D01*
X391518285Y-166375142D01*
X391446857Y-166303714D01*
X391375428Y-166160857D01*
X391375428Y-165875142D01*
X391446857Y-165732285D01*
X391518285Y-167089428D02*
X391446857Y-167160857D01*
X391375428Y-167089428D01*
X391446857Y-167018000D01*
X391518285Y-167089428D01*
X391375428Y-167089428D01*
X392304000Y-167089428D02*
X392232571Y-167160857D01*
X392161142Y-167089428D01*
X392232571Y-167018000D01*
X392304000Y-167089428D01*
X392161142Y-167089428D01*
X392946857Y-168875142D02*
X391018285Y-167589428D01*
X392946857Y-170446571D02*
X391018285Y-169160857D01*
X391375428Y-171589428D02*
X392875428Y-171589428D01*
X391446857Y-171589428D02*
X391375428Y-171446571D01*
X391375428Y-171160857D01*
X391446857Y-171018000D01*
X391518285Y-170946571D01*
X391661142Y-170875142D01*
X392089714Y-170875142D01*
X392232571Y-170946571D01*
X392304000Y-171018000D01*
X392375428Y-171160857D01*
X392375428Y-171446571D01*
X392304000Y-171589428D01*
X391375428Y-172303714D02*
X392375428Y-172303714D01*
X392875428Y-172303714D02*
X392804000Y-172232285D01*
X392732571Y-172303714D01*
X392804000Y-172375142D01*
X392875428Y-172303714D01*
X392732571Y-172303714D01*
X392375428Y-172875142D02*
X391375428Y-173232285D01*
X392375428Y-173589428D02*
X391375428Y-173232285D01*
X391018285Y-173089428D01*
X390946857Y-173018000D01*
X390875428Y-172875142D01*
X391518285Y-174160857D02*
X391446857Y-174232285D01*
X391375428Y-174160857D01*
X391446857Y-174089428D01*
X391518285Y-174160857D01*
X391375428Y-174160857D01*
X391375428Y-175518000D02*
X392161142Y-175518000D01*
X392304000Y-175446571D01*
X392375428Y-175303714D01*
X392375428Y-175018000D01*
X392304000Y-174875142D01*
X391446857Y-175518000D02*
X391375428Y-175375142D01*
X391375428Y-175018000D01*
X391446857Y-174875142D01*
X391589714Y-174803714D01*
X391732571Y-174803714D01*
X391875428Y-174875142D01*
X391946857Y-175018000D01*
X391946857Y-175375142D01*
X392018285Y-175518000D01*
X391446857Y-176875142D02*
X391375428Y-176732285D01*
X391375428Y-176446571D01*
X391446857Y-176303714D01*
X391518285Y-176232285D01*
X391661142Y-176160857D01*
X392089714Y-176160857D01*
X392232571Y-176232285D01*
X392304000Y-176303714D01*
X392375428Y-176446571D01*
X392375428Y-176732285D01*
X392304000Y-176875142D01*
X391375428Y-177732285D02*
X391446857Y-177589428D01*
X391518285Y-177518000D01*
X391661142Y-177446571D01*
X392089714Y-177446571D01*
X392232571Y-177518000D01*
X392304000Y-177589428D01*
X392375428Y-177732285D01*
X392375428Y-177946571D01*
X392304000Y-178089428D01*
X392232571Y-178160857D01*
X392089714Y-178232285D01*
X391661142Y-178232285D01*
X391518285Y-178160857D01*
X391446857Y-178089428D01*
X391375428Y-177946571D01*
X391375428Y-177732285D01*
X391375428Y-178875142D02*
X392375428Y-178875142D01*
X392089714Y-178875142D02*
X392232571Y-178946571D01*
X392304000Y-179018000D01*
X392375428Y-179160857D01*
X392375428Y-179303714D01*
X392375428Y-179803714D02*
X391375428Y-179803714D01*
X392232571Y-179803714D02*
X392304000Y-179875142D01*
X392375428Y-180018000D01*
X392375428Y-180232285D01*
X392304000Y-180375142D01*
X392161142Y-180446571D01*
X391375428Y-180446571D01*
X391375428Y-181803714D02*
X392161142Y-181803714D01*
X392304000Y-181732285D01*
X392375428Y-181589428D01*
X392375428Y-181303714D01*
X392304000Y-181160857D01*
X391446857Y-181803714D02*
X391375428Y-181660857D01*
X391375428Y-181303714D01*
X391446857Y-181160857D01*
X391589714Y-181089428D01*
X391732571Y-181089428D01*
X391875428Y-181160857D01*
X391946857Y-181303714D01*
X391946857Y-181660857D01*
X392018285Y-181803714D01*
X392375428Y-182303714D02*
X392375428Y-182875142D01*
X392875428Y-182518000D02*
X391589714Y-182518000D01*
X391446857Y-182589428D01*
X391375428Y-182732285D01*
X391375428Y-182875142D01*
X391375428Y-183589428D02*
X391446857Y-183446571D01*
X391518285Y-183375142D01*
X391661142Y-183303714D01*
X392089714Y-183303714D01*
X392232571Y-183375142D01*
X392304000Y-183446571D01*
X392375428Y-183589428D01*
X392375428Y-183803714D01*
X392304000Y-183946571D01*
X392232571Y-184018000D01*
X392089714Y-184089428D01*
X391661142Y-184089428D01*
X391518285Y-184018000D01*
X391446857Y-183946571D01*
X391375428Y-183803714D01*
X391375428Y-183589428D01*
X391375428Y-184732285D02*
X392375428Y-184732285D01*
X392232571Y-184732285D02*
X392304000Y-184803714D01*
X392375428Y-184946571D01*
X392375428Y-185160857D01*
X392304000Y-185303714D01*
X392161142Y-185375142D01*
X391375428Y-185375142D01*
X392161142Y-185375142D02*
X392304000Y-185446571D01*
X392375428Y-185589428D01*
X392375428Y-185803714D01*
X392304000Y-185946571D01*
X392161142Y-186018000D01*
X391375428Y-186018000D01*
X391518285Y-186732285D02*
X391446857Y-186803714D01*
X391375428Y-186732285D01*
X391446857Y-186660857D01*
X391518285Y-186732285D01*
X391375428Y-186732285D01*
X392375428Y-187446571D02*
X391375428Y-187446571D01*
X392232571Y-187446571D02*
X392304000Y-187518000D01*
X392375428Y-187660857D01*
X392375428Y-187875142D01*
X392304000Y-188018000D01*
X392161142Y-188089428D01*
X391375428Y-188089428D01*
X391375428Y-189018000D02*
X391446857Y-188875142D01*
X391589714Y-188803714D01*
X392875428Y-188803714D01*
X389611142Y-161875142D02*
X389539714Y-162089428D01*
X389468285Y-162160857D01*
X389325428Y-162232285D01*
X389111142Y-162232285D01*
X388968285Y-162160857D01*
X388896857Y-162089428D01*
X388825428Y-161946571D01*
X388825428Y-161375142D01*
X390325428Y-161375142D01*
X390325428Y-161875142D01*
X390254000Y-162018000D01*
X390182571Y-162089428D01*
X390039714Y-162160857D01*
X389896857Y-162160857D01*
X389754000Y-162089428D01*
X389682571Y-162018000D01*
X389611142Y-161875142D01*
X389611142Y-161375142D01*
X388825428Y-163089428D02*
X388896857Y-162946571D01*
X388968285Y-162875142D01*
X389111142Y-162803714D01*
X389539714Y-162803714D01*
X389682571Y-162875142D01*
X389754000Y-162946571D01*
X389825428Y-163089428D01*
X389825428Y-163303714D01*
X389754000Y-163446571D01*
X389682571Y-163518000D01*
X389539714Y-163589428D01*
X389111142Y-163589428D01*
X388968285Y-163518000D01*
X388896857Y-163446571D01*
X388825428Y-163303714D01*
X388825428Y-163089428D01*
X388825428Y-164875142D02*
X389611142Y-164875142D01*
X389754000Y-164803714D01*
X389825428Y-164660857D01*
X389825428Y-164375142D01*
X389754000Y-164232285D01*
X388896857Y-164875142D02*
X388825428Y-164732285D01*
X388825428Y-164375142D01*
X388896857Y-164232285D01*
X389039714Y-164160857D01*
X389182571Y-164160857D01*
X389325428Y-164232285D01*
X389396857Y-164375142D01*
X389396857Y-164732285D01*
X389468285Y-164875142D01*
X388825428Y-165589428D02*
X389825428Y-165589428D01*
X389539714Y-165589428D02*
X389682571Y-165660857D01*
X389754000Y-165732285D01*
X389825428Y-165875142D01*
X389825428Y-166018000D01*
X388825428Y-167160857D02*
X390325428Y-167160857D01*
X388896857Y-167160857D02*
X388825428Y-167018000D01*
X388825428Y-166732285D01*
X388896857Y-166589428D01*
X388968285Y-166518000D01*
X389111142Y-166446571D01*
X389539714Y-166446571D01*
X389682571Y-166518000D01*
X389754000Y-166589428D01*
X389825428Y-166732285D01*
X389825428Y-167018000D01*
X389754000Y-167160857D01*
X388825428Y-169660857D02*
X390325428Y-169660857D01*
X388896857Y-169660857D02*
X388825428Y-169518000D01*
X388825428Y-169232285D01*
X388896857Y-169089428D01*
X388968285Y-169018000D01*
X389111142Y-168946571D01*
X389539714Y-168946571D01*
X389682571Y-169018000D01*
X389754000Y-169089428D01*
X389825428Y-169232285D01*
X389825428Y-169518000D01*
X389754000Y-169660857D01*
X388825428Y-171018000D02*
X389611142Y-171018000D01*
X389754000Y-170946571D01*
X389825428Y-170803714D01*
X389825428Y-170518000D01*
X389754000Y-170375142D01*
X388896857Y-171018000D02*
X388825428Y-170875142D01*
X388825428Y-170518000D01*
X388896857Y-170375142D01*
X389039714Y-170303714D01*
X389182571Y-170303714D01*
X389325428Y-170375142D01*
X389396857Y-170518000D01*
X389396857Y-170875142D01*
X389468285Y-171018000D01*
X389825428Y-171518000D02*
X389825428Y-172089428D01*
X390325428Y-171732285D02*
X389039714Y-171732285D01*
X388896857Y-171803714D01*
X388825428Y-171946571D01*
X388825428Y-172089428D01*
X388896857Y-173160857D02*
X388825428Y-173018000D01*
X388825428Y-172732285D01*
X388896857Y-172589428D01*
X389039714Y-172518000D01*
X389611142Y-172518000D01*
X389754000Y-172589428D01*
X389825428Y-172732285D01*
X389825428Y-173018000D01*
X389754000Y-173160857D01*
X389611142Y-173232285D01*
X389468285Y-173232285D01*
X389325428Y-172518000D01*
X388968285Y-173875142D02*
X388896857Y-173946571D01*
X388825428Y-173875142D01*
X388896857Y-173803714D01*
X388968285Y-173875142D01*
X388825428Y-173875142D01*
X389754000Y-173875142D02*
X389682571Y-173946571D01*
X389611142Y-173875142D01*
X389682571Y-173803714D01*
X389754000Y-173875142D01*
X389611142Y-173875142D01*
X388825428Y-176518000D02*
X388825428Y-175660857D01*
X388825428Y-176089428D02*
X390325428Y-176089428D01*
X390111142Y-175946571D01*
X389968285Y-175803714D01*
X389896857Y-175660857D01*
X390325428Y-177803714D02*
X390325428Y-177518000D01*
X390254000Y-177375142D01*
X390182571Y-177303714D01*
X389968285Y-177160857D01*
X389682571Y-177089428D01*
X389111142Y-177089428D01*
X388968285Y-177160857D01*
X388896857Y-177232285D01*
X388825428Y-177375142D01*
X388825428Y-177660857D01*
X388896857Y-177803714D01*
X388968285Y-177875142D01*
X389111142Y-177946571D01*
X389468285Y-177946571D01*
X389611142Y-177875142D01*
X389682571Y-177803714D01*
X389754000Y-177660857D01*
X389754000Y-177375142D01*
X389682571Y-177232285D01*
X389611142Y-177160857D01*
X389468285Y-177089428D01*
X389396857Y-178589428D02*
X389396857Y-179732285D01*
X390325428Y-180732285D02*
X390325428Y-180875142D01*
X390254000Y-181018000D01*
X390182571Y-181089428D01*
X390039714Y-181160857D01*
X389754000Y-181232285D01*
X389396857Y-181232285D01*
X389111142Y-181160857D01*
X388968285Y-181089428D01*
X388896857Y-181018000D01*
X388825428Y-180875142D01*
X388825428Y-180732285D01*
X388896857Y-180589428D01*
X388968285Y-180518000D01*
X389111142Y-180446571D01*
X389396857Y-180375142D01*
X389754000Y-180375142D01*
X390039714Y-180446571D01*
X390182571Y-180518000D01*
X390254000Y-180589428D01*
X390325428Y-180732285D01*
X389825428Y-182518000D02*
X388825428Y-182518000D01*
X390396857Y-182160857D02*
X389325428Y-181803714D01*
X389325428Y-182732285D01*
X389396857Y-183303714D02*
X389396857Y-184446571D01*
X390182571Y-185089428D02*
X390254000Y-185160857D01*
X390325428Y-185303714D01*
X390325428Y-185660857D01*
X390254000Y-185803714D01*
X390182571Y-185875142D01*
X390039714Y-185946571D01*
X389896857Y-185946571D01*
X389682571Y-185875142D01*
X388825428Y-185018000D01*
X388825428Y-185946571D01*
X390325428Y-186875142D02*
X390325428Y-187018000D01*
X390254000Y-187160857D01*
X390182571Y-187232285D01*
X390039714Y-187303714D01*
X389754000Y-187375142D01*
X389396857Y-187375142D01*
X389111142Y-187303714D01*
X388968285Y-187232285D01*
X388896857Y-187160857D01*
X388825428Y-187018000D01*
X388825428Y-186875142D01*
X388896857Y-186732285D01*
X388968285Y-186660857D01*
X389111142Y-186589428D01*
X389396857Y-186518000D01*
X389754000Y-186518000D01*
X390039714Y-186589428D01*
X390182571Y-186660857D01*
X390254000Y-186732285D01*
X390325428Y-186875142D01*
X388825428Y-188803714D02*
X388825428Y-187946571D01*
X388825428Y-188375142D02*
X390325428Y-188375142D01*
X390111142Y-188232285D01*
X389968285Y-188089428D01*
X389896857Y-187946571D01*
X388825428Y-189518000D02*
X388825428Y-189803714D01*
X388896857Y-189946571D01*
X388968285Y-190018000D01*
X389182571Y-190160857D01*
X389468285Y-190232285D01*
X390039714Y-190232285D01*
X390182571Y-190160857D01*
X390254000Y-190089428D01*
X390325428Y-189946571D01*
X390325428Y-189660857D01*
X390254000Y-189518000D01*
X390182571Y-189446571D01*
X390039714Y-189375142D01*
X389682571Y-189375142D01*
X389539714Y-189446571D01*
X389468285Y-189518000D01*
X389396857Y-189660857D01*
X389396857Y-189946571D01*
X389468285Y-190089428D01*
X389539714Y-190160857D01*
X389682571Y-190232285D01*
X386418285Y-167910857D02*
X386346857Y-167839428D01*
X386275428Y-167625142D01*
X386275428Y-167482285D01*
X386346857Y-167268000D01*
X386489714Y-167125142D01*
X386632571Y-167053714D01*
X386918285Y-166982285D01*
X387132571Y-166982285D01*
X387418285Y-167053714D01*
X387561142Y-167125142D01*
X387704000Y-167268000D01*
X387775428Y-167482285D01*
X387775428Y-167625142D01*
X387704000Y-167839428D01*
X387632571Y-167910857D01*
X386275428Y-168768000D02*
X386346857Y-168625142D01*
X386418285Y-168553714D01*
X386561142Y-168482285D01*
X386989714Y-168482285D01*
X387132571Y-168553714D01*
X387204000Y-168625142D01*
X387275428Y-168768000D01*
X387275428Y-168982285D01*
X387204000Y-169125142D01*
X387132571Y-169196571D01*
X386989714Y-169268000D01*
X386561142Y-169268000D01*
X386418285Y-169196571D01*
X386346857Y-169125142D01*
X386275428Y-168982285D01*
X386275428Y-168768000D01*
X386275428Y-169910857D02*
X387275428Y-169910857D01*
X387132571Y-169910857D02*
X387204000Y-169982285D01*
X387275428Y-170125142D01*
X387275428Y-170339428D01*
X387204000Y-170482285D01*
X387061142Y-170553714D01*
X386275428Y-170553714D01*
X387061142Y-170553714D02*
X387204000Y-170625142D01*
X387275428Y-170768000D01*
X387275428Y-170982285D01*
X387204000Y-171125142D01*
X387061142Y-171196571D01*
X386275428Y-171196571D01*
X387275428Y-171910857D02*
X385775428Y-171910857D01*
X387204000Y-171910857D02*
X387275428Y-172053714D01*
X387275428Y-172339428D01*
X387204000Y-172482285D01*
X387132571Y-172553714D01*
X386989714Y-172625142D01*
X386561142Y-172625142D01*
X386418285Y-172553714D01*
X386346857Y-172482285D01*
X386275428Y-172339428D01*
X386275428Y-172053714D01*
X386346857Y-171910857D01*
X386275428Y-173482285D02*
X386346857Y-173339428D01*
X386418285Y-173268000D01*
X386561142Y-173196571D01*
X386989714Y-173196571D01*
X387132571Y-173268000D01*
X387204000Y-173339428D01*
X387275428Y-173482285D01*
X387275428Y-173696571D01*
X387204000Y-173839428D01*
X387132571Y-173910857D01*
X386989714Y-173982285D01*
X386561142Y-173982285D01*
X386418285Y-173910857D01*
X386346857Y-173839428D01*
X386275428Y-173696571D01*
X386275428Y-173482285D01*
X387275428Y-174625142D02*
X386275428Y-174625142D01*
X387132571Y-174625142D02*
X387204000Y-174696571D01*
X387275428Y-174839428D01*
X387275428Y-175053714D01*
X387204000Y-175196571D01*
X387061142Y-175268000D01*
X386275428Y-175268000D01*
X386346857Y-176553714D02*
X386275428Y-176410857D01*
X386275428Y-176125142D01*
X386346857Y-175982285D01*
X386489714Y-175910857D01*
X387061142Y-175910857D01*
X387204000Y-175982285D01*
X387275428Y-176125142D01*
X387275428Y-176410857D01*
X387204000Y-176553714D01*
X387061142Y-176625142D01*
X386918285Y-176625142D01*
X386775428Y-175910857D01*
X387275428Y-177268000D02*
X386275428Y-177268000D01*
X387132571Y-177268000D02*
X387204000Y-177339428D01*
X387275428Y-177482285D01*
X387275428Y-177696571D01*
X387204000Y-177839428D01*
X387061142Y-177910857D01*
X386275428Y-177910857D01*
X387275428Y-178410857D02*
X387275428Y-178982285D01*
X387775428Y-178625142D02*
X386489714Y-178625142D01*
X386346857Y-178696571D01*
X386275428Y-178839428D01*
X386275428Y-178982285D01*
X386346857Y-180553714D02*
X386275428Y-180696571D01*
X386275428Y-180982285D01*
X386346857Y-181125142D01*
X386489714Y-181196571D01*
X386561142Y-181196571D01*
X386704000Y-181125142D01*
X386775428Y-180982285D01*
X386775428Y-180768000D01*
X386846857Y-180625142D01*
X386989714Y-180553714D01*
X387061142Y-180553714D01*
X387204000Y-180625142D01*
X387275428Y-180768000D01*
X387275428Y-180982285D01*
X387204000Y-181125142D01*
X386275428Y-181839428D02*
X387275428Y-181839428D01*
X387775428Y-181839428D02*
X387704000Y-181768000D01*
X387632571Y-181839428D01*
X387704000Y-181910857D01*
X387775428Y-181839428D01*
X387632571Y-181839428D01*
X386275428Y-183196571D02*
X387775428Y-183196571D01*
X386346857Y-183196571D02*
X386275428Y-183053714D01*
X386275428Y-182768000D01*
X386346857Y-182625142D01*
X386418285Y-182553714D01*
X386561142Y-182482285D01*
X386989714Y-182482285D01*
X387132571Y-182553714D01*
X387204000Y-182625142D01*
X387275428Y-182768000D01*
X387275428Y-183053714D01*
X387204000Y-183196571D01*
X386346857Y-184482285D02*
X386275428Y-184339428D01*
X386275428Y-184053714D01*
X386346857Y-183910857D01*
X386489714Y-183839428D01*
X387061142Y-183839428D01*
X387204000Y-183910857D01*
X387275428Y-184053714D01*
X387275428Y-184339428D01*
X387204000Y-184482285D01*
X387061142Y-184553714D01*
X386918285Y-184553714D01*
X386775428Y-183839428D01*
D11*
G04 #@! TO.P,R53,2*
G04 #@! TO.N,Net-(C22-Pad1)*
X327914000Y-132080000D03*
D12*
G04 #@! TO.P,R53,1*
G04 #@! TO.N,Net-(R53-Pad1)*
X335534000Y-132080000D03*
G04 #@! TD*
G04 #@! TO.P,R52,1*
G04 #@! TO.N,Net-(R52-Pad1)*
X349758000Y-132080000D03*
D11*
G04 #@! TO.P,R52,2*
G04 #@! TO.N,Net-(C21-Pad1)*
X342138000Y-132080000D03*
G04 #@! TD*
D13*
G04 #@! TO.P,U11,92*
G04 #@! TO.N,/RDY*
X179730000Y-112990000D03*
G04 #@! TO.P,U11,91*
G04 #@! TO.N,/SYNC*
X182270000Y-112990000D03*
G04 #@! TO.P,U11,90*
G04 #@! TO.N,/SO*
X184810000Y-112990000D03*
G04 #@! TO.P,U11,89*
G04 #@! TO.N,Net-(R17-Pad1)*
X187350000Y-112990000D03*
G04 #@! TO.P,U11,87*
G04 #@! TO.N,GNDD*
X189890000Y-112990000D03*
G04 #@! TO.P,U11,88*
G04 #@! TO.N,Net-(R24-Pad1)*
X192430000Y-112990000D03*
G04 #@! TO.P,U11,86*
G04 #@! TO.N,N/C*
X192430000Y-115530000D03*
G04 #@! TO.P,U11,85*
G04 #@! TO.N,Net-(U11-Pad85)*
X189890000Y-115530000D03*
G04 #@! TO.P,U11,84*
G04 #@! TO.N,/CAS_out*
X187350000Y-115530000D03*
G04 #@! TO.P,U11,83*
G04 #@! TO.N,Net-(R11-Pad1)*
X184810000Y-115530000D03*
G04 #@! TO.P,U11,82*
G04 #@! TO.N,Net-(R10-Pad1)*
X182270000Y-115530000D03*
D14*
G04 #@! TO.P,U11,81*
G04 #@! TO.N,Net-(C23-Pad2)*
X179730000Y-115530000D03*
D13*
G04 #@! TO.P,U11,80*
G04 #@! TO.N,Net-(R14-Pad1)*
X218550000Y-121930000D03*
G04 #@! TO.P,U11,79*
G04 #@! TO.N,Net-(R19-Pad1)*
X218550000Y-124470000D03*
G04 #@! TO.P,U11,78*
G04 #@! TO.N,Net-(R20-Pad1)*
X218550000Y-127010000D03*
G04 #@! TO.P,U11,77*
G04 #@! TO.N,Net-(R22-Pad1)*
X218550000Y-129550000D03*
G04 #@! TO.P,U11,76*
G04 #@! TO.N,Net-(R25-Pad1)*
X218550000Y-132090000D03*
G04 #@! TO.P,U11,75*
G04 #@! TO.N,GNDD*
X218550000Y-134630000D03*
G04 #@! TO.P,U11,74*
G04 #@! TO.N,Net-(R12-Pad1)*
X218550000Y-137170000D03*
G04 #@! TO.P,U11,72*
G04 #@! TO.N,Net-(Q1-Pad3)*
X218550000Y-139710000D03*
G04 #@! TO.P,U11,73*
G04 #@! TO.N,Net-(Q3-Pad3)*
X218550000Y-142250000D03*
G04 #@! TO.P,U11,71*
G04 #@! TO.N,Net-(U11-Pad71)*
X218550000Y-144790000D03*
G04 #@! TO.P,U11,70*
G04 #@! TO.N,Net-(U11-Pad70)*
X218550000Y-147330000D03*
G04 #@! TO.P,U11,69*
G04 #@! TO.N,/A18*
X218550000Y-149870000D03*
G04 #@! TO.P,U11,68*
G04 #@! TO.N,/A17*
X218550000Y-152410000D03*
G04 #@! TO.P,U11,67*
G04 #@! TO.N,Net-(U11-Pad67)*
X218550000Y-154950000D03*
G04 #@! TO.P,U11,66*
G04 #@! TO.N,GNDD*
X218550000Y-157490000D03*
G04 #@! TO.P,U11,65*
G04 #@! TO.N,Net-(U11-Pad65)*
X218550000Y-160030000D03*
G04 #@! TO.P,U11,64*
G04 #@! TO.N,Net-(U11-Pad64)*
X218550000Y-162570000D03*
G04 #@! TO.P,U11,63*
G04 #@! TO.N,Net-(U11-Pad63)*
X218550000Y-165110000D03*
G04 #@! TO.P,U11,62*
G04 #@! TO.N,/RST*
X218550000Y-167650000D03*
G04 #@! TO.P,U11,61*
G04 #@! TO.N,Net-(J14-Pad18)*
X218550000Y-170190000D03*
G04 #@! TO.P,U11,60*
G04 #@! TO.N,Net-(J14-Pad16)*
X216010000Y-170190000D03*
G04 #@! TO.P,U11,59*
G04 #@! TO.N,Net-(J14-Pad14)*
X216010000Y-167650000D03*
G04 #@! TO.P,U11,58*
G04 #@! TO.N,Net-(J14-Pad12)*
X216010000Y-165110000D03*
G04 #@! TO.P,U11,57*
G04 #@! TO.N,Net-(J14-Pad10)*
X216010000Y-162570000D03*
G04 #@! TO.P,U11,56*
G04 #@! TO.N,Net-(J14-Pad8)*
X216010000Y-160030000D03*
G04 #@! TO.P,U11,55*
G04 #@! TO.N,N/C*
X216010000Y-157490000D03*
G04 #@! TO.P,U11,54*
G04 #@! TO.N,Net-(J14-Pad6)*
X216010000Y-154950000D03*
G04 #@! TO.P,U11,53*
G04 #@! TO.N,Net-(J14-Pad4)*
X216010000Y-152410000D03*
G04 #@! TO.P,U11,52*
G04 #@! TO.N,Net-(J14-Pad2)*
X216010000Y-149870000D03*
G04 #@! TO.P,U11,51*
G04 #@! TO.N,Net-(U11-Pad51)*
X216010000Y-147330000D03*
G04 #@! TO.P,U11,50*
G04 #@! TO.N,Net-(U11-Pad50)*
X216010000Y-144790000D03*
G04 #@! TO.P,U11,49*
G04 #@! TO.N,Net-(U11-Pad49)*
X216010000Y-142250000D03*
G04 #@! TO.P,U11,48*
G04 #@! TO.N,Net-(U11-Pad48)*
X216010000Y-139710000D03*
G04 #@! TO.P,U11,47*
G04 #@! TO.N,Net-(J9-Pad1)*
X216010000Y-137170000D03*
G04 #@! TO.P,U11,46*
G04 #@! TO.N,Net-(D3-Pad1)*
X216010000Y-134630000D03*
G04 #@! TO.P,U11,45*
G04 #@! TO.N,Net-(J9-Pad5)*
X216010000Y-132090000D03*
G04 #@! TO.P,U11,44*
G04 #@! TO.N,Net-(J9-Pad2)*
X216010000Y-129550000D03*
G04 #@! TO.P,U11,43*
G04 #@! TO.N,Net-(J9-Pad7)*
X216010000Y-127010000D03*
G04 #@! TO.P,U11,42*
G04 #@! TO.N,/CS_TUBE*
X216010000Y-124470000D03*
D14*
G04 #@! TO.P,U11,41*
G04 #@! TO.N,/BUF_DIR*
X216010000Y-121930000D03*
D13*
G04 #@! TO.P,U11,40*
G04 #@! TO.N,/D2*
X172720000Y-170180000D03*
G04 #@! TO.P,U11,39*
G04 #@! TO.N,/D1*
X172720000Y-167640000D03*
G04 #@! TO.P,U11,38*
G04 #@! TO.N,/D0*
X172720000Y-165100000D03*
G04 #@! TO.P,U11,37*
G04 #@! TO.N,/A0*
X172720000Y-162560000D03*
G04 #@! TO.P,U11,36*
G04 #@! TO.N,/A1*
X172720000Y-160020000D03*
G04 #@! TO.P,U11,35*
G04 #@! TO.N,GNDD*
X172720000Y-157480000D03*
G04 #@! TO.P,U11,34*
G04 #@! TO.N,/A2*
X172720000Y-154940000D03*
G04 #@! TO.P,U11,33*
G04 #@! TO.N,/A3*
X172720000Y-152400000D03*
G04 #@! TO.P,U11,32*
G04 #@! TO.N,/A4*
X172720000Y-149860000D03*
G04 #@! TO.P,U11,31*
G04 #@! TO.N,/A5*
X172720000Y-147320000D03*
G04 #@! TO.P,U11,30*
G04 #@! TO.N,/A6*
X172720000Y-144780000D03*
G04 #@! TO.P,U11,28*
G04 #@! TO.N,/A12*
X172720000Y-142240000D03*
G04 #@! TO.P,U11,29*
G04 #@! TO.N,/A7*
X172720000Y-139700000D03*
G04 #@! TO.P,U11,27*
G04 #@! TO.N,/A15*
X172720000Y-137160000D03*
G04 #@! TO.P,U11,26*
G04 #@! TO.N,GNDD*
X172720000Y-134620000D03*
G04 #@! TO.P,U11,25*
G04 #@! TO.N,/A16*
X172720000Y-132080000D03*
G04 #@! TO.P,U11,24*
G04 #@! TO.N,/IRQ*
X172720000Y-129540000D03*
G04 #@! TO.P,U11,23*
G04 #@! TO.N,/NMI*
X172720000Y-127000000D03*
G04 #@! TO.P,U11,22*
G04 #@! TO.N,/CS_BUF*
X172720000Y-124460000D03*
G04 #@! TO.P,U11,21*
G04 #@! TO.N,/BLK_B*
X172720000Y-121920000D03*
G04 #@! TO.P,U11,20*
G04 #@! TO.N,/CS_VIA*
X175260000Y-121920000D03*
G04 #@! TO.P,U11,19*
G04 #@! TO.N,/RW*
X175260000Y-124460000D03*
G04 #@! TO.P,U11,18*
G04 #@! TO.N,/PHI2*
X175260000Y-127000000D03*
G04 #@! TO.P,U11,17*
G04 #@! TO.N,/NRDS*
X175260000Y-129540000D03*
G04 #@! TO.P,U11,15*
G04 #@! TO.N,N/C*
X175260000Y-132080000D03*
G04 #@! TO.P,U11,14*
G04 #@! TO.N,/A14*
X175260000Y-134620000D03*
G04 #@! TO.P,U11,13*
G04 #@! TO.N,/A13*
X175260000Y-137160000D03*
G04 #@! TO.P,U11,16*
G04 #@! TO.N,/NWDS*
X175260000Y-139700000D03*
G04 #@! TO.P,U11,12*
G04 #@! TO.N,/A8*
X175260000Y-142240000D03*
G04 #@! TO.P,U11,11*
G04 #@! TO.N,/A9*
X175260000Y-144780000D03*
G04 #@! TO.P,U11,10*
G04 #@! TO.N,/A11*
X175260000Y-147320000D03*
G04 #@! TO.P,U11,9*
G04 #@! TO.N,/CS_RAM*
X175260000Y-149860000D03*
G04 #@! TO.P,U11,8*
G04 #@! TO.N,/A10*
X175260000Y-152400000D03*
G04 #@! TO.P,U11,7*
G04 #@! TO.N,/CS_ROM*
X175260000Y-154940000D03*
G04 #@! TO.P,U11,6*
G04 #@! TO.N,Net-(D4-Pad1)*
X175260000Y-157480000D03*
G04 #@! TO.P,U11,5*
G04 #@! TO.N,/D7*
X175260000Y-160020000D03*
G04 #@! TO.P,U11,4*
G04 #@! TO.N,/D6*
X175260000Y-162560000D03*
G04 #@! TO.P,U11,3*
G04 #@! TO.N,/D5*
X175260000Y-165100000D03*
G04 #@! TO.P,U11,2*
G04 #@! TO.N,/D4*
X175260000Y-167640000D03*
D14*
G04 #@! TO.P,U11,1*
G04 #@! TO.N,/D3*
X175260000Y-170180000D03*
G04 #@! TD*
D15*
G04 #@! TO.P,Q4,2*
G04 #@! TO.N,+3V3*
X222250000Y-105410000D03*
G04 #@! TO.P,Q4,3*
G04 #@! TO.N,Net-(J14-Pad16)*
X219710000Y-105410000D03*
D16*
G04 #@! TO.P,Q4,1*
G04 #@! TO.N,Net-(J17-Pad1)*
X224790000Y-105410000D03*
G04 #@! TD*
D12*
G04 #@! TO.P,R34,1*
G04 #@! TO.N,Net-(J14-Pad2)*
X240538000Y-173736000D03*
D11*
G04 #@! TO.P,R34,2*
G04 #@! TO.N,+3V3*
X240538000Y-166116000D03*
G04 #@! TD*
D12*
G04 #@! TO.P,R30,1*
G04 #@! TO.N,Net-(J14-Pad10)*
X260858000Y-173736000D03*
D11*
G04 #@! TO.P,R30,2*
G04 #@! TO.N,+3V3*
X260858000Y-166116000D03*
G04 #@! TD*
D17*
G04 #@! TO.P,U6,1*
G04 #@! TO.N,/A17*
X105410000Y-139700000D03*
D11*
G04 #@! TO.P,U6,17*
G04 #@! TO.N,/D3*
X120650000Y-177800000D03*
G04 #@! TO.P,U6,2*
G04 #@! TO.N,/A16*
X105410000Y-142240000D03*
G04 #@! TO.P,U6,18*
G04 #@! TO.N,/D4*
X120650000Y-175260000D03*
G04 #@! TO.P,U6,3*
G04 #@! TO.N,/A14*
X105410000Y-144780000D03*
G04 #@! TO.P,U6,19*
G04 #@! TO.N,/D5*
X120650000Y-172720000D03*
G04 #@! TO.P,U6,4*
G04 #@! TO.N,/A12*
X105410000Y-147320000D03*
G04 #@! TO.P,U6,20*
G04 #@! TO.N,/D6*
X120650000Y-170180000D03*
G04 #@! TO.P,U6,5*
G04 #@! TO.N,/A7*
X105410000Y-149860000D03*
G04 #@! TO.P,U6,21*
G04 #@! TO.N,/D7*
X120650000Y-167640000D03*
G04 #@! TO.P,U6,6*
G04 #@! TO.N,/A6*
X105410000Y-152400000D03*
G04 #@! TO.P,U6,22*
G04 #@! TO.N,/CS_RAM*
X120650000Y-165100000D03*
G04 #@! TO.P,U6,7*
G04 #@! TO.N,/A5*
X105410000Y-154940000D03*
G04 #@! TO.P,U6,23*
G04 #@! TO.N,/A10*
X120650000Y-162560000D03*
G04 #@! TO.P,U6,8*
G04 #@! TO.N,/A4*
X105410000Y-157480000D03*
G04 #@! TO.P,U6,24*
G04 #@! TO.N,/NRDS*
X120650000Y-160020000D03*
G04 #@! TO.P,U6,9*
G04 #@! TO.N,/A3*
X105410000Y-160020000D03*
G04 #@! TO.P,U6,25*
G04 #@! TO.N,/A11*
X120650000Y-157480000D03*
G04 #@! TO.P,U6,10*
G04 #@! TO.N,/A2*
X105410000Y-162560000D03*
G04 #@! TO.P,U6,26*
G04 #@! TO.N,/A9*
X120650000Y-154940000D03*
G04 #@! TO.P,U6,11*
G04 #@! TO.N,/A1*
X105410000Y-165100000D03*
G04 #@! TO.P,U6,27*
G04 #@! TO.N,/A8*
X120650000Y-152400000D03*
G04 #@! TO.P,U6,12*
G04 #@! TO.N,/A0*
X105410000Y-167640000D03*
G04 #@! TO.P,U6,28*
G04 #@! TO.N,/A13*
X120650000Y-149860000D03*
G04 #@! TO.P,U6,13*
G04 #@! TO.N,/D0*
X105410000Y-170180000D03*
G04 #@! TO.P,U6,29*
G04 #@! TO.N,/NWDS*
X120650000Y-147320000D03*
G04 #@! TO.P,U6,14*
G04 #@! TO.N,/D1*
X105410000Y-172720000D03*
G04 #@! TO.P,U6,30*
G04 #@! TO.N,Net-(J3-Pad2)*
X120650000Y-144780000D03*
G04 #@! TO.P,U6,15*
G04 #@! TO.N,/D2*
X105410000Y-175260000D03*
G04 #@! TO.P,U6,31*
G04 #@! TO.N,/A15*
X120650000Y-142240000D03*
G04 #@! TO.P,U6,16*
G04 #@! TO.N,GNDD*
X105410000Y-177800000D03*
G04 #@! TO.P,U6,32*
G04 #@! TO.N,+3V3*
X120650000Y-139700000D03*
G04 #@! TD*
D14*
G04 #@! TO.P,J5 Pi Tube,1*
G04 #@! TO.N,N/C*
X153670000Y-184150000D03*
D18*
G04 #@! TO.P,J5 Pi Tube,2*
G04 #@! TO.N,Net-(J5-Pad2)*
X153670000Y-186690000D03*
G04 #@! TO.P,J5 Pi Tube,3*
G04 #@! TO.N,/A1*
X151130000Y-184150000D03*
G04 #@! TO.P,J5 Pi Tube,4*
G04 #@! TO.N,Net-(J5-Pad2)*
X151130000Y-186690000D03*
G04 #@! TO.P,J5 Pi Tube,5*
G04 #@! TO.N,/A2*
X148590000Y-184150000D03*
G04 #@! TO.P,J5 Pi Tube,6*
G04 #@! TO.N,GNDD*
X148590000Y-186690000D03*
G04 #@! TO.P,J5 Pi Tube,7*
G04 #@! TO.N,/RST*
X146050000Y-184150000D03*
G04 #@! TO.P,J5 Pi Tube,8*
G04 #@! TO.N,/PiTX*
X146050000Y-186690000D03*
G04 #@! TO.P,J5 Pi Tube,9*
G04 #@! TO.N,GNDD*
X143510000Y-184150000D03*
G04 #@! TO.P,J5 Pi Tube,10*
G04 #@! TO.N,/PiRX*
X143510000Y-186690000D03*
G04 #@! TO.P,J5 Pi Tube,11*
G04 #@! TO.N,/CS_TUBE*
X140970000Y-184150000D03*
G04 #@! TO.P,J5 Pi Tube,12*
G04 #@! TO.N,/RW*
X140970000Y-186690000D03*
G04 #@! TO.P,J5 Pi Tube,13*
G04 #@! TO.N,/A0*
X138430000Y-184150000D03*
G04 #@! TO.P,J5 Pi Tube,14*
G04 #@! TO.N,GNDD*
X138430000Y-186690000D03*
G04 #@! TO.P,J5 Pi Tube,15*
G04 #@! TO.N,/D4*
X135890000Y-184150000D03*
G04 #@! TO.P,J5 Pi Tube,16*
G04 #@! TO.N,/D5*
X135890000Y-186690000D03*
G04 #@! TO.P,J5 Pi Tube,17*
G04 #@! TO.N,N/C*
X133350000Y-184150000D03*
G04 #@! TO.P,J5 Pi Tube,18*
G04 #@! TO.N,/D6*
X133350000Y-186690000D03*
G04 #@! TO.P,J5 Pi Tube,19*
G04 #@! TO.N,/D2*
X130810000Y-184150000D03*
G04 #@! TO.P,J5 Pi Tube,20*
G04 #@! TO.N,GNDD*
X130810000Y-186690000D03*
G04 #@! TO.P,J5 Pi Tube,21*
G04 #@! TO.N,/D1*
X128270000Y-184150000D03*
G04 #@! TO.P,J5 Pi Tube,22*
G04 #@! TO.N,/D7*
X128270000Y-186690000D03*
G04 #@! TO.P,J5 Pi Tube,23*
G04 #@! TO.N,/D3*
X125730000Y-184150000D03*
G04 #@! TO.P,J5 Pi Tube,24*
G04 #@! TO.N,/D0*
X125730000Y-186690000D03*
G04 #@! TO.P,J5 Pi Tube,25*
G04 #@! TO.N,GNDD*
X123190000Y-184150000D03*
G04 #@! TO.P,J5 Pi Tube,26*
G04 #@! TO.N,/PHI2*
X123190000Y-186690000D03*
G04 #@! TO.P,J5 Pi Tube,27*
G04 #@! TO.N,N/C*
X120650000Y-184150000D03*
G04 #@! TO.P,J5 Pi Tube,28*
X120650000Y-186690000D03*
G04 #@! TO.P,J5 Pi Tube,29*
G04 #@! TO.N,/A3*
X118110000Y-184150000D03*
G04 #@! TO.P,J5 Pi Tube,30*
G04 #@! TO.N,GNDD*
X118110000Y-186690000D03*
G04 #@! TO.P,J5 Pi Tube,31*
G04 #@! TO.N,N/C*
X115570000Y-184150000D03*
G04 #@! TO.P,J5 Pi Tube,32*
X115570000Y-186690000D03*
G04 #@! TO.P,J5 Pi Tube,33*
X113030000Y-184150000D03*
G04 #@! TO.P,J5 Pi Tube,34*
G04 #@! TO.N,GNDD*
X113030000Y-186690000D03*
G04 #@! TO.P,J5 Pi Tube,35*
G04 #@! TO.N,N/C*
X110490000Y-184150000D03*
G04 #@! TO.P,J5 Pi Tube,36*
X110490000Y-186690000D03*
G04 #@! TO.P,J5 Pi Tube,37*
X107950000Y-184150000D03*
G04 #@! TO.P,J5 Pi Tube,38*
X107950000Y-186690000D03*
G04 #@! TO.P,J5 Pi Tube,39*
X105410000Y-184150000D03*
G04 #@! TO.P,J5 Pi Tube,40*
X105410000Y-186690000D03*
G04 #@! TD*
D13*
G04 #@! TO.P,J1 (PL7),b32*
G04 #@! TO.N,GNDD*
X145288000Y-94742000D03*
G04 #@! TO.P,J1 (PL7),a32*
X145288000Y-97282000D03*
G04 #@! TO.P,J1 (PL7),b31*
G04 #@! TO.N,/BBLK_B*
X142748000Y-94742000D03*
G04 #@! TO.P,J1 (PL7),a31*
G04 #@! TO.N,/BA18*
X142748000Y-97282000D03*
G04 #@! TO.P,J1 (PL7),b30*
G04 #@! TO.N,/BRW*
X140208000Y-94742000D03*
G04 #@! TO.P,J1 (PL7),a30*
G04 #@! TO.N,/BSYN*
X140208000Y-97282000D03*
G04 #@! TO.P,J1 (PL7),b29*
G04 #@! TO.N,/BPH2*
X137668000Y-94742000D03*
G04 #@! TO.P,J1 (PL7),a29*
G04 #@! TO.N,/BNMI*
X137668000Y-97282000D03*
G04 #@! TO.P,J1 (PL7),b28*
G04 #@! TO.N,/BA9*
X135128000Y-94742000D03*
G04 #@! TO.P,J1 (PL7),a28*
G04 #@! TO.N,/BIRQ*
X135128000Y-97282000D03*
G04 #@! TO.P,J1 (PL7),b27*
G04 #@! TO.N,/BA10*
X132588000Y-94742000D03*
G04 #@! TO.P,J1 (PL7),a27*
G04 #@! TO.N,/BA17*
X132588000Y-97282000D03*
G04 #@! TO.P,J1 (PL7),b26*
G04 #@! TO.N,/BA11*
X130048000Y-94742000D03*
G04 #@! TO.P,J1 (PL7),a26*
G04 #@! TO.N,/BSO*
X130048000Y-97282000D03*
G04 #@! TO.P,J1 (PL7),b25*
G04 #@! TO.N,/BA12*
X127508000Y-94742000D03*
G04 #@! TO.P,J1 (PL7),a25*
G04 #@! TO.N,/BRDY*
X127508000Y-97282000D03*
G04 #@! TO.P,J1 (PL7),b24*
G04 #@! TO.N,/BA13*
X124968000Y-94742000D03*
G04 #@! TO.P,J1 (PL7),a24*
G04 #@! TO.N,/BPiRX*
X124968000Y-97282000D03*
G04 #@! TO.P,J1 (PL7),b23*
G04 #@! TO.N,/BD0*
X122428000Y-94742000D03*
G04 #@! TO.P,J1 (PL7),a23*
G04 #@! TO.N,/BPiTX*
X122428000Y-97282000D03*
G04 #@! TO.P,J1 (PL7),b22*
G04 #@! TO.N,/BD1*
X119888000Y-94742000D03*
G04 #@! TO.P,J1 (PL7),a22*
G04 #@! TO.N,/CA1*
X119888000Y-97282000D03*
G04 #@! TO.P,J1 (PL7),b21*
G04 #@! TO.N,/BD2*
X117348000Y-94742000D03*
G04 #@! TO.P,J1 (PL7),a21*
G04 #@! TO.N,/CA2*
X117348000Y-97282000D03*
G04 #@! TO.P,J1 (PL7),b20*
G04 #@! TO.N,/BD3*
X114808000Y-94742000D03*
G04 #@! TO.P,J1 (PL7),a20*
G04 #@! TO.N,/PA0*
X114808000Y-97282000D03*
G04 #@! TO.P,J1 (PL7),b19*
G04 #@! TO.N,/BD4*
X112268000Y-94742000D03*
G04 #@! TO.P,J1 (PL7),a19*
G04 #@! TO.N,/PA1*
X112268000Y-97282000D03*
G04 #@! TO.P,J1 (PL7),b18*
G04 #@! TO.N,/BD5*
X109728000Y-94742000D03*
G04 #@! TO.P,J1 (PL7),a18*
G04 #@! TO.N,/PA2*
X109728000Y-97282000D03*
G04 #@! TO.P,J1 (PL7),b17*
G04 #@! TO.N,/BD6*
X107188000Y-94742000D03*
G04 #@! TO.P,J1 (PL7),a17*
G04 #@! TO.N,/PA3*
X107188000Y-97282000D03*
G04 #@! TO.P,J1 (PL7),b16*
G04 #@! TO.N,/BD7*
X104648000Y-94742000D03*
G04 #@! TO.P,J1 (PL7),a16*
G04 #@! TO.N,/PA4*
X104648000Y-97282000D03*
G04 #@! TO.P,J1 (PL7),b15*
G04 #@! TO.N,/BA0*
X102108000Y-94742000D03*
G04 #@! TO.P,J1 (PL7),a15*
G04 #@! TO.N,/PA5*
X102108000Y-97282000D03*
G04 #@! TO.P,J1 (PL7),b14*
G04 #@! TO.N,/BA1*
X99568000Y-94742000D03*
G04 #@! TO.P,J1 (PL7),a14*
G04 #@! TO.N,/PA6*
X99568000Y-97282000D03*
G04 #@! TO.P,J1 (PL7),b13*
G04 #@! TO.N,/BA2*
X97028000Y-94742000D03*
G04 #@! TO.P,J1 (PL7),a13*
G04 #@! TO.N,/PA7*
X97028000Y-97282000D03*
G04 #@! TO.P,J1 (PL7),b12*
G04 #@! TO.N,/BA3*
X94488000Y-94742000D03*
G04 #@! TO.P,J1 (PL7),a12*
G04 #@! TO.N,/CB1*
X94488000Y-97282000D03*
G04 #@! TO.P,J1 (PL7),b11*
G04 #@! TO.N,/BA4*
X91948000Y-94742000D03*
G04 #@! TO.P,J1 (PL7),a11*
G04 #@! TO.N,/CB2*
X91948000Y-97282000D03*
G04 #@! TO.P,J1 (PL7),b10*
G04 #@! TO.N,/BA5*
X89408000Y-94742000D03*
G04 #@! TO.P,J1 (PL7),a10*
G04 #@! TO.N,/PB0*
X89408000Y-97282000D03*
G04 #@! TO.P,J1 (PL7),b9*
G04 #@! TO.N,/BA6*
X86868000Y-94742000D03*
G04 #@! TO.P,J1 (PL7),a9*
G04 #@! TO.N,/PB1*
X86868000Y-97282000D03*
G04 #@! TO.P,J1 (PL7),b8*
G04 #@! TO.N,/BA7*
X84328000Y-94742000D03*
G04 #@! TO.P,J1 (PL7),a8*
G04 #@! TO.N,/PB2*
X84328000Y-97282000D03*
G04 #@! TO.P,J1 (PL7),b7*
G04 #@! TO.N,/BA8*
X81788000Y-94742000D03*
G04 #@! TO.P,J1 (PL7),a7*
G04 #@! TO.N,/PB3*
X81788000Y-97282000D03*
G04 #@! TO.P,J1 (PL7),b6*
G04 #@! TO.N,/RST*
X79248000Y-94742000D03*
G04 #@! TO.P,J1 (PL7),a6*
G04 #@! TO.N,/PB4*
X79248000Y-97282000D03*
G04 #@! TO.P,J1 (PL7),b5*
G04 #@! TO.N,/BNRDS*
X76708000Y-94742000D03*
G04 #@! TO.P,J1 (PL7),a5*
G04 #@! TO.N,/PB5*
X76708000Y-97282000D03*
G04 #@! TO.P,J1 (PL7),b4*
G04 #@! TO.N,/BNWDS*
X74168000Y-94742000D03*
G04 #@! TO.P,J1 (PL7),a4*
G04 #@! TO.N,/PB6*
X74168000Y-97282000D03*
G04 #@! TO.P,J1 (PL7),b3*
G04 #@! TO.N,/BA14*
X71628000Y-94742000D03*
G04 #@! TO.P,J1 (PL7),a3*
G04 #@! TO.N,/PB7*
X71628000Y-97282000D03*
G04 #@! TO.P,J1 (PL7),b2*
G04 #@! TO.N,/BA15*
X69088000Y-94742000D03*
G04 #@! TO.P,J1 (PL7),a2*
G04 #@! TO.N,/BA16*
X69088000Y-97282000D03*
G04 #@! TO.P,J1 (PL7),b1*
G04 #@! TO.N,+5V*
X66548000Y-94742000D03*
D14*
G04 #@! TO.P,J1 (PL7),a1*
X66548000Y-97282000D03*
G04 #@! TD*
D17*
G04 #@! TO.P,U5,1*
G04 #@! TO.N,GNDD*
X113030000Y-113030000D03*
D11*
G04 #@! TO.P,U5,21*
G04 #@! TO.N,/BIRQ*
X64770000Y-128270000D03*
G04 #@! TO.P,U5,2*
G04 #@! TO.N,/PA0*
X110490000Y-113030000D03*
G04 #@! TO.P,U5,22*
G04 #@! TO.N,/BRW*
X67310000Y-128270000D03*
G04 #@! TO.P,U5,3*
G04 #@! TO.N,/PA1*
X107950000Y-113030000D03*
G04 #@! TO.P,U5,23*
G04 #@! TO.N,/CS_VIA*
X69850000Y-128270000D03*
G04 #@! TO.P,U5,4*
G04 #@! TO.N,/PA2*
X105410000Y-113030000D03*
G04 #@! TO.P,U5,24*
G04 #@! TO.N,Net-(R5-Pad1)*
X72390000Y-128270000D03*
G04 #@! TO.P,U5,5*
G04 #@! TO.N,/PA3*
X102870000Y-113030000D03*
G04 #@! TO.P,U5,25*
G04 #@! TO.N,/BPH2*
X74930000Y-128270000D03*
G04 #@! TO.P,U5,6*
G04 #@! TO.N,/PA4*
X100330000Y-113030000D03*
G04 #@! TO.P,U5,26*
G04 #@! TO.N,/BD7*
X77470000Y-128270000D03*
G04 #@! TO.P,U5,7*
G04 #@! TO.N,/PA5*
X97790000Y-113030000D03*
G04 #@! TO.P,U5,27*
G04 #@! TO.N,/BD6*
X80010000Y-128270000D03*
G04 #@! TO.P,U5,8*
G04 #@! TO.N,/PA6*
X95250000Y-113030000D03*
G04 #@! TO.P,U5,28*
G04 #@! TO.N,/BD5*
X82550000Y-128270000D03*
G04 #@! TO.P,U5,9*
G04 #@! TO.N,/PA7*
X92710000Y-113030000D03*
G04 #@! TO.P,U5,29*
G04 #@! TO.N,/BD4*
X85090000Y-128270000D03*
G04 #@! TO.P,U5,10*
G04 #@! TO.N,/PB0*
X90170000Y-113030000D03*
G04 #@! TO.P,U5,30*
G04 #@! TO.N,/BD3*
X87630000Y-128270000D03*
G04 #@! TO.P,U5,11*
G04 #@! TO.N,/PB1*
X87630000Y-113030000D03*
G04 #@! TO.P,U5,31*
G04 #@! TO.N,/BD2*
X90170000Y-128270000D03*
G04 #@! TO.P,U5,12*
G04 #@! TO.N,/PB2*
X85090000Y-113030000D03*
G04 #@! TO.P,U5,32*
G04 #@! TO.N,/BD1*
X92710000Y-128270000D03*
G04 #@! TO.P,U5,13*
G04 #@! TO.N,/PB3*
X82550000Y-113030000D03*
G04 #@! TO.P,U5,33*
G04 #@! TO.N,/BD0*
X95250000Y-128270000D03*
G04 #@! TO.P,U5,14*
G04 #@! TO.N,/PB4*
X80010000Y-113030000D03*
G04 #@! TO.P,U5,34*
G04 #@! TO.N,/RST*
X97790000Y-128270000D03*
G04 #@! TO.P,U5,15*
G04 #@! TO.N,/PB5*
X77470000Y-113030000D03*
G04 #@! TO.P,U5,35*
G04 #@! TO.N,/BA3*
X100330000Y-128270000D03*
G04 #@! TO.P,U5,16*
G04 #@! TO.N,/PB6*
X74930000Y-113030000D03*
G04 #@! TO.P,U5,36*
G04 #@! TO.N,/BA2*
X102870000Y-128270000D03*
G04 #@! TO.P,U5,17*
G04 #@! TO.N,/PB7*
X72390000Y-113030000D03*
G04 #@! TO.P,U5,37*
G04 #@! TO.N,/BA1*
X105410000Y-128270000D03*
G04 #@! TO.P,U5,18*
G04 #@! TO.N,/CB1*
X69850000Y-113030000D03*
G04 #@! TO.P,U5,38*
G04 #@! TO.N,/BA0*
X107950000Y-128270000D03*
G04 #@! TO.P,U5,19*
G04 #@! TO.N,/CB2*
X67310000Y-113030000D03*
G04 #@! TO.P,U5,39*
G04 #@! TO.N,/CA2*
X110490000Y-128270000D03*
G04 #@! TO.P,U5,20*
G04 #@! TO.N,+5V*
X64770000Y-113030000D03*
G04 #@! TO.P,U5,40*
G04 #@! TO.N,/CA1*
X113030000Y-128270000D03*
G04 #@! TD*
D17*
G04 #@! TO.P,U4,1*
G04 #@! TO.N,GNDD*
X140081000Y-113030000D03*
D11*
G04 #@! TO.P,U4,11*
G04 #@! TO.N,/A12*
X147701000Y-135890000D03*
G04 #@! TO.P,U4,2*
G04 #@! TO.N,/A8*
X140081000Y-115570000D03*
G04 #@! TO.P,U4,12*
G04 #@! TO.N,/BA11*
X147701000Y-133350000D03*
G04 #@! TO.P,U4,3*
G04 #@! TO.N,/BA15*
X140081000Y-118110000D03*
G04 #@! TO.P,U4,13*
G04 #@! TO.N,/A13*
X147701000Y-130810000D03*
G04 #@! TO.P,U4,4*
G04 #@! TO.N,/A9*
X140081000Y-120650000D03*
G04 #@! TO.P,U4,14*
G04 #@! TO.N,/BA10*
X147701000Y-128270000D03*
G04 #@! TO.P,U4,5*
G04 #@! TO.N,/BA14*
X140081000Y-123190000D03*
G04 #@! TO.P,U4,15*
G04 #@! TO.N,/A14*
X147701000Y-125730000D03*
G04 #@! TO.P,U4,6*
G04 #@! TO.N,/A10*
X140081000Y-125730000D03*
G04 #@! TO.P,U4,16*
G04 #@! TO.N,/BA9*
X147701000Y-123190000D03*
G04 #@! TO.P,U4,7*
G04 #@! TO.N,/BA13*
X140081000Y-128270000D03*
G04 #@! TO.P,U4,17*
G04 #@! TO.N,/A15*
X147701000Y-120650000D03*
G04 #@! TO.P,U4,8*
G04 #@! TO.N,/A11*
X140081000Y-130810000D03*
G04 #@! TO.P,U4,18*
G04 #@! TO.N,/BA8*
X147701000Y-118110000D03*
G04 #@! TO.P,U4,9*
G04 #@! TO.N,/BA12*
X140081000Y-133350000D03*
G04 #@! TO.P,U4,19*
G04 #@! TO.N,GNDD*
X147701000Y-115570000D03*
G04 #@! TO.P,U4,10*
X140081000Y-135890000D03*
G04 #@! TO.P,U4,20*
G04 #@! TO.N,+5V*
X147701000Y-113030000D03*
G04 #@! TD*
D19*
G04 #@! TO.P,C11,1*
G04 #@! TO.N,+3V3*
X139712700Y-149476460D03*
G04 #@! TO.P,C11,2*
G04 #@! TO.N,GNDD*
X139712700Y-156976460D03*
G04 #@! TD*
D20*
G04 #@! TO.P,U7,29*
G04 #@! TO.N,/A14*
X158750000Y-154940000D03*
G04 #@! TO.P,U7,27*
G04 #@! TO.N,/A8*
X158750000Y-157480000D03*
G04 #@! TO.P,U7,25*
G04 #@! TO.N,/A11*
X158750000Y-160020000D03*
G04 #@! TO.P,U7,23*
G04 #@! TO.N,/A10*
X158750000Y-162560000D03*
G04 #@! TO.P,U7,21*
G04 #@! TO.N,/D7*
X158750000Y-165100000D03*
G04 #@! TO.P,U7,28*
G04 #@! TO.N,/A13*
X156210000Y-157480000D03*
G04 #@! TO.P,U7,26*
G04 #@! TO.N,/A9*
X156210000Y-160020000D03*
G04 #@! TO.P,U7,24*
G04 #@! TO.N,/NRDS*
X156210000Y-162560000D03*
G04 #@! TO.P,U7,20*
G04 #@! TO.N,/D6*
X156210000Y-167640000D03*
G04 #@! TO.P,U7,18*
G04 #@! TO.N,/D4*
X153670000Y-167640000D03*
G04 #@! TO.P,U7,16*
G04 #@! TO.N,GNDD*
X151130000Y-167640000D03*
G04 #@! TO.P,U7,14*
G04 #@! TO.N,/D1*
X148590000Y-167640000D03*
G04 #@! TO.P,U7,22*
G04 #@! TO.N,/CS_ROM*
X156210000Y-165100000D03*
G04 #@! TO.P,U7,19*
G04 #@! TO.N,/D5*
X153670000Y-165100000D03*
G04 #@! TO.P,U7,17*
G04 #@! TO.N,/D3*
X151130000Y-165100000D03*
G04 #@! TO.P,U7,15*
G04 #@! TO.N,/D2*
X148590000Y-165100000D03*
G04 #@! TO.P,U7,13*
G04 #@! TO.N,/D0*
X146050000Y-165100000D03*
G04 #@! TO.P,U7,11*
G04 #@! TO.N,/A1*
X146050000Y-162560000D03*
G04 #@! TO.P,U7,9*
G04 #@! TO.N,/A3*
X146050000Y-160020000D03*
G04 #@! TO.P,U7,7*
G04 #@! TO.N,/A5*
X146050000Y-157480000D03*
G04 #@! TO.P,U7,5*
G04 #@! TO.N,/A7*
X146050000Y-154940000D03*
G04 #@! TO.P,U7,12*
G04 #@! TO.N,/A0*
X148590000Y-162560000D03*
G04 #@! TO.P,U7,10*
G04 #@! TO.N,/A2*
X148590000Y-160020000D03*
G04 #@! TO.P,U7,8*
G04 #@! TO.N,/A4*
X148590000Y-157480000D03*
G04 #@! TO.P,U7,6*
G04 #@! TO.N,/A6*
X148590000Y-154940000D03*
G04 #@! TO.P,U7,30*
G04 #@! TO.N,/A17*
X156210000Y-152400000D03*
G04 #@! TO.P,U7,32*
G04 #@! TO.N,+3V3*
X153670000Y-152400000D03*
G04 #@! TO.P,U7,4*
G04 #@! TO.N,/A12*
X148590000Y-152400000D03*
G04 #@! TO.P,U7,2*
G04 #@! TO.N,/A16*
X151130000Y-152400000D03*
G04 #@! TO.P,U7,29*
G04 #@! TO.N,/A14*
X158750000Y-154940000D03*
G04 #@! TO.P,U7,31*
G04 #@! TO.N,/NWDS*
X156210000Y-154940000D03*
G04 #@! TO.P,U7,3*
G04 #@! TO.N,/A15*
X151130000Y-154940000D03*
D21*
G04 #@! TO.P,U7,1*
G04 #@! TO.N,/A18*
X153670000Y-154940000D03*
G04 #@! TD*
D22*
G04 #@! TO.P,J8,15*
G04 #@! TO.N,N/C*
X191770000Y-82804000D03*
G04 #@! TO.P,J8,14*
G04 #@! TO.N,Net-(J8-Pad14)*
X189484000Y-82804000D03*
G04 #@! TO.P,J8,13*
G04 #@! TO.N,Net-(J8-Pad13)*
X187198000Y-82804000D03*
G04 #@! TO.P,J8,12*
G04 #@! TO.N,N/C*
X184912000Y-82804000D03*
G04 #@! TO.P,J8,11*
X182626000Y-82804000D03*
G04 #@! TO.P,J8,10*
G04 #@! TO.N,GNDD*
X190754000Y-85344000D03*
D23*
G04 #@! TO.P,J8,*
G04 #@! TO.N,*
X199438260Y-85783420D03*
D22*
G04 #@! TO.P,J8,6*
G04 #@! TO.N,GNDD*
X181610000Y-85344000D03*
G04 #@! TO.P,J8,7*
X183896000Y-85344000D03*
G04 #@! TO.P,J8,8*
X186182000Y-85344000D03*
G04 #@! TO.P,J8,9*
G04 #@! TO.N,N/C*
X188468000Y-85344000D03*
G04 #@! TO.P,J8,5*
G04 #@! TO.N,GNDD*
X191792860Y-87782400D03*
G04 #@! TO.P,J8,4*
G04 #@! TO.N,N/C*
X189504320Y-87782400D03*
G04 #@! TO.P,J8,1*
G04 #@! TO.N,Net-(J8-Pad1)*
X182633620Y-87782400D03*
G04 #@! TO.P,J8,2*
G04 #@! TO.N,Net-(J8-Pad2)*
X184924700Y-87782400D03*
G04 #@! TO.P,J8,3*
G04 #@! TO.N,Net-(J8-Pad3)*
X187210700Y-87782400D03*
D23*
G04 #@! TO.P,J8,*
G04 #@! TO.N,*
X174449740Y-85783420D03*
G04 #@! TD*
D14*
G04 #@! TO.P,Speaker,1*
G04 #@! TO.N,Net-(C28-Pad2)*
X344424000Y-157226000D03*
D18*
G04 #@! TO.P,Speaker,2*
G04 #@! TO.N,GNDD*
X341884000Y-157226000D03*
G04 #@! TD*
D17*
G04 #@! TO.P,U9,1*
G04 #@! TO.N,GNDD*
X122428000Y-113030000D03*
D11*
G04 #@! TO.P,U9,11*
G04 #@! TO.N,/SYNC*
X130048000Y-135890000D03*
G04 #@! TO.P,U9,2*
G04 #@! TO.N,/PHI2*
X122428000Y-115570000D03*
G04 #@! TO.P,U9,12*
G04 #@! TO.N,/BNRDS*
X130048000Y-133350000D03*
G04 #@! TO.P,U9,3*
G04 #@! TO.N,/BA17*
X122428000Y-118110000D03*
G04 #@! TO.P,U9,13*
G04 #@! TO.N,/BLK_B*
X130048000Y-130810000D03*
G04 #@! TO.P,U9,4*
G04 #@! TO.N,/RW*
X122428000Y-120650000D03*
G04 #@! TO.P,U9,14*
G04 #@! TO.N,/BNWDS*
X130048000Y-128270000D03*
G04 #@! TO.P,U9,5*
G04 #@! TO.N,/BA16*
X122428000Y-123190000D03*
G04 #@! TO.P,U9,15*
G04 #@! TO.N,/A16*
X130048000Y-125730000D03*
G04 #@! TO.P,U9,6*
G04 #@! TO.N,/NWDS*
X122428000Y-125730000D03*
G04 #@! TO.P,U9,16*
G04 #@! TO.N,/BRW*
X130048000Y-123190000D03*
G04 #@! TO.P,U9,7*
G04 #@! TO.N,/BBLK_B*
X122428000Y-128270000D03*
G04 #@! TO.P,U9,17*
G04 #@! TO.N,/A17*
X130048000Y-120650000D03*
G04 #@! TO.P,U9,8*
G04 #@! TO.N,/NRDS*
X122428000Y-130810000D03*
G04 #@! TO.P,U9,18*
G04 #@! TO.N,/BPH2*
X130048000Y-118110000D03*
G04 #@! TO.P,U9,9*
G04 #@! TO.N,/BSYN*
X122428000Y-133350000D03*
G04 #@! TO.P,U9,19*
G04 #@! TO.N,GNDD*
X130048000Y-115570000D03*
G04 #@! TO.P,U9,10*
X122428000Y-135890000D03*
G04 #@! TO.P,U9,20*
G04 #@! TO.N,+5V*
X130048000Y-113030000D03*
G04 #@! TD*
D24*
G04 #@! TO.P,C1,1*
G04 #@! TO.N,+5V*
X375412000Y-115316000D03*
D19*
G04 #@! TO.P,C1,2*
G04 #@! TO.N,GNDD*
X380412000Y-115316000D03*
G04 #@! TD*
D24*
G04 #@! TO.P,C10,1*
G04 #@! TO.N,+3V3*
X388112000Y-115316000D03*
D19*
G04 #@! TO.P,C10,2*
G04 #@! TO.N,GNDD*
X393112000Y-115316000D03*
G04 #@! TD*
D21*
G04 #@! TO.P,D1,1*
G04 #@! TO.N,GNDD*
X295910000Y-85090000D03*
D20*
G04 #@! TO.P,D1,2*
G04 #@! TO.N,Net-(D1-Pad2)*
X298450000Y-85090000D03*
G04 #@! TD*
D21*
G04 #@! TO.P,D2,1*
G04 #@! TO.N,GNDD*
X289687000Y-85090000D03*
D20*
G04 #@! TO.P,D2,2*
G04 #@! TO.N,Net-(D2-Pad2)*
X292227000Y-85090000D03*
G04 #@! TD*
D25*
G04 #@! TO.P,D3,1*
G04 #@! TO.N,Net-(D3-Pad1)*
X208178400Y-134670800D03*
D26*
G04 #@! TO.P,D3,2*
G04 #@! TO.N,+5V*
X208178400Y-124510800D03*
G04 #@! TD*
D25*
G04 #@! TO.P,D4,1*
G04 #@! TO.N,Net-(D4-Pad1)*
X179146200Y-157530800D03*
D26*
G04 #@! TO.P,D4,2*
G04 #@! TO.N,+5V*
X179146200Y-147370800D03*
G04 #@! TD*
D13*
G04 #@! TO.P,J2 (PL6),b32*
G04 #@! TO.N,GNDD*
X145288000Y-88646000D03*
G04 #@! TO.P,J2 (PL6),a32*
X145288000Y-86106000D03*
G04 #@! TO.P,J2 (PL6),b31*
G04 #@! TO.N,/BBLK_B*
X142748000Y-88646000D03*
G04 #@! TO.P,J2 (PL6),a31*
G04 #@! TO.N,/BA18*
X142748000Y-86106000D03*
G04 #@! TO.P,J2 (PL6),b30*
G04 #@! TO.N,/BRW*
X140208000Y-88646000D03*
G04 #@! TO.P,J2 (PL6),a30*
G04 #@! TO.N,/BSYN*
X140208000Y-86106000D03*
G04 #@! TO.P,J2 (PL6),b29*
G04 #@! TO.N,/BPH2*
X137668000Y-88646000D03*
G04 #@! TO.P,J2 (PL6),a29*
G04 #@! TO.N,/BNMI*
X137668000Y-86106000D03*
G04 #@! TO.P,J2 (PL6),b28*
G04 #@! TO.N,/BA9*
X135128000Y-88646000D03*
G04 #@! TO.P,J2 (PL6),a28*
G04 #@! TO.N,/BIRQ*
X135128000Y-86106000D03*
G04 #@! TO.P,J2 (PL6),b27*
G04 #@! TO.N,/BA10*
X132588000Y-88646000D03*
G04 #@! TO.P,J2 (PL6),a27*
G04 #@! TO.N,/BA17*
X132588000Y-86106000D03*
G04 #@! TO.P,J2 (PL6),b26*
G04 #@! TO.N,/BA11*
X130048000Y-88646000D03*
G04 #@! TO.P,J2 (PL6),a26*
G04 #@! TO.N,/BSO*
X130048000Y-86106000D03*
G04 #@! TO.P,J2 (PL6),b25*
G04 #@! TO.N,/BA12*
X127508000Y-88646000D03*
G04 #@! TO.P,J2 (PL6),a25*
G04 #@! TO.N,/BRDY*
X127508000Y-86106000D03*
G04 #@! TO.P,J2 (PL6),b24*
G04 #@! TO.N,/BA13*
X124968000Y-88646000D03*
G04 #@! TO.P,J2 (PL6),a24*
G04 #@! TO.N,/BPiRX*
X124968000Y-86106000D03*
G04 #@! TO.P,J2 (PL6),b23*
G04 #@! TO.N,/BD0*
X122428000Y-88646000D03*
G04 #@! TO.P,J2 (PL6),a23*
G04 #@! TO.N,/BPiTX*
X122428000Y-86106000D03*
G04 #@! TO.P,J2 (PL6),b22*
G04 #@! TO.N,/BD1*
X119888000Y-88646000D03*
G04 #@! TO.P,J2 (PL6),a22*
G04 #@! TO.N,/CA1*
X119888000Y-86106000D03*
G04 #@! TO.P,J2 (PL6),b21*
G04 #@! TO.N,/BD2*
X117348000Y-88646000D03*
G04 #@! TO.P,J2 (PL6),a21*
G04 #@! TO.N,/CA2*
X117348000Y-86106000D03*
G04 #@! TO.P,J2 (PL6),b20*
G04 #@! TO.N,/BD3*
X114808000Y-88646000D03*
G04 #@! TO.P,J2 (PL6),a20*
G04 #@! TO.N,/PA0*
X114808000Y-86106000D03*
G04 #@! TO.P,J2 (PL6),b19*
G04 #@! TO.N,/BD4*
X112268000Y-88646000D03*
G04 #@! TO.P,J2 (PL6),a19*
G04 #@! TO.N,/PA1*
X112268000Y-86106000D03*
G04 #@! TO.P,J2 (PL6),b18*
G04 #@! TO.N,/BD5*
X109728000Y-88646000D03*
G04 #@! TO.P,J2 (PL6),a18*
G04 #@! TO.N,/PA2*
X109728000Y-86106000D03*
G04 #@! TO.P,J2 (PL6),b17*
G04 #@! TO.N,/BD6*
X107188000Y-88646000D03*
G04 #@! TO.P,J2 (PL6),a17*
G04 #@! TO.N,/PA3*
X107188000Y-86106000D03*
G04 #@! TO.P,J2 (PL6),b16*
G04 #@! TO.N,/BD7*
X104648000Y-88646000D03*
G04 #@! TO.P,J2 (PL6),a16*
G04 #@! TO.N,/PA4*
X104648000Y-86106000D03*
G04 #@! TO.P,J2 (PL6),b15*
G04 #@! TO.N,/BA0*
X102108000Y-88646000D03*
G04 #@! TO.P,J2 (PL6),a15*
G04 #@! TO.N,/PA5*
X102108000Y-86106000D03*
G04 #@! TO.P,J2 (PL6),b14*
G04 #@! TO.N,/BA1*
X99568000Y-88646000D03*
G04 #@! TO.P,J2 (PL6),a14*
G04 #@! TO.N,/PA6*
X99568000Y-86106000D03*
G04 #@! TO.P,J2 (PL6),b13*
G04 #@! TO.N,/BA2*
X97028000Y-88646000D03*
G04 #@! TO.P,J2 (PL6),a13*
G04 #@! TO.N,/PA7*
X97028000Y-86106000D03*
G04 #@! TO.P,J2 (PL6),b12*
G04 #@! TO.N,/BA3*
X94488000Y-88646000D03*
G04 #@! TO.P,J2 (PL6),a12*
G04 #@! TO.N,/CB1*
X94488000Y-86106000D03*
G04 #@! TO.P,J2 (PL6),b11*
G04 #@! TO.N,/BA4*
X91948000Y-88646000D03*
G04 #@! TO.P,J2 (PL6),a11*
G04 #@! TO.N,/CB2*
X91948000Y-86106000D03*
G04 #@! TO.P,J2 (PL6),b10*
G04 #@! TO.N,/BA5*
X89408000Y-88646000D03*
G04 #@! TO.P,J2 (PL6),a10*
G04 #@! TO.N,/PB0*
X89408000Y-86106000D03*
G04 #@! TO.P,J2 (PL6),b9*
G04 #@! TO.N,/BA6*
X86868000Y-88646000D03*
G04 #@! TO.P,J2 (PL6),a9*
G04 #@! TO.N,/PB1*
X86868000Y-86106000D03*
G04 #@! TO.P,J2 (PL6),b8*
G04 #@! TO.N,/BA7*
X84328000Y-88646000D03*
G04 #@! TO.P,J2 (PL6),a8*
G04 #@! TO.N,/PB2*
X84328000Y-86106000D03*
G04 #@! TO.P,J2 (PL6),b7*
G04 #@! TO.N,/BA8*
X81788000Y-88646000D03*
G04 #@! TO.P,J2 (PL6),a7*
G04 #@! TO.N,/PB3*
X81788000Y-86106000D03*
G04 #@! TO.P,J2 (PL6),b6*
G04 #@! TO.N,/RST*
X79248000Y-88646000D03*
G04 #@! TO.P,J2 (PL6),a6*
G04 #@! TO.N,/PB4*
X79248000Y-86106000D03*
G04 #@! TO.P,J2 (PL6),b5*
G04 #@! TO.N,/BNRDS*
X76708000Y-88646000D03*
G04 #@! TO.P,J2 (PL6),a5*
G04 #@! TO.N,/PB5*
X76708000Y-86106000D03*
G04 #@! TO.P,J2 (PL6),b4*
G04 #@! TO.N,/BNWDS*
X74168000Y-88646000D03*
G04 #@! TO.P,J2 (PL6),a4*
G04 #@! TO.N,/PB6*
X74168000Y-86106000D03*
G04 #@! TO.P,J2 (PL6),b3*
G04 #@! TO.N,/BA14*
X71628000Y-88646000D03*
G04 #@! TO.P,J2 (PL6),a3*
G04 #@! TO.N,/PB7*
X71628000Y-86106000D03*
G04 #@! TO.P,J2 (PL6),b2*
G04 #@! TO.N,/BA15*
X69088000Y-88646000D03*
G04 #@! TO.P,J2 (PL6),a2*
G04 #@! TO.N,/BA16*
X69088000Y-86106000D03*
G04 #@! TO.P,J2 (PL6),b1*
G04 #@! TO.N,+5V*
X66548000Y-88646000D03*
D14*
G04 #@! TO.P,J2 (PL6),a1*
X66548000Y-86106000D03*
G04 #@! TD*
G04 #@! TO.P,J3,1*
G04 #@! TO.N,/A18*
X133350000Y-144780000D03*
D18*
G04 #@! TO.P,J3,2*
G04 #@! TO.N,Net-(J3-Pad2)*
X130810000Y-144780000D03*
G04 #@! TO.P,J3,3*
G04 #@! TO.N,Net-(J3-Pad3)*
X128270000Y-144780000D03*
G04 #@! TD*
D27*
G04 #@! TO.P,J4,1*
G04 #@! TO.N,+5V*
X365760000Y-91440000D03*
G04 #@! TO.P,J4,2*
G04 #@! TO.N,GNDD*
X365760000Y-85440000D03*
G04 #@! TO.P,J4,3*
G04 #@! TO.N,N/C*
X361060000Y-88440000D03*
G04 #@! TD*
D17*
G04 #@! TO.P,U2,1*
G04 #@! TO.N,/BUF_DIR*
X86360000Y-154940000D03*
D11*
G04 #@! TO.P,U2,11*
G04 #@! TO.N,/D7*
X93980000Y-177800000D03*
G04 #@! TO.P,U2,2*
G04 #@! TO.N,/BD0*
X86360000Y-157480000D03*
G04 #@! TO.P,U2,12*
G04 #@! TO.N,/D6*
X93980000Y-175260000D03*
G04 #@! TO.P,U2,3*
G04 #@! TO.N,/BD1*
X86360000Y-160020000D03*
G04 #@! TO.P,U2,13*
G04 #@! TO.N,/D5*
X93980000Y-172720000D03*
G04 #@! TO.P,U2,4*
G04 #@! TO.N,/BD2*
X86360000Y-162560000D03*
G04 #@! TO.P,U2,14*
G04 #@! TO.N,/D4*
X93980000Y-170180000D03*
G04 #@! TO.P,U2,5*
G04 #@! TO.N,/BD3*
X86360000Y-165100000D03*
G04 #@! TO.P,U2,15*
G04 #@! TO.N,/D3*
X93980000Y-167640000D03*
G04 #@! TO.P,U2,6*
G04 #@! TO.N,/BD4*
X86360000Y-167640000D03*
G04 #@! TO.P,U2,16*
G04 #@! TO.N,/D2*
X93980000Y-165100000D03*
G04 #@! TO.P,U2,7*
G04 #@! TO.N,/BD5*
X86360000Y-170180000D03*
G04 #@! TO.P,U2,17*
G04 #@! TO.N,/D1*
X93980000Y-162560000D03*
G04 #@! TO.P,U2,8*
G04 #@! TO.N,/BD6*
X86360000Y-172720000D03*
G04 #@! TO.P,U2,18*
G04 #@! TO.N,/D0*
X93980000Y-160020000D03*
G04 #@! TO.P,U2,9*
G04 #@! TO.N,/BD7*
X86360000Y-175260000D03*
G04 #@! TO.P,U2,19*
G04 #@! TO.N,/CS_BUF*
X93980000Y-157480000D03*
G04 #@! TO.P,U2,10*
G04 #@! TO.N,GNDD*
X86360000Y-177800000D03*
G04 #@! TO.P,U2,20*
G04 #@! TO.N,+3V3*
X93980000Y-154940000D03*
G04 #@! TD*
D17*
G04 #@! TO.P,U3,1*
G04 #@! TO.N,GNDD*
X51854100Y-154978100D03*
D11*
G04 #@! TO.P,U3,11*
G04 #@! TO.N,/A4*
X59474100Y-177838100D03*
G04 #@! TO.P,U3,2*
G04 #@! TO.N,/A0*
X51854100Y-157518100D03*
G04 #@! TO.P,U3,12*
G04 #@! TO.N,/BA3*
X59474100Y-175298100D03*
G04 #@! TO.P,U3,3*
G04 #@! TO.N,/BA7*
X51854100Y-160058100D03*
G04 #@! TO.P,U3,13*
G04 #@! TO.N,/A5*
X59474100Y-172758100D03*
G04 #@! TO.P,U3,4*
G04 #@! TO.N,/A1*
X51854100Y-162598100D03*
G04 #@! TO.P,U3,14*
G04 #@! TO.N,/BA2*
X59474100Y-170218100D03*
G04 #@! TO.P,U3,5*
G04 #@! TO.N,/BA6*
X51854100Y-165138100D03*
G04 #@! TO.P,U3,15*
G04 #@! TO.N,/A6*
X59474100Y-167678100D03*
G04 #@! TO.P,U3,6*
G04 #@! TO.N,/A2*
X51854100Y-167678100D03*
G04 #@! TO.P,U3,16*
G04 #@! TO.N,/BA1*
X59474100Y-165138100D03*
G04 #@! TO.P,U3,7*
G04 #@! TO.N,/BA5*
X51854100Y-170218100D03*
G04 #@! TO.P,U3,17*
G04 #@! TO.N,/A7*
X59474100Y-162598100D03*
G04 #@! TO.P,U3,8*
G04 #@! TO.N,/A3*
X51854100Y-172758100D03*
G04 #@! TO.P,U3,18*
G04 #@! TO.N,/BA0*
X59474100Y-160058100D03*
G04 #@! TO.P,U3,9*
G04 #@! TO.N,/BA4*
X51854100Y-175298100D03*
G04 #@! TO.P,U3,19*
G04 #@! TO.N,GNDD*
X59474100Y-157518100D03*
G04 #@! TO.P,U3,10*
X51854100Y-177838100D03*
G04 #@! TO.P,U3,20*
G04 #@! TO.N,+5V*
X59474100Y-154978100D03*
G04 #@! TD*
D15*
G04 #@! TO.P,Q1,2*
G04 #@! TO.N,+3V3*
X241300000Y-105410000D03*
G04 #@! TO.P,Q1,3*
G04 #@! TO.N,Net-(Q1-Pad3)*
X238760000Y-105410000D03*
D16*
G04 #@! TO.P,Q1,1*
G04 #@! TO.N,Net-(J16-Pad5)*
X243840000Y-105410000D03*
G04 #@! TD*
D15*
G04 #@! TO.P,Q2,2*
G04 #@! TO.N,+3V3*
X232410000Y-105410000D03*
G04 #@! TO.P,Q2,3*
G04 #@! TO.N,Net-(J14-Pad14)*
X229870000Y-105410000D03*
D16*
G04 #@! TO.P,Q2,1*
G04 #@! TO.N,Net-(J17-Pad5)*
X234950000Y-105410000D03*
G04 #@! TD*
D15*
G04 #@! TO.P,Q3,2*
G04 #@! TO.N,+3V3*
X251460000Y-105410000D03*
G04 #@! TO.P,Q3,3*
G04 #@! TO.N,Net-(Q3-Pad3)*
X248920000Y-105410000D03*
D16*
G04 #@! TO.P,Q3,1*
G04 #@! TO.N,Net-(J16-Pad1)*
X254000000Y-105410000D03*
G04 #@! TD*
D14*
G04 #@! TO.P,J12,1*
G04 #@! TO.N,/BCAS_out*
X376936000Y-128524000D03*
D18*
G04 #@! TO.P,J12,2*
G04 #@! TO.N,Net-(J12-Pad2)*
X376936000Y-131064000D03*
G04 #@! TO.P,J12,3*
G04 #@! TO.N,Net-(C20-Pad1)*
X376936000Y-133604000D03*
G04 #@! TD*
D17*
G04 #@! TO.P,U12,1*
G04 #@! TO.N,+3V3*
X291084000Y-137922000D03*
D11*
G04 #@! TO.P,U12,5*
G04 #@! TO.N,Net-(U11-Pad64)*
X298704000Y-145542000D03*
G04 #@! TO.P,U12,2*
G04 #@! TO.N,Net-(U11-Pad67)*
X291084000Y-140462000D03*
G04 #@! TO.P,U12,6*
G04 #@! TO.N,/DAC_VB*
X298704000Y-143002000D03*
G04 #@! TO.P,U12,3*
G04 #@! TO.N,Net-(U11-Pad63)*
X291084000Y-143002000D03*
G04 #@! TO.P,U12,7*
G04 #@! TO.N,GNDD*
X298704000Y-140462000D03*
G04 #@! TO.P,U12,4*
G04 #@! TO.N,Net-(U11-Pad65)*
X291084000Y-145542000D03*
G04 #@! TO.P,U12,8*
G04 #@! TO.N,/DAC_VA*
X298704000Y-137922000D03*
G04 #@! TD*
D14*
G04 #@! TO.P,J19,1*
G04 #@! TO.N,Net-(J18-Pad13)*
X283819600Y-142240000D03*
D18*
G04 #@! TO.P,J19,2*
G04 #@! TO.N,GNDD*
X283819600Y-144780000D03*
G04 #@! TO.P,J19,3*
G04 #@! TO.N,Net-(J18-Pad5)*
X283819600Y-147320000D03*
G04 #@! TD*
D19*
G04 #@! TO.P,C3,1*
G04 #@! TO.N,+5V*
X159258000Y-181864000D03*
G04 #@! TO.P,C3,2*
G04 #@! TO.N,GNDD*
X159258000Y-189364000D03*
G04 #@! TD*
G04 #@! TO.P,C5,1*
G04 #@! TO.N,+5V*
X130048000Y-107924600D03*
G04 #@! TO.P,C5,2*
G04 #@! TO.N,GNDD*
X122548000Y-107924600D03*
G04 #@! TD*
G04 #@! TO.P,C6,1*
G04 #@! TO.N,+5V*
X59200000Y-116520000D03*
G04 #@! TO.P,C6,2*
G04 #@! TO.N,GNDD*
X59200000Y-124020000D03*
G04 #@! TD*
G04 #@! TO.P,C7,1*
G04 #@! TO.N,+5V*
X147701000Y-107950000D03*
G04 #@! TO.P,C7,2*
G04 #@! TO.N,GNDD*
X140201000Y-107950000D03*
G04 #@! TD*
G04 #@! TO.P,C8,1*
G04 #@! TO.N,+5V*
X323342000Y-152146000D03*
G04 #@! TO.P,C8,2*
G04 #@! TO.N,GNDD*
X315842000Y-152146000D03*
G04 #@! TD*
G04 #@! TO.P,C12,1*
G04 #@! TO.N,+3V3*
X107950000Y-134620000D03*
G04 #@! TO.P,C12,2*
G04 #@! TO.N,GNDD*
X115450000Y-134620000D03*
G04 #@! TD*
G04 #@! TO.P,C15,1*
G04 #@! TO.N,+3V3*
X93980000Y-148590000D03*
G04 #@! TO.P,C15,2*
G04 #@! TO.N,GNDD*
X86480000Y-148590000D03*
G04 #@! TD*
G04 #@! TO.P,C16,1*
G04 #@! TO.N,+3V3*
X204216000Y-152400000D03*
G04 #@! TO.P,C16,2*
G04 #@! TO.N,GNDD*
X204216000Y-159900000D03*
G04 #@! TD*
G04 #@! TO.P,C17,1*
G04 #@! TO.N,+3V3*
X275082000Y-113792000D03*
G04 #@! TO.P,C17,2*
G04 #@! TO.N,GNDD*
X267582000Y-113792000D03*
G04 #@! TD*
G04 #@! TO.P,C18,1*
G04 #@! TO.N,+3V3*
X291338000Y-131826000D03*
G04 #@! TO.P,C18,2*
G04 #@! TO.N,GNDD*
X298838000Y-131826000D03*
G04 #@! TD*
G04 #@! TO.P,C19,1*
G04 #@! TO.N,+3V3*
X258724400Y-125476000D03*
G04 #@! TO.P,C19,2*
G04 #@! TO.N,GNDD*
X251224400Y-125476000D03*
G04 #@! TD*
G04 #@! TO.P,C20,1*
G04 #@! TO.N,Net-(C20-Pad1)*
X357378000Y-127254000D03*
G04 #@! TO.P,C20,2*
G04 #@! TO.N,GNDD*
X357378000Y-134754000D03*
G04 #@! TD*
G04 #@! TO.P,C21,1*
G04 #@! TO.N,Net-(C21-Pad1)*
X323088000Y-132080000D03*
G04 #@! TO.P,C21,2*
G04 #@! TO.N,Net-(C21-Pad2)*
X315588000Y-132080000D03*
G04 #@! TD*
G04 #@! TO.P,C22,1*
G04 #@! TO.N,Net-(C22-Pad1)*
X323342000Y-145796000D03*
G04 #@! TO.P,C22,2*
G04 #@! TO.N,Net-(C22-Pad2)*
X315842000Y-145796000D03*
G04 #@! TD*
G04 #@! TO.P,C23,1*
G04 #@! TO.N,Net-(C23-Pad1)*
X323342000Y-138938000D03*
G04 #@! TO.P,C23,2*
G04 #@! TO.N,Net-(C23-Pad2)*
X315842000Y-138938000D03*
G04 #@! TD*
G04 #@! TO.P,C25,1*
G04 #@! TO.N,Net-(C25-Pad1)*
X359410000Y-151892000D03*
G04 #@! TO.P,C25,2*
G04 #@! TO.N,GNDD*
X359410000Y-144392000D03*
G04 #@! TD*
G04 #@! TO.P,C29,1*
G04 #@! TO.N,Net-(C29-Pad1)*
X390652000Y-128524000D03*
G04 #@! TO.P,C29,2*
G04 #@! TO.N,Net-(C29-Pad2)*
X390652000Y-136024000D03*
G04 #@! TD*
D12*
G04 #@! TO.P,R1,1*
G04 #@! TO.N,GNDD*
X35852100Y-158280100D03*
D11*
G04 #@! TO.P,R1,2*
G04 #@! TO.N,/BD1*
X43472100Y-158280100D03*
G04 #@! TD*
D12*
G04 #@! TO.P,R2,1*
G04 #@! TO.N,GNDD*
X35934100Y-162598100D03*
D11*
G04 #@! TO.P,R2,2*
G04 #@! TO.N,/BD2*
X43554100Y-162598100D03*
G04 #@! TD*
D12*
G04 #@! TO.P,R3,1*
G04 #@! TO.N,GNDD*
X35852100Y-166916100D03*
D11*
G04 #@! TO.P,R3,2*
G04 #@! TO.N,/BD3*
X43472100Y-166916100D03*
G04 #@! TD*
D12*
G04 #@! TO.P,R4,1*
G04 #@! TO.N,+3V3*
X135890000Y-149504400D03*
D11*
G04 #@! TO.P,R4,2*
G04 #@! TO.N,Net-(J3-Pad3)*
X128270000Y-149504400D03*
G04 #@! TD*
D12*
G04 #@! TO.P,R5,1*
G04 #@! TO.N,Net-(R5-Pad1)*
X45847000Y-130429000D03*
D11*
G04 #@! TO.P,R5,2*
G04 #@! TO.N,+3V3*
X53467000Y-130429000D03*
G04 #@! TD*
D12*
G04 #@! TO.P,R6,1*
G04 #@! TO.N,/BNMI*
X163957000Y-86360000D03*
D11*
G04 #@! TO.P,R6,2*
G04 #@! TO.N,+3V3*
X163957000Y-93980000D03*
G04 #@! TD*
D12*
G04 #@! TO.P,R7,1*
G04 #@! TO.N,/BIRQ*
X45847000Y-126238000D03*
D11*
G04 #@! TO.P,R7,2*
G04 #@! TO.N,+3V3*
X53467000Y-126238000D03*
G04 #@! TD*
D12*
G04 #@! TO.P,R8,1*
G04 #@! TO.N,/BSO*
X159131000Y-86360000D03*
D11*
G04 #@! TO.P,R8,2*
G04 #@! TO.N,+3V3*
X159131000Y-93980000D03*
G04 #@! TD*
D12*
G04 #@! TO.P,R9,1*
G04 #@! TO.N,/BRDY*
X168656000Y-86360000D03*
D11*
G04 #@! TO.P,R9,2*
G04 #@! TO.N,+3V3*
X168656000Y-93980000D03*
G04 #@! TD*
D12*
G04 #@! TO.P,R10,1*
G04 #@! TO.N,Net-(R10-Pad1)*
X298450000Y-97155000D03*
D11*
G04 #@! TO.P,R10,2*
G04 #@! TO.N,Net-(D1-Pad2)*
X298450000Y-89535000D03*
G04 #@! TD*
D12*
G04 #@! TO.P,R11,1*
G04 #@! TO.N,Net-(R11-Pad1)*
X292227000Y-97028000D03*
D11*
G04 #@! TO.P,R11,2*
G04 #@! TO.N,Net-(D2-Pad2)*
X292227000Y-89408000D03*
G04 #@! TD*
D12*
G04 #@! TO.P,R12,1*
G04 #@! TO.N,Net-(R12-Pad1)*
X212090000Y-104140000D03*
D11*
G04 #@! TO.P,R12,2*
G04 #@! TO.N,Net-(J8-Pad14)*
X212090000Y-96520000D03*
G04 #@! TD*
D12*
G04 #@! TO.P,R13,1*
G04 #@! TO.N,+3V3*
X279146000Y-125476000D03*
D11*
G04 #@! TO.P,R13,2*
G04 #@! TO.N,Net-(J9-Pad7)*
X279146000Y-117856000D03*
G04 #@! TD*
D12*
G04 #@! TO.P,R14,1*
G04 #@! TO.N,Net-(R14-Pad1)*
X175006000Y-103886000D03*
D11*
G04 #@! TO.P,R14,2*
G04 #@! TO.N,Net-(J8-Pad1)*
X175006000Y-96266000D03*
G04 #@! TD*
D12*
G04 #@! TO.P,R15,1*
G04 #@! TO.N,+3V3*
X269240000Y-125476000D03*
D11*
G04 #@! TO.P,R15,2*
G04 #@! TO.N,Net-(J9-Pad2)*
X269240000Y-117856000D03*
G04 #@! TD*
D12*
G04 #@! TO.P,R16,1*
G04 #@! TO.N,+3V3*
X264160000Y-125476000D03*
D11*
G04 #@! TO.P,R16,2*
G04 #@! TO.N,Net-(J9-Pad1)*
X264160000Y-117856000D03*
G04 #@! TD*
D12*
G04 #@! TO.P,R17,1*
G04 #@! TO.N,Net-(R17-Pad1)*
X168656000Y-103886000D03*
D11*
G04 #@! TO.P,R17,2*
G04 #@! TO.N,Net-(J8-Pad1)*
X168656000Y-96266000D03*
G04 #@! TD*
D12*
G04 #@! TO.P,R18,1*
G04 #@! TO.N,+3V3*
X274066000Y-125476000D03*
D11*
G04 #@! TO.P,R18,2*
G04 #@! TO.N,Net-(J9-Pad5)*
X274066000Y-117856000D03*
G04 #@! TD*
D12*
G04 #@! TO.P,R19,1*
G04 #@! TO.N,Net-(R19-Pad1)*
X180340000Y-104140000D03*
D11*
G04 #@! TO.P,R19,2*
G04 #@! TO.N,Net-(J8-Pad2)*
X180340000Y-96520000D03*
G04 #@! TD*
D12*
G04 #@! TO.P,R20,1*
G04 #@! TO.N,Net-(R20-Pad1)*
X186690000Y-104140000D03*
D11*
G04 #@! TO.P,R20,2*
G04 #@! TO.N,Net-(J8-Pad2)*
X186690000Y-96520000D03*
G04 #@! TD*
D12*
G04 #@! TO.P,R21,1*
G04 #@! TO.N,Net-(C20-Pad1)*
X369824000Y-134874000D03*
D11*
G04 #@! TO.P,R21,2*
G04 #@! TO.N,/BCAS_out*
X369824000Y-127254000D03*
G04 #@! TD*
D12*
G04 #@! TO.P,R22,1*
G04 #@! TO.N,Net-(R22-Pad1)*
X199390000Y-103886000D03*
D11*
G04 #@! TO.P,R22,2*
G04 #@! TO.N,Net-(J8-Pad3)*
X199390000Y-96266000D03*
G04 #@! TD*
D12*
G04 #@! TO.P,R23,1*
G04 #@! TO.N,Net-(C20-Pad1)*
X364744000Y-127254000D03*
D11*
G04 #@! TO.P,R23,2*
G04 #@! TO.N,GNDD*
X364744000Y-134874000D03*
G04 #@! TD*
D12*
G04 #@! TO.P,R24,1*
G04 #@! TO.N,Net-(R24-Pad1)*
X193040000Y-103886000D03*
D11*
G04 #@! TO.P,R24,2*
G04 #@! TO.N,Net-(J8-Pad3)*
X193040000Y-96266000D03*
G04 #@! TD*
D12*
G04 #@! TO.P,R25,1*
G04 #@! TO.N,Net-(R25-Pad1)*
X205740000Y-104140000D03*
D11*
G04 #@! TO.P,R25,2*
G04 #@! TO.N,Net-(J8-Pad13)*
X205740000Y-96520000D03*
G04 #@! TD*
D12*
G04 #@! TO.P,R26,1*
G04 #@! TO.N,Net-(J14-Pad18)*
X281178000Y-173736000D03*
D11*
G04 #@! TO.P,R26,2*
G04 #@! TO.N,+3V3*
X281178000Y-166116000D03*
G04 #@! TD*
D12*
G04 #@! TO.P,R27,1*
G04 #@! TO.N,Net-(J14-Pad16)*
X276098000Y-173736000D03*
D11*
G04 #@! TO.P,R27,2*
G04 #@! TO.N,+3V3*
X276098000Y-166116000D03*
G04 #@! TD*
D12*
G04 #@! TO.P,R28,1*
G04 #@! TO.N,Net-(J14-Pad14)*
X271018000Y-173736000D03*
D11*
G04 #@! TO.P,R28,2*
G04 #@! TO.N,+3V3*
X271018000Y-166116000D03*
G04 #@! TD*
D12*
G04 #@! TO.P,R29,1*
G04 #@! TO.N,Net-(J14-Pad12)*
X265938000Y-173736000D03*
D11*
G04 #@! TO.P,R29,2*
G04 #@! TO.N,+3V3*
X265938000Y-166116000D03*
G04 #@! TD*
D12*
G04 #@! TO.P,R31,1*
G04 #@! TO.N,Net-(J14-Pad8)*
X255778000Y-173736000D03*
D11*
G04 #@! TO.P,R31,2*
G04 #@! TO.N,+3V3*
X255778000Y-166116000D03*
G04 #@! TD*
D12*
G04 #@! TO.P,R32,1*
G04 #@! TO.N,Net-(J14-Pad6)*
X250698000Y-173736000D03*
D11*
G04 #@! TO.P,R32,2*
G04 #@! TO.N,+3V3*
X250698000Y-166116000D03*
G04 #@! TD*
D12*
G04 #@! TO.P,R33,1*
G04 #@! TO.N,Net-(J14-Pad4)*
X245618000Y-173736000D03*
D11*
G04 #@! TO.P,R33,2*
G04 #@! TO.N,+3V3*
X245618000Y-166116000D03*
G04 #@! TD*
D12*
G04 #@! TO.P,R35,1*
G04 #@! TO.N,/RST*
X235458000Y-173736000D03*
D11*
G04 #@! TO.P,R35,2*
G04 #@! TO.N,+3V3*
X235458000Y-166116000D03*
G04 #@! TD*
D12*
G04 #@! TO.P,R38,1*
G04 #@! TO.N,+3V3*
X238760000Y-119380000D03*
D11*
G04 #@! TO.P,R38,2*
G04 #@! TO.N,Net-(Q1-Pad3)*
X238760000Y-111760000D03*
G04 #@! TD*
D12*
G04 #@! TO.P,R39,1*
G04 #@! TO.N,+3V3*
X229870000Y-119380000D03*
D11*
G04 #@! TO.P,R39,2*
G04 #@! TO.N,Net-(J14-Pad14)*
X229870000Y-111760000D03*
G04 #@! TD*
D12*
G04 #@! TO.P,R40,1*
G04 #@! TO.N,Net-(R40-Pad1)*
X394462000Y-158496000D03*
D11*
G04 #@! TO.P,R40,2*
G04 #@! TO.N,Net-(J13-Pad3)*
X394462000Y-150876000D03*
G04 #@! TD*
D12*
G04 #@! TO.P,R41,1*
G04 #@! TO.N,+5V*
X247650000Y-99060000D03*
D11*
G04 #@! TO.P,R41,2*
G04 #@! TO.N,Net-(J16-Pad1)*
X255270000Y-99060000D03*
G04 #@! TD*
D12*
G04 #@! TO.P,R44,1*
G04 #@! TO.N,+5V*
X227330000Y-99060000D03*
D11*
G04 #@! TO.P,R44,2*
G04 #@! TO.N,Net-(J17-Pad5)*
X234950000Y-99060000D03*
G04 #@! TD*
D12*
G04 #@! TO.P,R45,1*
G04 #@! TO.N,Net-(R45-Pad1)*
X365252000Y-152400000D03*
D11*
G04 #@! TO.P,R45,2*
G04 #@! TO.N,Net-(R40-Pad1)*
X365252000Y-144780000D03*
G04 #@! TD*
D12*
G04 #@! TO.P,R46,1*
G04 #@! TO.N,Net-(R46-Pad1)*
X359410000Y-163576000D03*
D11*
G04 #@! TO.P,R46,2*
G04 #@! TO.N,Net-(C25-Pad1)*
X359410000Y-155956000D03*
G04 #@! TD*
D12*
G04 #@! TO.P,R47,1*
G04 #@! TO.N,Net-(R46-Pad1)*
X365252000Y-163576000D03*
D11*
G04 #@! TO.P,R47,2*
G04 #@! TO.N,Net-(R45-Pad1)*
X365252000Y-155956000D03*
G04 #@! TD*
D12*
G04 #@! TO.P,R48,1*
G04 #@! TO.N,GNDD*
X315722000Y-170688000D03*
D11*
G04 #@! TO.P,R48,2*
G04 #@! TO.N,Net-(C26-Pad2)*
X323342000Y-170688000D03*
G04 #@! TD*
D12*
G04 #@! TO.P,R49,1*
G04 #@! TO.N,Net-(C27-Pad1)*
X388620000Y-158496000D03*
D11*
G04 #@! TO.P,R49,2*
G04 #@! TO.N,Net-(C29-Pad2)*
X388620000Y-150876000D03*
G04 #@! TD*
D12*
G04 #@! TO.P,R50,1*
G04 #@! TO.N,Net-(C27-Pad1)*
X383032000Y-158496000D03*
D11*
G04 #@! TO.P,R50,2*
G04 #@! TO.N,+5V*
X383032000Y-150876000D03*
G04 #@! TD*
D12*
G04 #@! TO.P,R51,1*
G04 #@! TO.N,GNDD*
X369316000Y-162560000D03*
D11*
G04 #@! TO.P,R51,2*
G04 #@! TO.N,Net-(C27-Pad1)*
X376936000Y-162560000D03*
G04 #@! TD*
D28*
G04 #@! TO.P,RV1,3*
G04 #@! TO.N,GNDD*
X306070000Y-160020000D03*
G04 #@! TO.P,RV1,2*
G04 #@! TO.N,Net-(RV1-Pad2)*
X308610000Y-162560000D03*
G04 #@! TO.P,RV1,1*
G04 #@! TO.N,Net-(J15-Pad3)*
X306070000Y-165100000D03*
G04 #@! TD*
G04 #@! TO.P,RV2,3*
G04 #@! TO.N,Net-(C23-Pad1)*
X344650000Y-138980000D03*
G04 #@! TO.P,RV2,2*
G04 #@! TO.N,Net-(J15-Pad2)*
X347190000Y-136440000D03*
G04 #@! TO.P,RV2,1*
G04 #@! TO.N,Net-(R52-Pad1)*
X349730000Y-138980000D03*
G04 #@! TD*
G04 #@! TO.P,RV3,3*
G04 #@! TO.N,Net-(C23-Pad1)*
X330454000Y-138938000D03*
G04 #@! TO.P,RV3,2*
G04 #@! TO.N,Net-(J15-Pad4)*
X332994000Y-136398000D03*
G04 #@! TO.P,RV3,1*
G04 #@! TO.N,Net-(R53-Pad1)*
X335534000Y-138938000D03*
G04 #@! TD*
D19*
G04 #@! TO.P,C2,1*
G04 #@! TO.N,+5V*
X59430920Y-148671280D03*
G04 #@! TO.P,C2,2*
G04 #@! TO.N,GNDD*
X51930920Y-148671280D03*
G04 #@! TD*
G04 #@! TO.P,C4,1*
G04 #@! TO.N,+5V*
X232410000Y-130810000D03*
G04 #@! TO.P,C4,2*
G04 #@! TO.N,GNDD*
X224910000Y-130810000D03*
G04 #@! TD*
G04 #@! TO.P,C9,1*
G04 #@! TO.N,+5V*
X376936000Y-142240000D03*
G04 #@! TO.P,C9,2*
G04 #@! TO.N,GNDD*
X369436000Y-142240000D03*
G04 #@! TD*
G04 #@! TO.P,C13,1*
G04 #@! TO.N,+3V3*
X183159400Y-161518600D03*
G04 #@! TO.P,C13,2*
G04 #@! TO.N,GNDD*
X183159400Y-154018600D03*
G04 #@! TD*
G04 #@! TO.P,C14,1*
G04 #@! TO.N,+3V3*
X163931600Y-108000800D03*
G04 #@! TO.P,C14,2*
G04 #@! TO.N,GNDD*
X156431600Y-108000800D03*
G04 #@! TD*
D24*
G04 #@! TO.P,C24,1*
G04 #@! TO.N,/RST*
X294132000Y-181864000D03*
D19*
G04 #@! TO.P,C24,2*
G04 #@! TO.N,GNDD*
X299132000Y-181864000D03*
G04 #@! TD*
D24*
G04 #@! TO.P,C26,1*
G04 #@! TO.N,Net-(C26-Pad1)*
X331724000Y-165862000D03*
D19*
G04 #@! TO.P,C26,2*
G04 #@! TO.N,Net-(C26-Pad2)*
X331724000Y-170862000D03*
G04 #@! TD*
D24*
G04 #@! TO.P,C27,1*
G04 #@! TO.N,Net-(C27-Pad1)*
X375666000Y-170180000D03*
D19*
G04 #@! TO.P,C27,2*
G04 #@! TO.N,GNDD*
X370666000Y-170180000D03*
G04 #@! TD*
D24*
G04 #@! TO.P,C28,1*
G04 #@! TO.N,Net-(C26-Pad1)*
X344424000Y-165862000D03*
D19*
G04 #@! TO.P,C28,2*
G04 #@! TO.N,Net-(C28-Pad2)*
X344424000Y-170862000D03*
G04 #@! TD*
D14*
G04 #@! TO.P,J6,1*
G04 #@! TO.N,Net-(J5-Pad2)*
X164846000Y-186690000D03*
D18*
G04 #@! TO.P,J6,2*
G04 #@! TO.N,+5V*
X164846000Y-184150000D03*
G04 #@! TD*
D14*
G04 #@! TO.P,J7,1*
G04 #@! TO.N,Net-(J14-Pad18)*
X289052000Y-170434000D03*
D18*
G04 #@! TO.P,J7,2*
G04 #@! TO.N,GNDD*
X291592000Y-170434000D03*
G04 #@! TD*
D29*
G04 #@! TO.P,J9,~*
G04 #@! TO.N,N/C*
X257864610Y-84074000D03*
X285550610Y-83820000D03*
D30*
X285550610Y-105664000D03*
D31*
G04 #@! TO.P,J9,8*
X281811730Y-107950000D03*
G04 #@! TO.P,J9,7*
G04 #@! TO.N,Net-(J9-Pad7)*
X280120090Y-107950000D03*
G04 #@! TO.P,J9,6*
G04 #@! TO.N,GNDD*
X277691850Y-107950000D03*
G04 #@! TO.P,J9,5*
G04 #@! TO.N,Net-(J9-Pad5)*
X275189950Y-107950000D03*
G04 #@! TO.P,J9,4*
G04 #@! TO.N,+3V3*
X272690590Y-107950000D03*
G04 #@! TO.P,J9,3*
G04 #@! TO.N,GNDD*
X270191230Y-107950000D03*
G04 #@! TO.P,J9,2*
G04 #@! TO.N,Net-(J9-Pad2)*
X267691870Y-107950000D03*
G04 #@! TO.P,J9,1*
G04 #@! TO.N,Net-(J9-Pad1)*
X265189970Y-107950000D03*
G04 #@! TO.P,J9,9*
G04 #@! TO.N,N/C*
X262690610Y-107950000D03*
G04 #@! TD*
D14*
G04 #@! TO.P,J10,1*
G04 #@! TO.N,/DAC_VA*
X306578000Y-132080000D03*
D18*
G04 #@! TO.P,J10,2*
G04 #@! TO.N,Net-(C21-Pad2)*
X309118000Y-132080000D03*
G04 #@! TD*
D14*
G04 #@! TO.P,J11,1*
G04 #@! TO.N,/DAC_VB*
X306578000Y-145796000D03*
D18*
G04 #@! TO.P,J11,2*
G04 #@! TO.N,Net-(C22-Pad2)*
X309118000Y-145796000D03*
G04 #@! TD*
D14*
G04 #@! TO.P,J13,1*
G04 #@! TO.N,Net-(C29-Pad1)*
X379476000Y-128524000D03*
D18*
G04 #@! TO.P,J13,2*
G04 #@! TO.N,Net-(J13-Pad2)*
X379476000Y-131064000D03*
G04 #@! TO.P,J13,3*
G04 #@! TO.N,Net-(J13-Pad3)*
X379476000Y-133604000D03*
G04 #@! TD*
D14*
G04 #@! TO.P,J14,1*
G04 #@! TO.N,Net-(J14-Pad1)*
X250444000Y-182880000D03*
D18*
G04 #@! TO.P,J14,2*
G04 #@! TO.N,Net-(J14-Pad2)*
X250444000Y-180340000D03*
G04 #@! TO.P,J14,3*
G04 #@! TO.N,Net-(J14-Pad3)*
X252984000Y-182880000D03*
G04 #@! TO.P,J14,4*
G04 #@! TO.N,Net-(J14-Pad4)*
X252984000Y-180340000D03*
G04 #@! TO.P,J14,5*
G04 #@! TO.N,Net-(J14-Pad5)*
X255524000Y-182880000D03*
G04 #@! TO.P,J14,6*
G04 #@! TO.N,Net-(J14-Pad6)*
X255524000Y-180340000D03*
G04 #@! TO.P,J14,7*
G04 #@! TO.N,Net-(J14-Pad7)*
X258064000Y-182880000D03*
G04 #@! TO.P,J14,8*
G04 #@! TO.N,Net-(J14-Pad8)*
X258064000Y-180340000D03*
G04 #@! TO.P,J14,9*
G04 #@! TO.N,Net-(J14-Pad9)*
X260604000Y-182880000D03*
G04 #@! TO.P,J14,10*
G04 #@! TO.N,Net-(J14-Pad10)*
X260604000Y-180340000D03*
G04 #@! TO.P,J14,11*
G04 #@! TO.N,Net-(J14-Pad11)*
X263144000Y-182880000D03*
G04 #@! TO.P,J14,12*
G04 #@! TO.N,Net-(J14-Pad12)*
X263144000Y-180340000D03*
G04 #@! TO.P,J14,13*
G04 #@! TO.N,Net-(J14-Pad13)*
X265684000Y-182880000D03*
G04 #@! TO.P,J14,14*
G04 #@! TO.N,Net-(J14-Pad14)*
X265684000Y-180340000D03*
G04 #@! TO.P,J14,15*
G04 #@! TO.N,Net-(J14-Pad15)*
X268224000Y-182880000D03*
G04 #@! TO.P,J14,16*
G04 #@! TO.N,Net-(J14-Pad16)*
X268224000Y-180340000D03*
G04 #@! TO.P,J14,17*
G04 #@! TO.N,Net-(J14-Pad17)*
X270764000Y-182880000D03*
G04 #@! TO.P,J14,18*
G04 #@! TO.N,Net-(J14-Pad18)*
X270764000Y-180340000D03*
G04 #@! TO.P,J14,19*
G04 #@! TO.N,Net-(J14-Pad19)*
X273304000Y-182880000D03*
G04 #@! TO.P,J14,20*
G04 #@! TO.N,/RST*
X273304000Y-180340000D03*
G04 #@! TO.P,J14,21*
G04 #@! TO.N,N/C*
X275844000Y-182880000D03*
G04 #@! TO.P,J14,22*
X275844000Y-180340000D03*
G04 #@! TO.P,J14,23*
X278384000Y-182880000D03*
G04 #@! TO.P,J14,24*
X278384000Y-180340000D03*
G04 #@! TO.P,J14,25*
G04 #@! TO.N,+3V3*
X280924000Y-182880000D03*
G04 #@! TO.P,J14,26*
G04 #@! TO.N,GNDD*
X280924000Y-180340000D03*
G04 #@! TD*
D32*
G04 #@! TO.P,J15,1*
G04 #@! TO.N,GNDD*
X307340000Y-83185000D03*
D33*
G04 #@! TO.P,J15,2*
G04 #@! TO.N,Net-(J15-Pad2)*
X312420000Y-88265000D03*
G04 #@! TO.P,J15,3*
G04 #@! TO.N,Net-(J15-Pad3)*
X310515000Y-88265000D03*
G04 #@! TO.P,J15,5*
X304800000Y-88265000D03*
G04 #@! TO.P,J15,4*
G04 #@! TO.N,Net-(J15-Pad4)*
X302895000Y-88265000D03*
G04 #@! TD*
D34*
G04 #@! TO.P,J16,~*
G04 #@! TO.N,N/C*
X246380000Y-83820000D03*
X240030000Y-85090000D03*
X252730000Y-85090000D03*
D19*
G04 #@! TO.P,J16,6*
X250190000Y-90170000D03*
G04 #@! TO.P,J16,5*
G04 #@! TO.N,Net-(J16-Pad5)*
X242570000Y-90170000D03*
G04 #@! TO.P,J16,3*
G04 #@! TO.N,GNDD*
X242570000Y-87630000D03*
G04 #@! TO.P,J16,1*
G04 #@! TO.N,Net-(J16-Pad1)*
X245110000Y-87630000D03*
G04 #@! TO.P,J16,4*
G04 #@! TO.N,+5V*
X250190000Y-87630000D03*
G04 #@! TO.P,J16,2*
G04 #@! TO.N,N/C*
X247650000Y-87630000D03*
G04 #@! TD*
D34*
G04 #@! TO.P,J17,~*
G04 #@! TO.N,N/C*
X227330000Y-83820000D03*
X220980000Y-85090000D03*
X233680000Y-85090000D03*
D19*
G04 #@! TO.P,J17,6*
X231140000Y-90170000D03*
G04 #@! TO.P,J17,5*
G04 #@! TO.N,Net-(J17-Pad5)*
X223520000Y-90170000D03*
G04 #@! TO.P,J17,3*
G04 #@! TO.N,GNDD*
X223520000Y-87630000D03*
G04 #@! TO.P,J17,1*
G04 #@! TO.N,Net-(J17-Pad1)*
X226060000Y-87630000D03*
G04 #@! TO.P,J17,4*
G04 #@! TO.N,+5V*
X231140000Y-87630000D03*
G04 #@! TO.P,J17,2*
G04 #@! TO.N,N/C*
X228600000Y-87630000D03*
G04 #@! TD*
D35*
G04 #@! TO.P,J18,0*
G04 #@! TO.N,Net-(J18-Pad0)*
X320705000Y-89870000D03*
X354005000Y-89870000D03*
D12*
G04 #@! TO.P,J18,15*
G04 #@! TO.N,Net-(J12-Pad2)*
X345665000Y-87330000D03*
G04 #@! TO.P,J18,14*
G04 #@! TO.N,N/C*
X342895000Y-87330000D03*
G04 #@! TO.P,J18,13*
G04 #@! TO.N,Net-(J18-Pad13)*
X340125000Y-87330000D03*
G04 #@! TO.P,J18,12*
G04 #@! TO.N,Net-(J18-Pad12)*
X337355000Y-87330000D03*
G04 #@! TO.P,J18,11*
G04 #@! TO.N,Net-(J18-Pad11)*
X334585000Y-87330000D03*
G04 #@! TO.P,J18,10*
G04 #@! TO.N,Net-(J18-Pad10)*
X331815000Y-87330000D03*
G04 #@! TO.P,J18,9*
G04 #@! TO.N,/DAC_VB*
X329045000Y-87330000D03*
G04 #@! TO.P,J18,8*
G04 #@! TO.N,Net-(C29-Pad1)*
X347050000Y-90170000D03*
G04 #@! TO.P,J18,7*
G04 #@! TO.N,+3V3*
X344280000Y-90170000D03*
G04 #@! TO.P,J18,6*
G04 #@! TO.N,+5V*
X341510000Y-90170000D03*
G04 #@! TO.P,J18,5*
G04 #@! TO.N,Net-(J18-Pad5)*
X338740000Y-90170000D03*
G04 #@! TO.P,J18,4*
G04 #@! TO.N,Net-(J18-Pad4)*
X335970000Y-90170000D03*
G04 #@! TO.P,J18,3*
G04 #@! TO.N,Net-(J18-Pad3)*
X333200000Y-90170000D03*
G04 #@! TO.P,J18,2*
G04 #@! TO.N,/DAC_VA*
X330430000Y-90170000D03*
D17*
G04 #@! TO.P,J18,1*
G04 #@! TO.N,GNDD*
X327660000Y-90170000D03*
G04 #@! TD*
D12*
G04 #@! TO.P,R36,1*
G04 #@! TO.N,+3V3*
X248920000Y-119380000D03*
D11*
G04 #@! TO.P,R36,2*
G04 #@! TO.N,Net-(Q3-Pad3)*
X248920000Y-111760000D03*
G04 #@! TD*
D12*
G04 #@! TO.P,R37,1*
G04 #@! TO.N,+3V3*
X222504000Y-119380000D03*
D11*
G04 #@! TO.P,R37,2*
G04 #@! TO.N,Net-(J14-Pad16)*
X222504000Y-111760000D03*
G04 #@! TD*
D12*
G04 #@! TO.P,R42,1*
G04 #@! TO.N,+5V*
X224790000Y-99060000D03*
D11*
G04 #@! TO.P,R42,2*
G04 #@! TO.N,Net-(J17-Pad1)*
X217170000Y-99060000D03*
G04 #@! TD*
D12*
G04 #@! TO.P,R43,1*
G04 #@! TO.N,+5V*
X245110000Y-99060000D03*
D11*
G04 #@! TO.P,R43,2*
G04 #@! TO.N,Net-(J16-Pad5)*
X237490000Y-99060000D03*
G04 #@! TD*
D21*
G04 #@! TO.P,U8,1*
G04 #@! TO.N,+5V*
X388366000Y-103632000D03*
D36*
G04 #@! TO.P,U8,2*
G04 #@! TO.N,GNDD*
X390906000Y-103632000D03*
G04 #@! TO.P,U8,3*
G04 #@! TO.N,+3V3*
X393446000Y-103632000D03*
G04 #@! TD*
D17*
G04 #@! TO.P,U10,1*
G04 #@! TO.N,GNDD*
X156210000Y-113030000D03*
D11*
G04 #@! TO.P,U10,11*
G04 #@! TO.N,/BRDY*
X163830000Y-135890000D03*
G04 #@! TO.P,U10,2*
G04 #@! TO.N,/CAS_out*
X156210000Y-115570000D03*
G04 #@! TO.P,U10,12*
G04 #@! TO.N,/PiRX*
X163830000Y-133350000D03*
G04 #@! TO.P,U10,3*
G04 #@! TO.N,/NMI*
X156210000Y-118110000D03*
G04 #@! TO.P,U10,13*
G04 #@! TO.N,/BSO*
X163830000Y-130810000D03*
G04 #@! TO.P,U10,4*
G04 #@! TO.N,/A18*
X156210000Y-120650000D03*
G04 #@! TO.P,U10,14*
G04 #@! TO.N,/BPiTX*
X163830000Y-128270000D03*
G04 #@! TO.P,U10,5*
G04 #@! TO.N,/IRQ*
X156210000Y-123190000D03*
G04 #@! TO.P,U10,15*
G04 #@! TO.N,/BIRQ*
X163830000Y-125730000D03*
G04 #@! TO.P,U10,6*
G04 #@! TO.N,/PiTX*
X156210000Y-125730000D03*
G04 #@! TO.P,U10,16*
G04 #@! TO.N,/BA18*
X163830000Y-123190000D03*
G04 #@! TO.P,U10,7*
G04 #@! TO.N,/SO*
X156210000Y-128270000D03*
G04 #@! TO.P,U10,17*
G04 #@! TO.N,/BNMI*
X163830000Y-120650000D03*
G04 #@! TO.P,U10,8*
G04 #@! TO.N,/BPiRX*
X156210000Y-130810000D03*
G04 #@! TO.P,U10,18*
G04 #@! TO.N,/BCAS_out*
X163830000Y-118110000D03*
G04 #@! TO.P,U10,9*
G04 #@! TO.N,/RDY*
X156210000Y-133350000D03*
G04 #@! TO.P,U10,19*
G04 #@! TO.N,GNDD*
X163830000Y-115570000D03*
G04 #@! TO.P,U10,10*
X156210000Y-135890000D03*
G04 #@! TO.P,U10,20*
G04 #@! TO.N,+3V3*
X163830000Y-113030000D03*
G04 #@! TD*
D17*
G04 #@! TO.P,U13,1*
G04 #@! TO.N,Net-(J13-Pad3)*
X369316000Y-149352000D03*
D11*
G04 #@! TO.P,U13,5*
G04 #@! TO.N,Net-(C29-Pad2)*
X376936000Y-156972000D03*
G04 #@! TO.P,U13,2*
G04 #@! TO.N,Net-(C25-Pad1)*
X369316000Y-151892000D03*
G04 #@! TO.P,U13,6*
G04 #@! TO.N,Net-(R46-Pad1)*
X376936000Y-154432000D03*
G04 #@! TO.P,U13,3*
G04 #@! TO.N,Net-(R40-Pad1)*
X369316000Y-154432000D03*
G04 #@! TO.P,U13,7*
G04 #@! TO.N,Net-(R45-Pad1)*
X376936000Y-151892000D03*
G04 #@! TO.P,U13,4*
G04 #@! TO.N,GNDD*
X369316000Y-156972000D03*
G04 #@! TO.P,U13,8*
G04 #@! TO.N,+5V*
X376936000Y-149352000D03*
G04 #@! TD*
D17*
G04 #@! TO.P,U14,1*
G04 #@! TO.N,Net-(J14-Pad1)*
X224790000Y-137160000D03*
D11*
G04 #@! TO.P,U14,9*
G04 #@! TO.N,Net-(J14-Pad15)*
X232410000Y-154940000D03*
G04 #@! TO.P,U14,2*
G04 #@! TO.N,Net-(J14-Pad3)*
X224790000Y-139700000D03*
G04 #@! TO.P,U14,10*
G04 #@! TO.N,Net-(J14-Pad17)*
X232410000Y-152400000D03*
G04 #@! TO.P,U14,3*
G04 #@! TO.N,Net-(J14-Pad5)*
X224790000Y-142240000D03*
G04 #@! TO.P,U14,11*
G04 #@! TO.N,Net-(J14-Pad19)*
X232410000Y-149860000D03*
G04 #@! TO.P,U14,4*
G04 #@! TO.N,Net-(J14-Pad7)*
X224790000Y-144780000D03*
G04 #@! TO.P,U14,12*
G04 #@! TO.N,Net-(U11-Pad51)*
X232410000Y-147320000D03*
G04 #@! TO.P,U14,5*
G04 #@! TO.N,Net-(J14-Pad9)*
X224790000Y-147320000D03*
G04 #@! TO.P,U14,13*
G04 #@! TO.N,Net-(U11-Pad50)*
X232410000Y-144780000D03*
G04 #@! TO.P,U14,6*
G04 #@! TO.N,Net-(J14-Pad11)*
X224790000Y-149860000D03*
G04 #@! TO.P,U14,14*
G04 #@! TO.N,Net-(U11-Pad49)*
X232410000Y-142240000D03*
G04 #@! TO.P,U14,7*
G04 #@! TO.N,Net-(J14-Pad13)*
X224790000Y-152400000D03*
G04 #@! TO.P,U14,15*
G04 #@! TO.N,Net-(U11-Pad48)*
X232410000Y-139700000D03*
G04 #@! TO.P,U14,8*
G04 #@! TO.N,GNDD*
X224790000Y-154940000D03*
G04 #@! TO.P,U14,16*
G04 #@! TO.N,+5V*
X232410000Y-137160000D03*
G04 #@! TD*
D17*
G04 #@! TO.P,U15,1*
G04 #@! TO.N,GNDD*
X251129800Y-132232400D03*
D11*
G04 #@! TO.P,U15,11*
G04 #@! TO.N,Net-(J18-Pad4)*
X258749800Y-155092400D03*
G04 #@! TO.P,U15,2*
G04 #@! TO.N,Net-(J13-Pad2)*
X251129800Y-134772400D03*
G04 #@! TO.P,U15,12*
G04 #@! TO.N,Net-(J14-Pad10)*
X258749800Y-152552400D03*
G04 #@! TO.P,U15,3*
G04 #@! TO.N,Net-(J14-Pad2)*
X251129800Y-137312400D03*
G04 #@! TO.P,U15,13*
G04 #@! TO.N,Net-(J18-Pad11)*
X258749800Y-150012400D03*
G04 #@! TO.P,U15,4*
G04 #@! TO.N,Net-(U11-Pad71)*
X251129800Y-139852400D03*
G04 #@! TO.P,U15,14*
G04 #@! TO.N,Net-(U11-Pad70)*
X258749800Y-147472400D03*
G04 #@! TO.P,U15,5*
G04 #@! TO.N,Net-(J14-Pad4)*
X251129800Y-142392400D03*
G04 #@! TO.P,U15,15*
G04 #@! TO.N,Net-(J18-Pad3)*
X258749800Y-144932400D03*
G04 #@! TO.P,U15,6*
G04 #@! TO.N,Net-(J18-Pad5)*
X251129800Y-144932400D03*
G04 #@! TO.P,U15,16*
G04 #@! TO.N,Net-(J18-Pad13)*
X258749800Y-142392400D03*
G04 #@! TO.P,U15,7*
G04 #@! TO.N,Net-(J14-Pad6)*
X251129800Y-147472400D03*
G04 #@! TO.P,U15,17*
G04 #@! TO.N,Net-(J18-Pad10)*
X258749800Y-139852400D03*
G04 #@! TO.P,U15,8*
G04 #@! TO.N,Net-(J18-Pad12)*
X251129800Y-150012400D03*
G04 #@! TO.P,U15,18*
G04 #@! TO.N,Net-(U11-Pad85)*
X258749800Y-137312400D03*
G04 #@! TO.P,U15,9*
G04 #@! TO.N,Net-(J14-Pad8)*
X251129800Y-152552400D03*
G04 #@! TO.P,U15,19*
G04 #@! TO.N,GNDD*
X258749800Y-134772400D03*
G04 #@! TO.P,U15,10*
X251129800Y-155092400D03*
G04 #@! TO.P,U15,20*
G04 #@! TO.N,+3V3*
X258749800Y-132232400D03*
G04 #@! TD*
D17*
G04 #@! TO.P,U16,1*
G04 #@! TO.N,N/C*
X315722000Y-158242000D03*
D11*
G04 #@! TO.P,U16,5*
G04 #@! TO.N,Net-(C26-Pad1)*
X323342000Y-165862000D03*
G04 #@! TO.P,U16,2*
G04 #@! TO.N,GNDD*
X315722000Y-160782000D03*
G04 #@! TO.P,U16,6*
G04 #@! TO.N,+5V*
X323342000Y-163322000D03*
G04 #@! TO.P,U16,3*
G04 #@! TO.N,Net-(RV1-Pad2)*
X315722000Y-163322000D03*
G04 #@! TO.P,U16,7*
G04 #@! TO.N,N/C*
X323342000Y-160782000D03*
G04 #@! TO.P,U16,4*
G04 #@! TO.N,GNDD*
X315722000Y-165862000D03*
G04 #@! TO.P,U16,8*
G04 #@! TO.N,N/C*
X323342000Y-158242000D03*
G04 #@! TD*
D37*
G04 #@! TO.N,/CB2*
X91935300Y-101511100D03*
X67310000Y-101625400D03*
G04 #@! TO.N,/CB1*
X94488000Y-102704900D03*
X69850000Y-102755700D03*
G04 #@! TO.N,GNDD*
X196672201Y-156591000D03*
X184658000Y-155829000D03*
G04 #@! TO.N,+3V3*
X183769000Y-156591000D03*
X203708000Y-155829000D03*
G04 #@! TO.N,/BA15*
X117475000Y-116967000D03*
X117475000Y-109855000D03*
X71120000Y-109855000D03*
G04 #@! TO.N,/BA14*
X134239000Y-122301000D03*
X134239000Y-103251000D03*
X70358000Y-100330000D03*
G04 #@! TO.N,/NWDS*
X196977000Y-159004000D03*
X197383400Y-139700000D03*
X169443400Y-153136600D03*
X169468800Y-140970000D03*
X157988000Y-145161000D03*
X158013400Y-153136600D03*
G04 #@! TO.N,/NRDS*
X193090800Y-153441400D03*
X193090800Y-129540000D03*
X193065400Y-177520600D03*
X165404800Y-177520600D03*
X165404800Y-169799000D03*
X160705800Y-169806315D03*
X136469120Y-169781220D03*
X136443720Y-160020000D03*
G04 #@! TO.N,/RST*
X235458000Y-187426600D03*
X235483400Y-169316400D03*
X99187000Y-108585000D03*
X77978000Y-108585000D03*
X97485200Y-191516000D03*
X147282866Y-191516000D03*
G04 #@! TO.N,/BA8*
X145542000Y-118110000D03*
X147955000Y-93091000D03*
G04 #@! TO.N,/BA7*
X48082200Y-159931100D03*
X48031400Y-120192800D03*
X83845400Y-120192800D03*
G04 #@! TO.N,/BA6*
X49479200Y-118605300D03*
X86258400Y-118605300D03*
G04 #@! TO.N,/BA5*
X68618100Y-171450000D03*
X68707000Y-104648000D03*
X89027000Y-104648000D03*
G04 #@! TO.N,/BA4*
X90779600Y-103860600D03*
X66116200Y-103949500D03*
X66131440Y-176494440D03*
G04 #@! TO.N,/BA3*
X79679800Y-175399700D03*
X79616300Y-136169400D03*
X100291900Y-136169400D03*
X100330000Y-120650000D03*
X88900000Y-120650000D03*
X88900000Y-105701000D03*
X91313000Y-105664000D03*
G04 #@! TO.N,/BA2*
X78193900Y-170243500D03*
X78130400Y-137528300D03*
X102882700Y-137464800D03*
X102870000Y-119761000D03*
X91440000Y-119888000D03*
G04 #@! TO.N,/BA1*
X105410000Y-118745000D03*
X93980000Y-118745000D03*
X76593700Y-133731000D03*
X76593700Y-165176200D03*
X105664000Y-133477000D03*
G04 #@! TO.N,/BA0*
X74739500Y-160058100D03*
X107950000Y-131419600D03*
X107950000Y-117602000D03*
X96520000Y-117602000D03*
X74739500Y-131483100D03*
G04 #@! TO.N,/BD7*
X78740000Y-106426000D03*
X99441000Y-106426000D03*
G04 #@! TO.N,/BD6*
X81407000Y-107315000D03*
X101854000Y-107315000D03*
G04 #@! TO.N,/BD5*
X82677000Y-121539000D03*
X104013000Y-121412000D03*
G04 #@! TO.N,/BD4*
X85090000Y-122301000D03*
X106680000Y-122301000D03*
G04 #@! TO.N,/BD3*
X89319100Y-165201600D03*
X46621700Y-144729200D03*
X89319100Y-144678400D03*
X87757000Y-123190000D03*
X109220000Y-123317000D03*
G04 #@! TO.N,/BD2*
X90398600Y-162598100D03*
X45516800Y-143586200D03*
X90398600Y-143687800D03*
X90170000Y-124079000D03*
X111760000Y-123952000D03*
G04 #@! TO.N,/BD1*
X91300300Y-160020000D03*
X43408600Y-142328900D03*
X91362700Y-142328900D03*
X92710000Y-124968000D03*
X117602000Y-122428000D03*
G04 #@! TO.N,/BD0*
X92088800Y-157378400D03*
X95250000Y-125730000D03*
X120523000Y-125603000D03*
G04 #@! TO.N,/BA13*
X132842000Y-128270000D03*
X132842000Y-104013000D03*
X123698000Y-104013000D03*
G04 #@! TO.N,/BA12*
X126111000Y-99187000D03*
X135255000Y-99187000D03*
X135255000Y-133350000D03*
G04 #@! TO.N,/BA11*
X143383000Y-116840000D03*
X127889000Y-115570000D03*
G04 #@! TO.N,/BSO*
X158623000Y-130810000D03*
G04 #@! TO.N,/BA10*
X153289000Y-90551000D03*
G04 #@! TO.N,/BA9*
X149479000Y-123190000D03*
X149479000Y-104902000D03*
X133985000Y-100457000D03*
G04 #@! TO.N,/BIRQ*
X170688000Y-99060000D03*
X169799000Y-124968000D03*
G04 #@! TO.N,/BPH2*
X136398000Y-118110000D03*
X74930000Y-115570000D03*
G04 #@! TO.N,/BNMI*
X154813000Y-119380000D03*
X154136201Y-88519000D03*
X154136201Y-88519000D03*
G04 #@! TO.N,/BRW*
X137160000Y-123190000D03*
X67310000Y-115189000D03*
G04 #@! TO.N,/BSYN*
X127000000Y-133223000D03*
X127000000Y-102362000D03*
X140208000Y-102362000D03*
G04 #@! TO.N,Net-(Q3-Pad3)*
X243916200Y-141046200D03*
G04 #@! TO.N,Net-(Q1-Pad3)*
X236843400Y-138506200D03*
G04 #@! TO.N,/A4*
X205943200Y-153746200D03*
X205943200Y-146964400D03*
X181178200Y-146939000D03*
X57873900Y-158864300D03*
X149793248Y-147434299D03*
G04 #@! TO.N,/A10*
X180924201Y-162433000D03*
X180924200Y-152400000D03*
X170103800Y-162585400D03*
X141871700Y-162496500D03*
G04 #@! TO.N,/A5*
X209219800Y-161594800D03*
X209219800Y-141351000D03*
X177190400Y-141351000D03*
X143383000Y-146710400D03*
X143370300Y-157492700D03*
X143383000Y-153746200D03*
X57048400Y-172821600D03*
X57048400Y-156171900D03*
G04 #@! TO.N,/CS_ROM*
X162598100Y-152069800D03*
G04 #@! TO.N,/A6*
X210159600Y-162382200D03*
X210108800Y-140614400D03*
X178003200Y-140589000D03*
X147281900Y-151015700D03*
X61925200Y-152412700D03*
X147281900Y-145897600D03*
G04 #@! TO.N,/D7*
X185674000Y-154152600D03*
X185597800Y-160147000D03*
X170281600Y-165125400D03*
X158699200Y-169037000D03*
X129489200Y-169011600D03*
X102997000Y-168986200D03*
X102997000Y-177774600D03*
G04 #@! TO.N,/A7*
X211201000Y-163144200D03*
X211201000Y-149656800D03*
X204876400Y-149656800D03*
X204901800Y-135813800D03*
X177165000Y-135788400D03*
X146062700Y-140157200D03*
X146062700Y-147459700D03*
X62979300Y-151523700D03*
X62979300Y-162648900D03*
G04 #@! TO.N,/D6*
X176707800Y-155397200D03*
X170307000Y-167640000D03*
X156210000Y-177850800D03*
X134620000Y-177825400D03*
X134620000Y-170129200D03*
X118084600Y-170129200D03*
X118084600Y-177342800D03*
G04 #@! TO.N,/A12*
X190754000Y-160629600D03*
X190779400Y-143510000D03*
X125984000Y-152400000D03*
X125984000Y-144209600D03*
X148717121Y-142708728D03*
G04 #@! TO.N,/D5*
X184708800Y-157403800D03*
X184683400Y-165100000D03*
X184683400Y-176123600D03*
X154889200Y-176098200D03*
X137160000Y-176072800D03*
X137185400Y-172770800D03*
G04 #@! TO.N,/A15*
X194081400Y-152603200D03*
X194005200Y-138430000D03*
X166128700Y-141135100D03*
X152349200Y-141160500D03*
X150929001Y-120650000D03*
G04 #@! TO.N,/D4*
X181635400Y-158216600D03*
X181649201Y-168692999D03*
X153644600Y-174675800D03*
X181635400Y-174650400D03*
X135813800Y-175285400D03*
X135813800Y-175285400D03*
X101574600Y-173990000D03*
X101574600Y-170256200D03*
G04 #@! TO.N,/A16*
X194894200Y-151815800D03*
X194868800Y-133324600D03*
X118110000Y-142240000D03*
X118110000Y-127000000D03*
X151130000Y-127000000D03*
X151168100Y-138049000D03*
G04 #@! TO.N,/D3*
X207975200Y-158191200D03*
X207949800Y-171348400D03*
X152323800Y-173736000D03*
X175285400Y-173710600D03*
X152298400Y-178968400D03*
X125704600Y-178943000D03*
X108915200Y-178181000D03*
X108889800Y-166420800D03*
G04 #@! TO.N,/D2*
X207137000Y-157403800D03*
X207137000Y-172135800D03*
X149834600Y-172135800D03*
X149834600Y-176961800D03*
X130810000Y-176961800D03*
X98323400Y-175260000D03*
X98323400Y-165125400D03*
G04 #@! TO.N,/D1*
X206171800Y-155016200D03*
X206171800Y-170561000D03*
X177444400Y-170561000D03*
X148564600Y-172974000D03*
X177444400Y-172948600D03*
X128270000Y-173895001D03*
X99949000Y-172745400D03*
X99949000Y-162560000D03*
G04 #@! TO.N,/D0*
X178841400Y-166319200D03*
X178841400Y-169621200D03*
X202869800Y-169621200D03*
X202895200Y-154203400D03*
X126949200Y-171475400D03*
X96596200Y-169011600D03*
X146080480Y-172184060D03*
G04 #@! TO.N,/A14*
X188893800Y-159010000D03*
X188899800Y-134594600D03*
X164185600Y-154965400D03*
X164185600Y-139090400D03*
X118237000Y-124587000D03*
X162052000Y-125730000D03*
G04 #@! TO.N,/A0*
X202158600Y-149377400D03*
X202158600Y-167132000D03*
X180924200Y-167157400D03*
X180924200Y-163855400D03*
X138442700Y-166275001D03*
X53911500Y-168859200D03*
G04 #@! TO.N,/A13*
X189788800Y-159791400D03*
X189814200Y-137160000D03*
X126905001Y-134714999D03*
X126709000Y-149860000D03*
X189738000Y-130683000D03*
X170434000Y-156210000D03*
G04 #@! TO.N,/A1*
X201433600Y-150190200D03*
X201433600Y-166307600D03*
X180136800Y-166319200D03*
X180136800Y-161315400D03*
X164274500Y-161264600D03*
X54711600Y-166458900D03*
X54762400Y-162509200D03*
G04 #@! TO.N,/A8*
X212039200Y-163880800D03*
X212039200Y-152323800D03*
X206857600Y-132181600D03*
X180644800Y-132181600D03*
X180644800Y-142316200D03*
X206756000Y-152323800D03*
X165100000Y-157480000D03*
X165100000Y-143484600D03*
X171373800Y-143484600D03*
X123571000Y-143383000D03*
X123571000Y-152400000D03*
X138176000Y-143401001D03*
G04 #@! TO.N,/A2*
X200708600Y-151028400D03*
X200685400Y-167894000D03*
X177393600Y-167919400D03*
X177393600Y-156184600D03*
X163563300Y-158775400D03*
X55740300Y-163753800D03*
X55740300Y-167690800D03*
G04 #@! TO.N,/A9*
X212928200Y-164719000D03*
X212928200Y-129159000D03*
X183438800Y-128219200D03*
X183464200Y-144780000D03*
X152019000Y-157353000D03*
X152019000Y-160020000D03*
X142621000Y-154940000D03*
X161925000Y-146050000D03*
G04 #@! TO.N,/A3*
X203835000Y-150215600D03*
X203835000Y-144526000D03*
X186004200Y-144526000D03*
X185978800Y-152400000D03*
X144399000Y-148247100D03*
X115531900Y-158750000D03*
X171114601Y-150558500D03*
X52997100Y-161163000D03*
G04 #@! TO.N,/A11*
X191592200Y-161442400D03*
X191592200Y-145821400D03*
X166587000Y-160020000D03*
X166587000Y-148564600D03*
X171114601Y-148551900D03*
X137287000Y-157353000D03*
X137287000Y-130683000D03*
X144145000Y-160020000D03*
X137443723Y-160020000D03*
G04 #@! TO.N,/CS_RAM*
X192317200Y-154787600D03*
X192328800Y-142367000D03*
X182295800Y-142341600D03*
X182295800Y-149910800D03*
X192405000Y-179311300D03*
X144868900Y-180098700D03*
X143941800Y-165100000D03*
G04 #@! TO.N,/CS_VIA*
X63119000Y-125984000D03*
G04 #@! TO.N,/CS_BUF*
X92710000Y-185547000D03*
X199390000Y-182753000D03*
X200533000Y-127000000D03*
G04 #@! TO.N,/RW*
X139700000Y-167716200D03*
X125158500Y-167716200D03*
X125222000Y-120650000D03*
X151003000Y-119380000D03*
X151003000Y-110744000D03*
X176657000Y-111633000D03*
G04 #@! TO.N,/NMI*
X170561000Y-119888000D03*
G04 #@! TO.N,/IRQ*
X168656000Y-124333000D03*
X168656000Y-129540000D03*
G04 #@! TO.N,/SO*
X182880000Y-126746000D03*
G04 #@! TO.N,/SYNC*
X181610000Y-109601000D03*
X131699000Y-110744000D03*
G04 #@! TO.N,/A18*
X196672200Y-150215600D03*
X196672200Y-146075400D03*
X211302600Y-146075400D03*
X211302600Y-148615400D03*
X160807400Y-151066500D03*
X160782000Y-148234400D03*
X160782000Y-144526000D03*
X184531000Y-120650000D03*
X184531000Y-150077400D03*
G04 #@! TO.N,Net-(R10-Pad1)*
X183515000Y-106807000D03*
G04 #@! TO.N,Net-(R12-Pad1)*
X212039200Y-138455400D03*
G04 #@! TO.N,/A17*
X195808600Y-151003000D03*
X195783200Y-145288000D03*
X212115400Y-145262600D03*
X212115400Y-151155400D03*
X149860000Y-141885500D03*
X156210000Y-141860100D03*
X149860000Y-138430000D03*
X128143000Y-138430000D03*
G04 #@! TO.N,/BNWDS*
X73826200Y-129667000D03*
G04 #@! TO.N,/BNRDS*
X76200000Y-132208100D03*
G04 #@! TO.N,/BBLK_B*
X125984000Y-128270000D03*
X125984000Y-101346000D03*
X141478000Y-101346000D03*
G04 #@! TO.N,/DAC_VA*
X330403200Y-128854200D03*
G04 #@! TO.N,/DAC_VB*
X329045000Y-142988600D03*
G04 #@! TO.N,/RDY*
X165958499Y-134644961D03*
X165989000Y-114173000D03*
G04 #@! TO.N,Net-(R11-Pad1)*
X186055000Y-106045000D03*
G04 #@! TO.N,Net-(R14-Pad1)*
X174955200Y-119837200D03*
G04 #@! TO.N,Net-(R17-Pad1)*
X168605200Y-110693200D03*
G04 #@! TO.N,Net-(R20-Pad1)*
X188595000Y-126238000D03*
G04 #@! TO.N,Net-(R25-Pad1)*
X205740000Y-130784600D03*
G04 #@! TO.N,/PHI2*
X124460000Y-115697000D03*
X177419000Y-112649000D03*
G04 #@! TO.N,/BPiTX*
X159512000Y-99822000D03*
X159512000Y-128270000D03*
G04 #@! TO.N,/BUF_DIR*
X132435600Y-181825900D03*
X132435600Y-174967900D03*
X151282384Y-174537617D03*
X151295100Y-177012600D03*
X198615300Y-176403000D03*
X198628000Y-121869200D03*
X88176100Y-181876700D03*
G04 #@! TO.N,Net-(J9-Pad2)*
X267030200Y-129057400D03*
G04 #@! TO.N,/PiTX*
X144145000Y-134620000D03*
X141134000Y-140970000D03*
X144145000Y-140970000D03*
X153162000Y-134620000D03*
G04 #@! TO.N,/PiRX*
X160909000Y-133350000D03*
G04 #@! TO.N,/CS_TUBE*
X153771600Y-178676300D03*
X238277400Y-178282600D03*
X238340900Y-125806200D03*
G04 #@! TO.N,/BA17*
X132588000Y-100584000D03*
X125222000Y-100584000D03*
X125222000Y-118110000D03*
G04 #@! TO.N,/BA18*
X153416000Y-121920000D03*
X153411201Y-101854000D03*
G04 #@! TO.N,Net-(C23-Pad2)*
X261086600Y-153060400D03*
X261112000Y-114554000D03*
G04 #@! TO.N,Net-(J9-Pad1)*
X262432800Y-133426200D03*
G04 #@! TO.N,Net-(J9-Pad5)*
X272389600Y-130022600D03*
G04 #@! TO.N,Net-(J9-Pad7)*
X277469600Y-128193800D03*
G04 #@! TO.N,Net-(J14-Pad19)*
X272440400Y-148844000D03*
G04 #@! TO.N,Net-(J14-Pad17)*
X233908600Y-164224800D03*
X269443200Y-164236400D03*
G04 #@! TO.N,Net-(J14-Pad16)*
X221742000Y-171405001D03*
G04 #@! TO.N,Net-(J14-Pad15)*
X232333800Y-188151600D03*
X268224000Y-188151600D03*
G04 #@! TO.N,Net-(J14-Pad14)*
X237515400Y-172339000D03*
G04 #@! TO.N,Net-(J14-Pad13)*
X226339400Y-191465200D03*
X265684000Y-191516000D03*
G04 #@! TO.N,Net-(J14-Pad12)*
X265887200Y-168249600D03*
G04 #@! TO.N,Net-(J14-Pad11)*
X227078170Y-190373000D03*
X263169400Y-190347600D03*
G04 #@! TO.N,Net-(J14-Pad10)*
X257073400Y-161290000D03*
G04 #@! TO.N,Net-(J14-Pad9)*
X227597800Y-188899800D03*
X260629400Y-188899800D03*
G04 #@! TO.N,Net-(J14-Pad8)*
X248716800Y-158750000D03*
G04 #@! TO.N,Net-(J14-Pad7)*
X228283600Y-186410600D03*
G04 #@! TO.N,Net-(J14-Pad6)*
X235102400Y-147396200D03*
X235102400Y-156210000D03*
G04 #@! TO.N,Net-(J14-Pad5)*
X228854000Y-185089800D03*
G04 #@! TO.N,Net-(J14-Pad4)*
X246793001Y-150037800D03*
G04 #@! TO.N,Net-(J14-Pad3)*
X229579000Y-183921400D03*
G04 #@! TO.N,Net-(J14-Pad2)*
X243306600Y-146227800D03*
X245414800Y-137388600D03*
G04 #@! TO.N,Net-(J14-Pad1)*
X230301800Y-182956200D03*
G04 #@! TO.N,Net-(J15-Pad4)*
X302971200Y-136347200D03*
G04 #@! TO.N,Net-(J15-Pad2)*
X312420000Y-134467600D03*
G04 #@! TO.N,Net-(J17-Pad5)*
X228396800Y-90195400D03*
G04 #@! TO.N,Net-(J18-Pad3)*
X280974800Y-144932400D03*
X281101800Y-123571000D03*
X333171800Y-123494800D03*
G04 #@! TO.N,Net-(J18-Pad4)*
X335940400Y-127457200D03*
X276301200Y-132918200D03*
G04 #@! TO.N,Net-(J18-Pad5)*
X282371800Y-117221000D03*
G04 #@! TO.N,Net-(J18-Pad10)*
X285496000Y-139852400D03*
X285369000Y-124891800D03*
X331851000Y-124891800D03*
G04 #@! TO.N,Net-(J18-Pad11)*
X288823400Y-149987000D03*
X288747200Y-126466600D03*
X334619600Y-126365000D03*
X334585000Y-87330000D03*
G04 #@! TO.N,Net-(J18-Pad12)*
X257937000Y-122199400D03*
X337362800Y-122072400D03*
G04 #@! TO.N,Net-(J18-Pad13)*
X283768800Y-119100600D03*
G04 #@! TO.N,Net-(R19-Pad1)*
X220218000Y-109220000D03*
G04 #@! TO.N,Net-(R22-Pad1)*
X199390000Y-128295400D03*
G04 #@! TO.N,Net-(U11-Pad49)*
X220675200Y-139827000D03*
X220675200Y-135178800D03*
X230378000Y-135178800D03*
G04 #@! TO.N,Net-(U11-Pad51)*
X235026200Y-127050800D03*
X221437200Y-127025400D03*
G04 #@! TO.N,Net-(U11-Pad63)*
X293370000Y-163499800D03*
G04 #@! TO.N,Net-(U11-Pad65)*
X291084000Y-159994600D03*
G04 #@! TO.N,Net-(U11-Pad71)*
X222732600Y-144754600D03*
X222732600Y-134162800D03*
X247827800Y-134137400D03*
X247853200Y-139852400D03*
G04 #@! TO.N,Net-(U11-Pad85)*
X242976400Y-136144000D03*
X242976400Y-116967000D03*
G04 #@! TD*
D38*
G04 #@! TO.N,/PB7*
X72527999Y-96382001D02*
X71628000Y-97282000D01*
X72853001Y-96056999D02*
X72527999Y-96382001D01*
X72853001Y-87331001D02*
X72853001Y-96056999D01*
X71628000Y-86106000D02*
X72853001Y-87331001D01*
X71628000Y-97282000D02*
X71628000Y-102438200D01*
X72390000Y-103200200D02*
X72390000Y-113030000D01*
X71628000Y-102438200D02*
X72390000Y-103200200D01*
G04 #@! TO.N,/PB6*
X75067999Y-96382001D02*
X74168000Y-97282000D01*
X75393001Y-96056999D02*
X75067999Y-96382001D01*
X75393001Y-87331001D02*
X75393001Y-96056999D01*
X74168000Y-86106000D02*
X75393001Y-87331001D01*
X74168000Y-98554792D02*
X74104500Y-98618292D01*
X74168000Y-97282000D02*
X74168000Y-98554792D01*
X74104500Y-98618292D02*
X74104500Y-102768400D01*
X74930000Y-103593900D02*
X74930000Y-113030000D01*
X74104500Y-102768400D02*
X74930000Y-103593900D01*
G04 #@! TO.N,/PB5*
X77607999Y-96382001D02*
X76708000Y-97282000D01*
X77933001Y-96056999D02*
X77607999Y-96382001D01*
X77933001Y-87331001D02*
X77933001Y-96056999D01*
X76708000Y-86106000D02*
X77933001Y-87331001D01*
X76708000Y-97282000D02*
X76708000Y-109601000D01*
X77470000Y-110363000D02*
X77470000Y-113030000D01*
X76708000Y-109601000D02*
X77470000Y-110363000D01*
G04 #@! TO.N,/PB4*
X80473001Y-87331001D02*
X80147999Y-87005999D01*
X80473001Y-96056999D02*
X80473001Y-87331001D01*
X80147999Y-87005999D02*
X79248000Y-86106000D01*
X79248000Y-97282000D02*
X80473001Y-96056999D01*
X79248000Y-97282000D02*
X79248000Y-102628700D01*
X80010000Y-103390700D02*
X80010000Y-113030000D01*
X79248000Y-102628700D02*
X80010000Y-103390700D01*
G04 #@! TO.N,/PB3*
X82687999Y-96382001D02*
X81788000Y-97282000D01*
X83013001Y-96056999D02*
X82687999Y-96382001D01*
X83013001Y-87331001D02*
X83013001Y-96056999D01*
X81788000Y-86106000D02*
X83013001Y-87331001D01*
X81788000Y-97282000D02*
X81788000Y-102692200D01*
X82550000Y-103454200D02*
X82550000Y-113030000D01*
X81788000Y-102692200D02*
X82550000Y-103454200D01*
G04 #@! TO.N,/PB2*
X85227999Y-96382001D02*
X84328000Y-97282000D01*
X85553001Y-96056999D02*
X85227999Y-96382001D01*
X85553001Y-87331001D02*
X85553001Y-96056999D01*
X84328000Y-86106000D02*
X85553001Y-87331001D01*
X84328000Y-97282000D02*
X84328000Y-102552500D01*
X85090000Y-103314500D02*
X85090000Y-113030000D01*
X84328000Y-102552500D02*
X85090000Y-103314500D01*
G04 #@! TO.N,/PB1*
X87767999Y-96382001D02*
X86868000Y-97282000D01*
X88093001Y-96056999D02*
X87767999Y-96382001D01*
X88093001Y-87331001D02*
X88093001Y-96056999D01*
X86868000Y-86106000D02*
X88093001Y-87331001D01*
X86868000Y-98554792D02*
X86842600Y-98580192D01*
X86868000Y-97282000D02*
X86868000Y-98554792D01*
X86842600Y-98580192D02*
X86842600Y-102984300D01*
X87630000Y-103771700D02*
X87630000Y-113030000D01*
X86842600Y-102984300D02*
X87630000Y-103771700D01*
G04 #@! TO.N,/PB0*
X90633001Y-87331001D02*
X90307999Y-87005999D01*
X90633001Y-96056999D02*
X90633001Y-87331001D01*
X90307999Y-87005999D02*
X89408000Y-86106000D01*
X89408000Y-97282000D02*
X90633001Y-96056999D01*
X89752001Y-111409920D02*
X90170000Y-111827919D01*
X89752001Y-98898793D02*
X89752001Y-111409920D01*
X90170000Y-111827919D02*
X90170000Y-113030000D01*
X89408000Y-98554792D02*
X89752001Y-98898793D01*
X89408000Y-97282000D02*
X89408000Y-98554792D01*
G04 #@! TO.N,/CB2*
X92847999Y-96382001D02*
X91948000Y-97282000D01*
X93173001Y-96056999D02*
X92847999Y-96382001D01*
X93173001Y-87331001D02*
X93173001Y-96056999D01*
X91948000Y-86106000D02*
X93173001Y-87331001D01*
X91948000Y-101498400D02*
X91935300Y-101511100D01*
X91948000Y-97282000D02*
X91948000Y-101498400D01*
X67310000Y-101625400D02*
X67310000Y-113030000D01*
G04 #@! TO.N,/CB1*
X95387999Y-87005999D02*
X94488000Y-86106000D01*
X95713001Y-87331001D02*
X95387999Y-87005999D01*
X95713001Y-96056999D02*
X95713001Y-87331001D01*
X94488000Y-97282000D02*
X95713001Y-96056999D01*
X94488000Y-97282000D02*
X94488000Y-102704900D01*
X69850000Y-102755700D02*
X69850000Y-113030000D01*
G04 #@! TO.N,/PA7*
X97927999Y-96382001D02*
X97028000Y-97282000D01*
X98253001Y-87331001D02*
X98253001Y-96056999D01*
X98253001Y-96056999D02*
X97927999Y-96382001D01*
X97028000Y-86106000D02*
X98253001Y-87331001D01*
X92710000Y-106959400D02*
X92710000Y-113030000D01*
X97028000Y-102641400D02*
X92710000Y-106959400D01*
X97028000Y-97282000D02*
X97028000Y-102641400D01*
G04 #@! TO.N,/PA6*
X100467999Y-87005999D02*
X99568000Y-86106000D01*
X100793001Y-96056999D02*
X100793001Y-87331001D01*
X100793001Y-87331001D02*
X100467999Y-87005999D01*
X99568000Y-97282000D02*
X100793001Y-96056999D01*
X95250000Y-113030000D02*
X95250000Y-106426000D01*
X99568000Y-102108000D02*
X99568000Y-97282000D01*
X95250000Y-106426000D02*
X99568000Y-102108000D01*
G04 #@! TO.N,/PA5*
X103007999Y-96382001D02*
X102108000Y-97282000D01*
X103333001Y-96056999D02*
X103007999Y-96382001D01*
X103333001Y-87331001D02*
X103333001Y-96056999D01*
X102108000Y-86106000D02*
X103333001Y-87331001D01*
X97790000Y-106908600D02*
X97790000Y-113030000D01*
X102108000Y-102590600D02*
X97790000Y-106908600D01*
X102108000Y-97282000D02*
X102108000Y-102590600D01*
G04 #@! TO.N,/PA4*
X105547999Y-87005999D02*
X104648000Y-86106000D01*
X105873001Y-87331001D02*
X105547999Y-87005999D01*
X105873001Y-96056999D02*
X105873001Y-87331001D01*
X104648000Y-97282000D02*
X105873001Y-96056999D01*
X104648000Y-97282000D02*
X104648000Y-102476300D01*
X104648000Y-102476300D02*
X100279200Y-106845100D01*
X100330000Y-106895900D02*
X100330000Y-113030000D01*
X100279200Y-106845100D02*
X100330000Y-106895900D01*
G04 #@! TO.N,/PA3*
X108413001Y-96056999D02*
X108087999Y-96382001D01*
X108413001Y-87331001D02*
X108413001Y-96056999D01*
X108087999Y-96382001D02*
X107188000Y-97282000D01*
X107188000Y-86106000D02*
X108413001Y-87331001D01*
X107188000Y-97282000D02*
X107188000Y-102463600D01*
X107188000Y-102463600D02*
X102857300Y-106794300D01*
X102870000Y-106807000D02*
X102870000Y-113030000D01*
X102857300Y-106794300D02*
X102870000Y-106807000D01*
G04 #@! TO.N,/PA2*
X110627999Y-96382001D02*
X109728000Y-97282000D01*
X110953001Y-96056999D02*
X110627999Y-96382001D01*
X110953001Y-87331001D02*
X110953001Y-96056999D01*
X109728000Y-86106000D02*
X110953001Y-87331001D01*
X105410000Y-106857800D02*
X105410000Y-113030000D01*
X109728000Y-102539800D02*
X105410000Y-106857800D01*
X109728000Y-97282000D02*
X109728000Y-102539800D01*
G04 #@! TO.N,/PA1*
X113167999Y-87005999D02*
X112268000Y-86106000D01*
X113493001Y-87331001D02*
X113167999Y-87005999D01*
X113493001Y-96056999D02*
X113493001Y-87331001D01*
X112268000Y-97282000D02*
X113493001Y-96056999D01*
X112268000Y-98554792D02*
X112255300Y-98567492D01*
X112268000Y-97282000D02*
X112268000Y-98554792D01*
X112255300Y-98567492D02*
X112255300Y-102514400D01*
X107950000Y-106819700D02*
X107950000Y-113030000D01*
X112255300Y-102514400D02*
X107950000Y-106819700D01*
G04 #@! TO.N,/PA0*
X115707999Y-96382001D02*
X114808000Y-97282000D01*
X116033001Y-87331001D02*
X116033001Y-96056999D01*
X116033001Y-96056999D02*
X115707999Y-96382001D01*
X114808000Y-86106000D02*
X116033001Y-87331001D01*
X110490000Y-106934000D02*
X110490000Y-113030000D01*
X114808000Y-102616000D02*
X110490000Y-106934000D01*
X114808000Y-97282000D02*
X114808000Y-102616000D01*
G04 #@! TO.N,/CA2*
X118247999Y-87005999D02*
X117348000Y-86106000D01*
X118618000Y-87376000D02*
X118247999Y-87005999D01*
X118618000Y-96012000D02*
X118618000Y-87376000D01*
X117348000Y-97282000D02*
X118618000Y-96012000D01*
X111339999Y-127420001D02*
X110490000Y-128270000D01*
X116448001Y-122311999D02*
X111339999Y-127420001D01*
X116448001Y-98181999D02*
X116448001Y-122311999D01*
X117348000Y-97282000D02*
X116448001Y-98181999D01*
G04 #@! TO.N,/CA1*
X120787999Y-96382001D02*
X119888000Y-97282000D01*
X121113001Y-96056999D02*
X120787999Y-96382001D01*
X121113001Y-87331001D02*
X121113001Y-96056999D01*
X119888000Y-86106000D02*
X121113001Y-87331001D01*
X119888000Y-121412000D02*
X113030000Y-128270000D01*
X119888000Y-97282000D02*
X119888000Y-121412000D01*
D39*
G04 #@! TO.N,GNDD*
X268581999Y-112792001D02*
X268588999Y-112792001D01*
X267582000Y-113792000D02*
X268581999Y-112792001D01*
X270191230Y-111189770D02*
X270191230Y-107950000D01*
X268588999Y-112792001D02*
X270191230Y-111189770D01*
X277691850Y-107149900D02*
X277691850Y-107950000D01*
X270191230Y-107149900D02*
X271640810Y-105700320D01*
X276242270Y-105700320D02*
X277691850Y-107149900D01*
X271640810Y-105700320D02*
X276242270Y-105700320D01*
X270191230Y-107950000D02*
X270191230Y-107149900D01*
G04 #@! TO.N,+3V3*
X272690590Y-111400590D02*
X272690590Y-107950000D01*
X275082000Y-113792000D02*
X272690590Y-111400590D01*
X53467000Y-126238000D02*
X53467000Y-130429000D01*
X163957000Y-107975400D02*
X163931600Y-108000800D01*
X163957000Y-93980000D02*
X163957000Y-107975400D01*
D38*
G04 #@! TO.N,/BA15*
X69088000Y-89918792D02*
X69088000Y-94742000D01*
X69088000Y-88646000D02*
X69088000Y-89918792D01*
X117475000Y-116967000D02*
X117475000Y-109855000D01*
X68188001Y-95641999D02*
X69088000Y-94742000D01*
X67862999Y-95967001D02*
X68188001Y-95641999D01*
X67862999Y-98908001D02*
X67862999Y-95967001D01*
X71120000Y-102165002D02*
X67862999Y-98908001D01*
X71120000Y-109855000D02*
X71120000Y-102165002D01*
G04 #@! TO.N,/BA14*
X71628000Y-88646000D02*
X71628000Y-94742000D01*
X134239000Y-122301000D02*
X134239000Y-103251000D01*
X71628000Y-95378410D02*
X71628000Y-94742000D01*
X70358000Y-96648410D02*
X71628000Y-95378410D01*
X70358000Y-100330000D02*
X70358000Y-96648410D01*
G04 #@! TO.N,/NWDS*
X197397201Y-139713801D02*
X197383400Y-139700000D01*
X197397201Y-158583799D02*
X197397201Y-139713801D01*
X196977000Y-159004000D02*
X197397201Y-158583799D01*
X169443400Y-140995400D02*
X169468800Y-140970000D01*
X169443400Y-153136600D02*
X169443400Y-140995400D01*
X157988000Y-153111200D02*
X158013400Y-153136600D01*
X157988000Y-145161000D02*
X157988000Y-153111200D01*
X119800001Y-146470001D02*
X120650000Y-147320000D01*
X119474999Y-146144999D02*
X119800001Y-146470001D01*
X119474999Y-128683001D02*
X119474999Y-146144999D01*
X122428000Y-125730000D02*
X119474999Y-128683001D01*
G04 #@! TO.N,/NRDS*
X193090800Y-153441400D02*
X193090800Y-129540000D01*
X193090800Y-171831000D02*
X193090800Y-153441400D01*
X193065400Y-177520600D02*
X193090800Y-171831000D01*
X157435001Y-163785001D02*
X156210000Y-162560000D01*
X160705800Y-164541200D02*
X159949601Y-163785001D01*
X159949601Y-163785001D02*
X157435001Y-163785001D01*
X165404800Y-169799000D02*
X165404800Y-177520600D01*
X160705800Y-164541200D02*
X160705800Y-169806315D01*
X136469120Y-160045400D02*
X136443720Y-160020000D01*
X136469120Y-169781220D02*
X136469120Y-160045400D01*
X121499999Y-159170001D02*
X120650000Y-160020000D01*
X121825001Y-158844999D02*
X121499999Y-159170001D01*
X121825001Y-144055997D02*
X121825001Y-158844999D01*
X123603001Y-142277997D02*
X121825001Y-144055997D01*
X123603001Y-131985001D02*
X123603001Y-142277997D01*
X122428000Y-130810000D02*
X123603001Y-131985001D01*
G04 #@! TO.N,/RST*
X235458000Y-173736000D02*
X235458000Y-187426600D01*
X235483400Y-173710600D02*
X235458000Y-173736000D01*
X235483400Y-169316400D02*
X235483400Y-173710600D01*
X79248000Y-89918792D02*
X79248000Y-94742000D01*
X79248000Y-88646000D02*
X79248000Y-89918792D01*
X97790000Y-128270000D02*
X97790000Y-123190000D01*
X99154999Y-108617001D02*
X99187000Y-108585000D01*
X99154999Y-121825001D02*
X99154999Y-108617001D01*
X97790000Y-123190000D02*
X99154999Y-121825001D01*
X77978000Y-96738998D02*
X77978000Y-108585000D01*
X79248000Y-95468998D02*
X77978000Y-96738998D01*
X79248000Y-94742000D02*
X79248000Y-95468998D01*
X97790000Y-164585798D02*
X97790000Y-128270000D01*
X97485200Y-164890598D02*
X97790000Y-164585798D01*
X97485200Y-191516000D02*
X97485200Y-164890598D01*
X146949999Y-185049999D02*
X146050000Y-184150000D01*
X147275001Y-190563514D02*
X147275001Y-185375001D01*
X147275001Y-185375001D02*
X146949999Y-185049999D01*
X147269200Y-190569315D02*
X147275001Y-190563514D01*
X147282866Y-191516000D02*
X147269200Y-190569315D01*
G04 #@! TO.N,/BA8*
X81788000Y-94742000D02*
X81788000Y-88646000D01*
X145542000Y-118110000D02*
X145542000Y-107569000D01*
X146875990Y-106235010D02*
X146875990Y-101282010D01*
X145542000Y-107569000D02*
X146875990Y-106235010D01*
X147955000Y-100203000D02*
X147955000Y-93091000D01*
X146875990Y-101282010D02*
X147955000Y-100203000D01*
G04 #@! TO.N,/BA7*
X84328000Y-89918792D02*
X84328000Y-94742000D01*
X84328000Y-88646000D02*
X84328000Y-89918792D01*
X48082200Y-120243600D02*
X48031400Y-120192800D01*
X48082200Y-159931100D02*
X48082200Y-120243600D01*
X84328000Y-95468998D02*
X84328000Y-94742000D01*
X83102999Y-96693999D02*
X84328000Y-95468998D01*
X83102999Y-111371789D02*
X83102999Y-96693999D01*
X83845400Y-112114190D02*
X83102999Y-111371789D01*
X83845400Y-120192800D02*
X83845400Y-112114190D01*
G04 #@! TO.N,/BA6*
X86868000Y-94742000D02*
X86868000Y-88646000D01*
X51854100Y-165138100D02*
X50652019Y-165138100D01*
X50652019Y-165138100D02*
X49784000Y-165138100D01*
X49479200Y-164833300D02*
X49479200Y-118605300D01*
X49784000Y-165138100D02*
X49479200Y-164833300D01*
X86417991Y-117880024D02*
X86417991Y-103777209D01*
X85642999Y-96693999D02*
X86868000Y-95468998D01*
X86417991Y-103777209D02*
X85642999Y-103002217D01*
X86868000Y-95468998D02*
X86868000Y-94742000D01*
X85642999Y-103002217D02*
X85642999Y-96693999D01*
X86417991Y-117880024D02*
X86258400Y-118039615D01*
X86258400Y-118605300D02*
X86258400Y-118039615D01*
G04 #@! TO.N,/BA5*
X89408000Y-88646000D02*
X89408000Y-94742000D01*
X68707000Y-104648000D02*
X68618100Y-105346500D01*
X68618100Y-105346500D02*
X68618100Y-171450000D01*
X89408000Y-95378410D02*
X89408000Y-94742000D01*
X88099900Y-103720900D02*
X88099900Y-96686510D01*
X88099900Y-96686510D02*
X89408000Y-95378410D01*
X89027000Y-104648000D02*
X88099900Y-103720900D01*
G04 #@! TO.N,/BA4*
X91948000Y-94742000D02*
X91948000Y-88646000D01*
X90722999Y-103803999D02*
X90779600Y-103860600D01*
X90722999Y-96693999D02*
X90722999Y-103803999D01*
X91948000Y-95468998D02*
X90722999Y-96693999D01*
X91948000Y-94742000D02*
X91948000Y-95468998D01*
X66116200Y-103949500D02*
X66141600Y-176784000D01*
G04 #@! TO.N,/BA3*
X94488000Y-88646000D02*
X94488000Y-94742000D01*
X79679800Y-136232900D02*
X79616300Y-136169400D01*
X79679800Y-175399700D02*
X79679800Y-136232900D01*
X100291900Y-128308100D02*
X100330000Y-128270000D01*
X100291900Y-136169400D02*
X100291900Y-128308100D01*
X100330000Y-128270000D02*
X100330000Y-120650000D01*
X94488000Y-95468998D02*
X94488000Y-94742000D01*
X94488000Y-95378410D02*
X94488000Y-94742000D01*
X93262999Y-96603411D02*
X94488000Y-95378410D01*
X88900000Y-120650000D02*
X88900000Y-106889402D01*
X88900000Y-106889402D02*
X88900000Y-105701000D01*
X93262999Y-103714001D02*
X93262999Y-102362000D01*
X91313000Y-105664000D02*
X93262999Y-103714001D01*
X93262999Y-102362000D02*
X93262999Y-96603411D01*
X93262999Y-102526403D02*
X93262999Y-102362000D01*
G04 #@! TO.N,/BA2*
X97028000Y-94742000D02*
X97028000Y-88646000D01*
X78193900Y-137591800D02*
X78130400Y-137528300D01*
X78193900Y-170243500D02*
X78193900Y-137591800D01*
X102882700Y-128282700D02*
X102870000Y-128270000D01*
X102882700Y-137464800D02*
X102882700Y-128282700D01*
X102870000Y-128270000D02*
X102870000Y-119761000D01*
X97028000Y-95378410D02*
X97028000Y-94742000D01*
X95758000Y-96648410D02*
X97028000Y-95378410D01*
X95758000Y-102507902D02*
X95758000Y-96648410D01*
X91440000Y-106825902D02*
X95758000Y-102507902D01*
X91440000Y-119888000D02*
X91440000Y-106825902D01*
G04 #@! TO.N,/BA1*
X99568000Y-88646000D02*
X99568000Y-94742000D01*
X105410000Y-128270000D02*
X105410000Y-118745000D01*
X99568000Y-95378410D02*
X99568000Y-94742000D01*
X98253001Y-96693409D02*
X99568000Y-95378410D01*
X98253001Y-102052809D02*
X98253001Y-96693409D01*
X93980000Y-106325810D02*
X98253001Y-102052809D01*
X93980000Y-118745000D02*
X93980000Y-106325810D01*
X76593700Y-133731000D02*
X76593700Y-165176200D01*
X105473500Y-128333500D02*
X105410000Y-128270000D01*
X105664000Y-133477000D02*
X105473500Y-128333500D01*
G04 #@! TO.N,/BA0*
X102108000Y-94742000D02*
X102108000Y-88646000D01*
X107950000Y-130853915D02*
X107950000Y-128270000D01*
X107950000Y-131419600D02*
X107950000Y-130853915D01*
X107950000Y-128270000D02*
X107950000Y-117602000D01*
X102108000Y-95378410D02*
X102108000Y-94742000D01*
X100882999Y-96603411D02*
X102108000Y-95378410D01*
X96520000Y-106503610D02*
X100882999Y-102140611D01*
X100882999Y-102140611D02*
X100882999Y-96603411D01*
X96520000Y-117602000D02*
X96520000Y-106503610D01*
X74739500Y-136664700D02*
X74739500Y-160058100D01*
X74739500Y-131483100D02*
X74739500Y-136664700D01*
G04 #@! TO.N,/BD7*
X104648000Y-89918792D02*
X104648000Y-94742000D01*
X104648000Y-88646000D02*
X104648000Y-89918792D01*
X85157919Y-175260000D02*
X85094419Y-175323500D01*
X82651600Y-175323500D02*
X81508600Y-174180500D01*
X85094419Y-175323500D02*
X82651600Y-175323500D01*
X81508600Y-132308600D02*
X77470000Y-128270000D01*
X81508600Y-174180500D02*
X81508600Y-132308600D01*
X86360000Y-175260000D02*
X85157919Y-175260000D01*
X78740000Y-113499002D02*
X78740000Y-106426000D01*
X78740000Y-127000000D02*
X78740000Y-113499002D01*
X77470000Y-128270000D02*
X78740000Y-127000000D01*
X104648000Y-95378410D02*
X104648000Y-94742000D01*
X103333001Y-96693409D02*
X104648000Y-95378410D01*
X103333001Y-102533999D02*
X103333001Y-96693409D01*
X99441000Y-106426000D02*
X103333001Y-102533999D01*
G04 #@! TO.N,/BD6*
X107188000Y-94742000D02*
X107188000Y-88646000D01*
X83312000Y-172758100D02*
X82296000Y-171742100D01*
X86360000Y-172720000D02*
X85157919Y-172720000D01*
X85157919Y-172720000D02*
X85119819Y-172758100D01*
X82296000Y-130556000D02*
X80010000Y-128270000D01*
X82296000Y-171742100D02*
X82296000Y-130556000D01*
X85119819Y-172758100D02*
X83312000Y-172758100D01*
X80010000Y-128270000D02*
X81185001Y-127094999D01*
X81185001Y-107536999D02*
X81407000Y-107315000D01*
X81185001Y-127094999D02*
X81185001Y-107536999D01*
X101854000Y-107315000D02*
X101854000Y-106553000D01*
X107188000Y-95378410D02*
X107188000Y-94742000D01*
X105918000Y-96648410D02*
X107188000Y-95378410D01*
X105918000Y-102489000D02*
X105918000Y-96648410D01*
X101854000Y-106553000D02*
X105918000Y-102489000D01*
G04 #@! TO.N,/BD5*
X109728000Y-89918792D02*
X109728000Y-94742000D01*
X109728000Y-88646000D02*
X109728000Y-89918792D01*
X85157919Y-170180000D02*
X85043619Y-170065700D01*
X86360000Y-170180000D02*
X85157919Y-170180000D01*
X85043619Y-170065700D02*
X84086700Y-170065700D01*
X84086700Y-170065700D02*
X82892900Y-168871900D01*
X82550000Y-129472081D02*
X82550000Y-128270000D01*
X82892900Y-129814981D02*
X82550000Y-129472081D01*
X82892900Y-168871900D02*
X82892900Y-129814981D01*
X82550000Y-121666000D02*
X82677000Y-121539000D01*
X82550000Y-128270000D02*
X82550000Y-121666000D01*
X104234999Y-120624316D02*
X104234999Y-106712001D01*
X104013000Y-120846315D02*
X104234999Y-120624316D01*
X104013000Y-121412000D02*
X104013000Y-120846315D01*
X109728000Y-95378410D02*
X109728000Y-94742000D01*
X108502999Y-96603411D02*
X109728000Y-95378410D01*
X108502999Y-102444001D02*
X108502999Y-96603411D01*
X104234999Y-106712001D02*
X108502999Y-102444001D01*
G04 #@! TO.N,/BD4*
X112268000Y-94742000D02*
X112268000Y-88646000D01*
X86360000Y-167640000D02*
X84429600Y-167640000D01*
X84429600Y-167640000D02*
X83908900Y-167119300D01*
X83908900Y-129451100D02*
X85090000Y-128270000D01*
X83908900Y-167119300D02*
X83908900Y-129451100D01*
X85090000Y-128270000D02*
X85090000Y-122301000D01*
X106680000Y-122301000D02*
X106680000Y-106807000D01*
X106680000Y-106807000D02*
X110998000Y-102489000D01*
X112268000Y-95378410D02*
X112268000Y-94742000D01*
X110998000Y-96648410D02*
X112268000Y-95378410D01*
X110998000Y-102489000D02*
X110998000Y-96648410D01*
G04 #@! TO.N,/BD3*
X114808000Y-88646000D02*
X114808000Y-94742000D01*
X89319100Y-129959100D02*
X87630000Y-128270000D01*
X89319100Y-142392400D02*
X89319100Y-129959100D01*
X43472100Y-166916100D02*
X45389800Y-166916100D01*
X45389800Y-166916100D02*
X46570900Y-165735000D01*
X46570900Y-144780000D02*
X46621700Y-144729200D01*
X46570900Y-165735000D02*
X46570900Y-144780000D01*
X89319100Y-144678400D02*
X89319100Y-142392400D01*
X89319100Y-165201600D02*
X89319100Y-144678400D01*
X87630000Y-123317000D02*
X87757000Y-123190000D01*
X87630000Y-128270000D02*
X87630000Y-123317000D01*
X114808000Y-95378410D02*
X114808000Y-94742000D01*
X114808000Y-95468998D02*
X114808000Y-94742000D01*
X113582999Y-102571001D02*
X113582999Y-96693999D01*
X109220000Y-106934000D02*
X113582999Y-102571001D01*
X113582999Y-96693999D02*
X114808000Y-95468998D01*
X109220000Y-123317000D02*
X109220000Y-106934000D01*
G04 #@! TO.N,/BD2*
X117348000Y-94742000D02*
X117348000Y-88646000D01*
X90398600Y-128498600D02*
X90170000Y-128270000D01*
X90398600Y-141109700D02*
X90398600Y-128498600D01*
X44756181Y-162598100D02*
X45516800Y-161837481D01*
X43554100Y-162598100D02*
X44756181Y-162598100D01*
X45516800Y-161837481D02*
X45516800Y-143586200D01*
X90398600Y-143687800D02*
X90398600Y-141109700D01*
X90398600Y-162598100D02*
X90398600Y-143687800D01*
X90170000Y-128270000D02*
X90170000Y-124079000D01*
X117348000Y-95378410D02*
X117348000Y-94742000D01*
X116033001Y-96693409D02*
X117348000Y-95378410D01*
X116033001Y-97870001D02*
X116033001Y-96693409D01*
X115258010Y-98644992D02*
X116033001Y-97870001D01*
X115258010Y-120453990D02*
X115258010Y-98644992D01*
X111760000Y-123952000D02*
X115258010Y-120453990D01*
G04 #@! TO.N,/BD1*
X119888000Y-88646000D02*
X119888000Y-94742000D01*
X91300300Y-159454315D02*
X91363800Y-159390815D01*
X91300300Y-160020000D02*
X91300300Y-159454315D01*
X91363800Y-129616200D02*
X92710000Y-128270000D01*
X91362700Y-139966700D02*
X91363800Y-129616200D01*
X43472100Y-142392400D02*
X43408600Y-142328900D01*
X43472100Y-158280100D02*
X43472100Y-142392400D01*
X91362700Y-142328900D02*
X91362700Y-139966700D01*
X91363800Y-159390815D02*
X91362700Y-142328900D01*
X92710000Y-128270000D02*
X92710000Y-124968000D01*
X119888000Y-95378410D02*
X119888000Y-94742000D01*
X118662999Y-96603411D02*
X119888000Y-95378410D01*
X118662999Y-121367001D02*
X118662999Y-96603411D01*
X117602000Y-122428000D02*
X118662999Y-121367001D01*
G04 #@! TO.N,/BD0*
X122428000Y-94742000D02*
X122428000Y-88646000D01*
X92088800Y-156812715D02*
X92087700Y-156811615D01*
X92088800Y-157378400D02*
X92088800Y-156812715D01*
X92087700Y-156811615D02*
X92087700Y-134251700D01*
X95250000Y-131089400D02*
X95250000Y-128270000D01*
X92087700Y-134251700D02*
X95250000Y-131089400D01*
X95250000Y-128270000D02*
X95250000Y-125730000D01*
X122428000Y-95378410D02*
X122428000Y-94742000D01*
X121113001Y-96693409D02*
X122428000Y-95378410D01*
X121113001Y-125012999D02*
X121113001Y-96693409D01*
X120523000Y-125603000D02*
X121113001Y-125012999D01*
G04 #@! TO.N,/BA13*
X124968000Y-89918792D02*
X124968000Y-94742000D01*
X124968000Y-88646000D02*
X124968000Y-89918792D01*
X132842000Y-128270000D02*
X132842000Y-104013000D01*
X124968000Y-95378410D02*
X124968000Y-94742000D01*
X123698000Y-96648410D02*
X124968000Y-95378410D01*
X123698000Y-104013000D02*
X123698000Y-96648410D01*
G04 #@! TO.N,/BA12*
X127508000Y-94742000D02*
X127508000Y-88646000D01*
X127508000Y-95468998D02*
X126282999Y-96693999D01*
X126282999Y-99015001D02*
X126111000Y-99187000D01*
X126282999Y-96693999D02*
X126282999Y-99015001D01*
X127508000Y-94742000D02*
X127508000Y-95468998D01*
X135255000Y-99187000D02*
X135255000Y-133350000D01*
G04 #@! TO.N,/BRDY*
X128407999Y-87005999D02*
X127508000Y-86106000D01*
X128733001Y-87331001D02*
X128407999Y-87005999D01*
X128733001Y-96056999D02*
X128733001Y-87331001D01*
X127508000Y-97282000D02*
X128733001Y-96056999D01*
X168656000Y-86360000D02*
X166751000Y-86360000D01*
X164679999Y-135040001D02*
X163830000Y-135890000D01*
X165256601Y-134463399D02*
X164679999Y-135040001D01*
X165256601Y-87854399D02*
X165256601Y-134463399D01*
X166751000Y-86360000D02*
X165256601Y-87854399D01*
G04 #@! TO.N,/BA11*
X130048000Y-89918792D02*
X130048000Y-94742000D01*
X130048000Y-88646000D02*
X130048000Y-89918792D01*
X147701000Y-133350000D02*
X145796000Y-133350000D01*
X145796000Y-133350000D02*
X144526000Y-132080000D01*
X144526000Y-117983000D02*
X143383000Y-116840000D01*
X144526000Y-132080000D02*
X144526000Y-117983000D01*
X130048000Y-95378410D02*
X130048000Y-94742000D01*
X128733001Y-96693409D02*
X130048000Y-95378410D01*
X128733001Y-97870001D02*
X128733001Y-96693409D01*
X127889000Y-98714002D02*
X128733001Y-97870001D01*
X127889000Y-115570000D02*
X127889000Y-98714002D01*
G04 #@! TO.N,/BSO*
X130947999Y-96382001D02*
X130048000Y-97282000D01*
X131273001Y-96056999D02*
X130947999Y-96382001D01*
X131273001Y-87331001D02*
X131273001Y-96056999D01*
X130048000Y-86106000D02*
X131273001Y-87331001D01*
X159980999Y-87209999D02*
X159131000Y-86360000D01*
X160306001Y-87535001D02*
X159980999Y-87209999D01*
X160306001Y-94544001D02*
X160306001Y-87535001D01*
X159346002Y-95504000D02*
X160306001Y-94544001D01*
X158623000Y-96227002D02*
X159346002Y-95504000D01*
X158623000Y-130810000D02*
X158623000Y-96227002D01*
X159131000Y-95719002D02*
X159346002Y-95504000D01*
G04 #@! TO.N,/BA10*
X132588000Y-94742000D02*
X132588000Y-88646000D01*
X153289000Y-99314000D02*
X153289000Y-90551000D01*
X150204001Y-102398999D02*
X153289000Y-99314000D01*
X150204001Y-125766999D02*
X150204001Y-102398999D01*
X147701000Y-128270000D02*
X150204001Y-125766999D01*
G04 #@! TO.N,/BA9*
X135128000Y-88646000D02*
X135128000Y-94742000D01*
X149479000Y-123190000D02*
X149479000Y-104902000D01*
X135128000Y-95378410D02*
X135128000Y-94742000D01*
X133902999Y-96603411D02*
X135128000Y-95378410D01*
X133902999Y-99809314D02*
X133902999Y-96603411D01*
X133985000Y-99891315D02*
X133902999Y-99809314D01*
X133985000Y-100457000D02*
X133985000Y-99891315D01*
G04 #@! TO.N,/BIRQ*
X136027999Y-96382001D02*
X135128000Y-97282000D01*
X136353001Y-96056999D02*
X136027999Y-96382001D01*
X136353001Y-87331001D02*
X136353001Y-96056999D01*
X135128000Y-86106000D02*
X136353001Y-87331001D01*
X170688000Y-99060000D02*
X170688000Y-117348000D01*
X169799000Y-118237000D02*
X169799000Y-124968000D01*
X170688000Y-117348000D02*
X169799000Y-118237000D01*
G04 #@! TO.N,/BPH2*
X137668000Y-93469208D02*
X137668000Y-88646000D01*
X137668000Y-94742000D02*
X137668000Y-93469208D01*
X137668000Y-95378410D02*
X137668000Y-94742000D01*
X136398000Y-96648410D02*
X137668000Y-95378410D01*
X136398000Y-118110000D02*
X136398000Y-96648410D01*
X74930000Y-115570000D02*
X74930000Y-128270000D01*
G04 #@! TO.N,/BNMI*
X138567999Y-96382001D02*
X137668000Y-97282000D01*
X138893001Y-96056999D02*
X138567999Y-96382001D01*
X138893001Y-87331001D02*
X138893001Y-96056999D01*
X137668000Y-86106000D02*
X138893001Y-87331001D01*
X154136201Y-118703201D02*
X154136201Y-88519000D01*
X154813000Y-119380000D02*
X154136201Y-118703201D01*
X154136201Y-88519000D02*
X154136201Y-88519000D01*
G04 #@! TO.N,/BRW*
X140208000Y-88646000D02*
X140208000Y-94742000D01*
X140208000Y-95468998D02*
X140208000Y-94742000D01*
X138982999Y-96693999D02*
X140208000Y-95468998D01*
X138982999Y-97780003D02*
X138982999Y-96693999D01*
X137160000Y-99603002D02*
X138982999Y-97780003D01*
X137160000Y-123190000D02*
X137160000Y-99603002D01*
X67310000Y-115189000D02*
X67310000Y-128270000D01*
G04 #@! TO.N,/BSYN*
X141107999Y-87005999D02*
X140208000Y-86106000D01*
X141433001Y-87331001D02*
X141107999Y-87005999D01*
X141433001Y-96056999D02*
X141433001Y-87331001D01*
X140208000Y-97282000D02*
X141433001Y-96056999D01*
X127000000Y-133223000D02*
X127000000Y-102362000D01*
X140208000Y-102362000D02*
X140208000Y-97282000D01*
G04 #@! TO.N,Net-(J3-Pad3)*
X128270000Y-148302319D02*
X128270000Y-144780000D01*
X128270000Y-149504400D02*
X128270000Y-148302319D01*
G04 #@! TO.N,Net-(Q3-Pad3)*
X248920000Y-111760000D02*
X248920000Y-105410000D01*
X243941600Y-141046200D02*
X243941600Y-113080800D01*
X245262400Y-111760000D02*
X248920000Y-111760000D01*
X243941600Y-113080800D02*
X245262400Y-111760000D01*
G04 #@! TO.N,Net-(Q1-Pad3)*
X238760000Y-111760000D02*
X238760000Y-105410000D01*
X236843400Y-119557598D02*
X236843400Y-138506200D01*
X236843400Y-113676600D02*
X236843400Y-119557598D01*
X238760000Y-111760000D02*
X236843400Y-113676600D01*
G04 #@! TO.N,/A4*
X205943200Y-153746200D02*
X205943200Y-146964400D01*
X149847300Y-156222700D02*
X148590000Y-157480000D01*
X174671999Y-148634999D02*
X177159199Y-148634999D01*
X173446998Y-149860000D02*
X174671999Y-148634999D01*
X172720000Y-149860000D02*
X173446998Y-149860000D01*
X177159199Y-148634999D02*
X177673000Y-149148800D01*
X177673000Y-149148800D02*
X180632100Y-149148800D01*
X181178200Y-148602700D02*
X181178200Y-146939000D01*
X180632100Y-149148800D02*
X181178200Y-148602700D01*
X58153300Y-177838100D02*
X59474100Y-177838100D01*
X57873900Y-177558700D02*
X58153300Y-177838100D01*
X57873900Y-158864300D02*
X57873900Y-177558700D01*
X149793248Y-147434299D02*
X149847300Y-156222700D01*
X149847300Y-147434300D02*
X149793248Y-147434299D01*
G04 #@! TO.N,/A10*
X180910399Y-152413801D02*
X180924200Y-152400000D01*
X180924201Y-161867315D02*
X180910399Y-161853513D01*
X180924201Y-162433000D02*
X180924201Y-161867315D01*
X170103800Y-162585400D02*
X170103800Y-159461200D01*
X174818598Y-153568400D02*
X180910399Y-153568400D01*
X174034999Y-154351999D02*
X174818598Y-153568400D01*
X174034999Y-158068001D02*
X174034999Y-154351999D01*
X170103800Y-159461200D02*
X170770001Y-158794999D01*
X170770001Y-158794999D02*
X173308001Y-158794999D01*
X180910399Y-153568400D02*
X180910399Y-152413801D01*
X173308001Y-158794999D02*
X174034999Y-158068001D01*
X180910399Y-161853513D02*
X180910399Y-153568400D01*
X158113590Y-162560000D02*
X158750000Y-162560000D01*
X156798591Y-161245001D02*
X158113590Y-162560000D01*
X155711997Y-161245001D02*
X156798591Y-161245001D01*
X153171997Y-163785001D02*
X155711997Y-161245001D01*
X143160201Y-163785001D02*
X153171997Y-163785001D01*
X141871700Y-162496500D02*
X143160201Y-163785001D01*
X141859000Y-161918115D02*
X141859000Y-125984000D01*
X141871700Y-161930815D02*
X141859000Y-161918115D01*
X141605000Y-125730000D02*
X140081000Y-125730000D01*
X141859000Y-125984000D02*
X141605000Y-125730000D01*
X141871700Y-162496500D02*
X141871700Y-161930815D01*
G04 #@! TO.N,/A5*
X209219800Y-161594800D02*
X209219800Y-141351000D01*
X173619999Y-146420001D02*
X172720000Y-147320000D01*
X173945001Y-146094999D02*
X173619999Y-146420001D01*
X176815201Y-146094999D02*
X173945001Y-146094999D01*
X177190400Y-145719800D02*
X176815201Y-146094999D01*
X177190400Y-141351000D02*
X177190400Y-145719800D01*
X143383000Y-157480000D02*
X143370300Y-157492700D01*
X143383000Y-153746200D02*
X143383000Y-157480000D01*
X143383000Y-146710400D02*
X143383000Y-153746200D01*
X57048400Y-156489400D02*
X57048400Y-172821600D01*
X57048400Y-156171900D02*
X57048400Y-156489400D01*
G04 #@! TO.N,/CS_ROM*
X157734000Y-166624000D02*
X156210000Y-165100000D01*
X157734000Y-169849800D02*
X157734000Y-166624000D01*
X158470600Y-170586400D02*
X157734000Y-169849800D01*
X160998717Y-170586400D02*
X161913117Y-169672000D01*
X158470600Y-170586400D02*
X160998717Y-170586400D01*
X161913117Y-160666883D02*
X162052000Y-160528000D01*
X161913117Y-169672000D02*
X161913117Y-160666883D01*
X162052000Y-152615900D02*
X162598100Y-152069800D01*
X162052000Y-160528000D02*
X162052000Y-152615900D01*
G04 #@! TO.N,/A6*
X210159600Y-140665200D02*
X210108800Y-140614400D01*
X210159600Y-162382200D02*
X210159600Y-140665200D01*
X173619999Y-143880001D02*
X172720000Y-144780000D01*
X173945001Y-143554999D02*
X173619999Y-143880001D01*
X175758003Y-143554999D02*
X173945001Y-143554999D01*
X176485001Y-142828001D02*
X175758003Y-143554999D01*
X176485001Y-141651999D02*
X176485001Y-142828001D01*
X178003200Y-140589000D02*
X176879398Y-140589000D01*
X176879398Y-140589000D02*
X176250600Y-141217798D01*
X176250600Y-141217798D02*
X176250600Y-141417598D01*
X176250600Y-141417598D02*
X176485001Y-141651999D01*
X147281900Y-153631900D02*
X148590000Y-154940000D01*
X147281900Y-151015700D02*
X147281900Y-153631900D01*
X61925200Y-152412700D02*
X61925200Y-167220900D01*
X61468000Y-167678100D02*
X59474100Y-167678100D01*
X61925200Y-167220900D02*
X61468000Y-167678100D01*
X147281900Y-145897600D02*
X147281900Y-151015700D01*
G04 #@! TO.N,/D7*
X185674000Y-160070800D02*
X185674000Y-154152600D01*
X185597800Y-160147000D02*
X185674000Y-160070800D01*
X174034999Y-161245001D02*
X175260000Y-160020000D01*
X174034999Y-163058003D02*
X174034999Y-161245001D01*
X173308001Y-163785001D02*
X174034999Y-163058003D01*
X171621999Y-163785001D02*
X173308001Y-163785001D01*
X170281600Y-165125400D02*
X171621999Y-163785001D01*
X158750000Y-168986200D02*
X158699200Y-169037000D01*
X158750000Y-165100000D02*
X158750000Y-168986200D01*
X129169999Y-185790001D02*
X128270000Y-186690000D01*
X129495001Y-185464999D02*
X129169999Y-185790001D01*
X129489200Y-169577285D02*
X129495001Y-169583086D01*
X129495001Y-169583086D02*
X129495001Y-185464999D01*
X129489200Y-169011600D02*
X129489200Y-169577285D01*
X102997000Y-168986200D02*
X102997000Y-177774600D01*
G04 #@! TO.N,/A7*
X211201000Y-163144200D02*
X211201000Y-149656800D01*
X204876400Y-135839200D02*
X204901800Y-135813800D01*
X204876400Y-149656800D02*
X204876400Y-135839200D01*
X173619999Y-140599999D02*
X172720000Y-139700000D01*
X173945001Y-140925001D02*
X173619999Y-140599999D01*
X175848001Y-140925001D02*
X173945001Y-140925001D01*
X177165000Y-139608002D02*
X175848001Y-140925001D01*
X177165000Y-135788400D02*
X177165000Y-139608002D01*
X146062700Y-154927300D02*
X146050000Y-154940000D01*
X146062700Y-147459700D02*
X146062700Y-154927300D01*
X146062700Y-140157200D02*
X146062700Y-147459700D01*
X62979300Y-151523700D02*
X62979300Y-162648900D01*
G04 #@! TO.N,/D6*
X176668599Y-155436401D02*
X176668599Y-162472201D01*
X176707800Y-155397200D02*
X176668599Y-155436401D01*
X176580800Y-162560000D02*
X175260000Y-162560000D01*
X176668599Y-162472201D02*
X176580800Y-162560000D01*
X174360001Y-163459999D02*
X175260000Y-162560000D01*
X174034999Y-163785001D02*
X174360001Y-163459999D01*
X174034999Y-165598003D02*
X174034999Y-163785001D01*
X173218003Y-166414999D02*
X174034999Y-165598003D01*
X171532001Y-166414999D02*
X173218003Y-166414999D01*
X170307000Y-167640000D02*
X171532001Y-166414999D01*
X156210000Y-167640000D02*
X156210000Y-177850800D01*
X134620000Y-177825400D02*
X134620000Y-170129200D01*
X134620000Y-185420000D02*
X133350000Y-186690000D01*
X134620000Y-177825400D02*
X134620000Y-185420000D01*
X118084600Y-170129200D02*
X118084600Y-177342800D01*
G04 #@! TO.N,/A12*
X190754000Y-143535400D02*
X190779400Y-143510000D01*
X190754000Y-160629600D02*
X190754000Y-143535400D01*
X148717000Y-152273000D02*
X148590000Y-152400000D01*
X125984000Y-152400000D02*
X125984000Y-144209600D01*
X148717121Y-142708728D02*
X148717000Y-152273000D01*
X148717000Y-142354300D02*
X148717121Y-142708728D01*
X147701000Y-135890000D02*
X147701000Y-139065000D01*
X148717121Y-140081121D02*
X148717121Y-142708728D01*
X147701000Y-139065000D02*
X148717121Y-140081121D01*
G04 #@! TO.N,/D5*
X184708800Y-165074600D02*
X184683400Y-165100000D01*
X184708800Y-157403800D02*
X184708800Y-165074600D01*
X184683400Y-176123600D02*
X184683400Y-165100000D01*
X154895001Y-166325001D02*
X153670000Y-165100000D01*
X154895001Y-175558999D02*
X154895001Y-166325001D01*
X154889200Y-176098200D02*
X154895001Y-175558999D01*
X137160000Y-172796200D02*
X137185400Y-172770800D01*
X137160000Y-176072800D02*
X137160000Y-172796200D01*
X137160000Y-185420000D02*
X135890000Y-186690000D01*
X137160000Y-176072800D02*
X137160000Y-185420000D01*
G04 #@! TO.N,/A15*
X194081400Y-138506200D02*
X194005200Y-138430000D01*
X194081400Y-152603200D02*
X194081400Y-138506200D01*
X171602400Y-136042400D02*
X167233600Y-136042400D01*
X172720000Y-137160000D02*
X171602400Y-136042400D01*
X166128700Y-137147300D02*
X166128700Y-141135100D01*
X167233600Y-136042400D02*
X166128700Y-137147300D01*
X152029999Y-154040001D02*
X151130000Y-154940000D01*
X152355001Y-153714999D02*
X152029999Y-154040001D01*
X152355001Y-141731986D02*
X152355001Y-153714999D01*
X152349200Y-141726185D02*
X152355001Y-141731986D01*
X152349200Y-141160500D02*
X152349200Y-141726185D01*
X152349200Y-141160500D02*
X152349200Y-124409200D01*
X150929001Y-122989001D02*
X150929001Y-120650000D01*
X152349200Y-124409200D02*
X150929001Y-122989001D01*
G04 #@! TO.N,/D4*
X181649201Y-158796086D02*
X181649201Y-168692999D01*
X181635400Y-158782285D02*
X181649201Y-158796086D01*
X181635400Y-158216600D02*
X181635400Y-158782285D01*
X153670000Y-174650400D02*
X153644600Y-174675800D01*
X153670000Y-167640000D02*
X153670000Y-174650400D01*
X181635400Y-168706800D02*
X181649201Y-168692999D01*
X181635400Y-174650400D02*
X181635400Y-168706800D01*
X135813800Y-184073800D02*
X135890000Y-184150000D01*
X135813800Y-175285400D02*
X135813800Y-184073800D01*
X101574600Y-173990000D02*
X101574600Y-170256200D01*
G04 #@! TO.N,/A16*
X194894200Y-133350000D02*
X194868800Y-133324600D01*
X194894200Y-151815800D02*
X194894200Y-133350000D01*
X151130000Y-151127208D02*
X151130000Y-152400000D01*
X118110000Y-142240000D02*
X118110000Y-127000000D01*
X151168100Y-127038100D02*
X151130000Y-127000000D01*
X151892000Y-151892000D02*
X151638000Y-151892000D01*
X151638000Y-151892000D02*
X151130000Y-152400000D01*
X151168100Y-152361900D02*
X151130000Y-152400000D01*
X151168100Y-139153900D02*
X151168100Y-152361900D01*
X151168100Y-138049000D02*
X151168100Y-127038100D01*
X151168100Y-139153900D02*
X151168100Y-138049000D01*
G04 #@! TO.N,/D3*
X207975200Y-171323000D02*
X207949800Y-171348400D01*
X207975200Y-158191200D02*
X207975200Y-171323000D01*
X152355001Y-173704799D02*
X152323800Y-173736000D01*
X152355001Y-166325001D02*
X152355001Y-173704799D01*
X151130000Y-165100000D02*
X152355001Y-166325001D01*
X175285400Y-170205400D02*
X175260000Y-170180000D01*
X175285400Y-173710600D02*
X175285400Y-170205400D01*
X152323800Y-178943000D02*
X152298400Y-178968400D01*
X152323800Y-173736000D02*
X152323800Y-178943000D01*
X125704600Y-184124600D02*
X125730000Y-184150000D01*
X125704600Y-178943000D02*
X125704600Y-184124600D01*
X108915200Y-166446200D02*
X108889800Y-166420800D01*
X108915200Y-178181000D02*
X108915200Y-166446200D01*
G04 #@! TO.N,/D2*
X207137000Y-157403800D02*
X207137000Y-172135800D01*
X149834600Y-166344600D02*
X148590000Y-165100000D01*
X149834600Y-172135800D02*
X149834600Y-166344600D01*
X149834600Y-172135800D02*
X149834600Y-176961800D01*
X130810000Y-176961800D02*
X130810000Y-184150000D01*
X98323400Y-175260000D02*
X98323400Y-165125400D01*
G04 #@! TO.N,/D1*
X206171800Y-155016200D02*
X206171800Y-170561000D01*
X148590000Y-171297600D02*
X148590000Y-167640000D01*
X148564600Y-172974000D02*
X148590000Y-171297600D01*
X177444400Y-172948600D02*
X177444400Y-170561000D01*
X128270000Y-184150000D02*
X128270000Y-173895001D01*
X99949000Y-172745400D02*
X99949000Y-162560000D01*
G04 #@! TO.N,/D0*
X178841400Y-166319200D02*
X178841400Y-169621200D01*
X202890999Y-154207601D02*
X202895200Y-154203400D01*
X202890999Y-168822714D02*
X202890999Y-154207601D01*
X202869800Y-168843913D02*
X202869800Y-169621200D01*
X202890999Y-168822714D02*
X202869800Y-168843913D01*
X126629999Y-185790001D02*
X125730000Y-186690000D01*
X126955001Y-185464999D02*
X126629999Y-185790001D01*
X126949200Y-172041085D02*
X126955001Y-172046886D01*
X126955001Y-172046886D02*
X126955001Y-185464999D01*
X126949200Y-171475400D02*
X126949200Y-172041085D01*
X96596200Y-169011600D02*
X96596200Y-160985200D01*
X95631000Y-160020000D02*
X93980000Y-160020000D01*
X96596200Y-160985200D02*
X95631000Y-160020000D01*
X146050000Y-171450000D02*
X146050000Y-165100000D01*
X146080480Y-172184060D02*
X146050000Y-171450000D01*
G04 #@! TO.N,/A14*
X188893800Y-134600600D02*
X188899800Y-134594600D01*
X188893800Y-159010000D02*
X188893800Y-134600600D01*
X118237000Y-125152685D02*
X116840000Y-126549685D01*
X118237000Y-124587000D02*
X118237000Y-125152685D01*
X116840000Y-126549685D02*
X116840000Y-143637000D01*
X116840000Y-143637000D02*
X115697000Y-144780000D01*
X115697000Y-144780000D02*
X105410000Y-144780000D01*
X164185600Y-140589000D02*
X163068000Y-140589000D01*
X164185600Y-154965400D02*
X164185600Y-140589000D01*
X164185600Y-140589000D02*
X164185600Y-139090400D01*
X162052000Y-139573000D02*
X162052000Y-125730000D01*
X163068000Y-140589000D02*
X162052000Y-139573000D01*
G04 #@! TO.N,/A0*
X202158600Y-149377400D02*
X202158600Y-167132000D01*
X180924200Y-167157400D02*
X180924200Y-166591715D01*
X180924200Y-166591715D02*
X180924200Y-163855400D01*
X138430000Y-184150000D02*
X138430000Y-166287701D01*
X138430000Y-166287701D02*
X138442700Y-166275001D01*
X53911500Y-158127700D02*
X53301900Y-157518100D01*
X53301900Y-157518100D02*
X51854100Y-157518100D01*
X53911500Y-168859200D02*
X53911500Y-158127700D01*
G04 #@! TO.N,/A13*
X189788800Y-137185400D02*
X189814200Y-137160000D01*
X189788800Y-159791400D02*
X189788800Y-137185400D01*
X126905001Y-149663999D02*
X126709000Y-149860000D01*
X126905001Y-134714999D02*
X126905001Y-149663999D01*
X189738000Y-137083800D02*
X189814200Y-137160000D01*
X189738000Y-130683000D02*
X189738000Y-137083800D01*
X173945001Y-138474999D02*
X175260000Y-137160000D01*
X171049401Y-138474999D02*
X173945001Y-138474999D01*
X170389601Y-139134799D02*
X171049401Y-138474999D01*
X170389601Y-155759201D02*
X170389601Y-139134799D01*
X170434000Y-156210000D02*
X170389601Y-155759201D01*
G04 #@! TO.N,/A1*
X201433600Y-150190200D02*
X201433600Y-166307600D01*
X180136800Y-166319200D02*
X180136800Y-165753515D01*
X180136800Y-165753515D02*
X180136800Y-161315400D01*
X164236400Y-179412900D02*
X164274500Y-161264600D01*
X163169600Y-180479700D02*
X164236400Y-179412900D01*
X154800300Y-180479700D02*
X163169600Y-180479700D01*
X151130000Y-184150000D02*
X154800300Y-180479700D01*
X54711600Y-162560000D02*
X54762400Y-162509200D01*
X54711600Y-166458900D02*
X54711600Y-162560000D01*
G04 #@! TO.N,/A8*
X212039200Y-163880800D02*
X212039200Y-152323800D01*
X180644800Y-132181600D02*
X180644800Y-132747285D01*
X180644800Y-132747285D02*
X180644800Y-142316200D01*
X206753399Y-132285801D02*
X206857600Y-132181600D01*
X206753399Y-151203599D02*
X206753399Y-132285801D01*
X206756000Y-152323800D02*
X206753399Y-151203599D01*
X165100000Y-157480000D02*
X165100000Y-143484600D01*
X173288402Y-143484600D02*
X174533002Y-142240000D01*
X174533002Y-142240000D02*
X175260000Y-142240000D01*
X171373800Y-143484600D02*
X173288402Y-143484600D01*
X123571000Y-143383000D02*
X123571000Y-152400000D01*
X138878919Y-115570000D02*
X138176000Y-116272919D01*
X140081000Y-115570000D02*
X138878919Y-115570000D01*
X138176000Y-116272919D02*
X138176000Y-143401001D01*
G04 #@! TO.N,/A2*
X200708600Y-167870800D02*
X200685400Y-167894000D01*
X200708600Y-151028400D02*
X200708600Y-167870800D01*
X177393600Y-167919400D02*
X177393600Y-156184600D01*
X163549499Y-158789201D02*
X163563300Y-158775400D01*
X149815001Y-182924999D02*
X149815001Y-182886899D01*
X148590000Y-184150000D02*
X149815001Y-182924999D01*
X149815001Y-182886899D02*
X150241000Y-182460900D01*
X150241000Y-182460900D02*
X151638000Y-182460900D01*
X151638000Y-182460900D02*
X154330400Y-179768500D01*
X162687051Y-179768500D02*
X163537951Y-178917600D01*
X154330400Y-179768500D02*
X162687051Y-179768500D01*
X163537951Y-178917600D02*
X163549499Y-158789201D01*
X163537900Y-179006500D02*
X163537951Y-178917600D01*
X55740300Y-163753800D02*
X55740300Y-167690800D01*
G04 #@! TO.N,/A9*
X212928200Y-164719000D02*
X212928200Y-129159000D01*
X183438800Y-144754600D02*
X183464200Y-144780000D01*
X183438800Y-128219200D02*
X183438800Y-144754600D01*
X152019000Y-157353000D02*
X152019000Y-160020000D01*
X142621000Y-121285000D02*
X142621000Y-154940000D01*
X141986000Y-120650000D02*
X142621000Y-121285000D01*
X140081000Y-120650000D02*
X141986000Y-120650000D01*
X157524999Y-161334999D02*
X156210000Y-160020000D01*
X160102001Y-161334999D02*
X157524999Y-161334999D01*
X160102001Y-153492897D02*
X160102001Y-161334999D01*
X161973260Y-151621638D02*
X160102001Y-153492897D01*
X161925000Y-146050000D02*
X161973260Y-151621638D01*
G04 #@! TO.N,/A3*
X203835000Y-150215600D02*
X203835000Y-144526000D01*
X186004200Y-152374600D02*
X185978800Y-152400000D01*
X186004200Y-144526000D02*
X186004200Y-152374600D01*
X145150001Y-159120001D02*
X146050000Y-160020000D01*
X144790999Y-159120001D02*
X145150001Y-159120001D01*
X144399000Y-158711900D02*
X144790999Y-159120001D01*
X144399000Y-148247100D02*
X144399000Y-158711900D01*
X118110000Y-184150000D02*
X118110000Y-181432200D01*
X115531900Y-178854100D02*
X115531900Y-158750000D01*
X118110000Y-181432200D02*
X115531900Y-178854100D01*
X172720000Y-152163899D02*
X172720000Y-152400000D01*
X171114601Y-150558500D02*
X172720000Y-152163899D01*
X52704099Y-171908101D02*
X51854100Y-172758100D01*
X53029101Y-171583099D02*
X52704099Y-171908101D01*
X53029101Y-161760686D02*
X53029101Y-171583099D01*
X52997100Y-161728685D02*
X53029101Y-161760686D01*
X52997100Y-161163000D02*
X52997100Y-161728685D01*
G04 #@! TO.N,/A11*
X191592200Y-161442400D02*
X191592200Y-145821400D01*
X166587000Y-160020000D02*
X166587000Y-148564600D01*
X174028100Y-148551900D02*
X175260000Y-147320000D01*
X171114601Y-148551900D02*
X174028100Y-148551900D01*
X137287000Y-157353000D02*
X137287000Y-130683000D01*
X157524999Y-158794999D02*
X155149001Y-158794999D01*
X158750000Y-160020000D02*
X157524999Y-158794999D01*
X145370001Y-161245001D02*
X144145000Y-160020000D01*
X152698999Y-161245001D02*
X145370001Y-161245001D01*
X155149001Y-158794999D02*
X152698999Y-161245001D01*
X137443723Y-157509723D02*
X137287000Y-157353000D01*
X137443723Y-160020000D02*
X137443723Y-157509723D01*
G04 #@! TO.N,/CS_RAM*
X192317200Y-142378600D02*
X192328800Y-142367000D01*
X192317200Y-154787600D02*
X192317200Y-142378600D01*
X182295800Y-142341600D02*
X182295800Y-149910800D01*
X192317200Y-179223500D02*
X192405000Y-179311300D01*
X192317200Y-154787600D02*
X192317200Y-179223500D01*
X144868900Y-180098700D02*
X144868900Y-165938200D01*
X144780000Y-165938200D02*
X144868900Y-165938200D01*
X143941800Y-165100000D02*
X144780000Y-165938200D01*
G04 #@! TO.N,/CS_VIA*
X67437000Y-81534000D02*
X63373000Y-85598000D01*
X63119000Y-125984000D02*
X63119000Y-85852000D01*
X63119000Y-85852000D02*
X63373000Y-85598000D01*
X175260000Y-121920000D02*
X173482000Y-120142000D01*
X170561000Y-86445682D02*
X170561000Y-83820000D01*
X173482000Y-120142000D02*
X173482000Y-89366682D01*
X170561000Y-83820000D02*
X168275000Y-81534000D01*
X173482000Y-89366682D02*
X170561000Y-86445682D01*
X168275000Y-81534000D02*
X67437000Y-81534000D01*
G04 #@! TO.N,/CS_BUF*
X93980000Y-157480000D02*
X92710000Y-158750000D01*
X92710000Y-158750000D02*
X92710000Y-185547000D01*
X200533000Y-128225402D02*
X200533000Y-127000000D01*
X199390000Y-129368402D02*
X200533000Y-128225402D01*
X199390000Y-182753000D02*
X199390000Y-129368402D01*
G04 #@! TO.N,/RW*
X139700000Y-185420000D02*
X139700000Y-184693002D01*
X139700000Y-184693002D02*
X139700000Y-167716200D01*
X140970000Y-186690000D02*
X139700000Y-185420000D01*
X125158500Y-167716200D02*
X125158500Y-121289419D01*
X125158500Y-120713500D02*
X125222000Y-120650000D01*
X125158500Y-121289419D02*
X125158500Y-120713500D01*
X151003000Y-119380000D02*
X151003000Y-110744000D01*
X176657000Y-123063000D02*
X175260000Y-124460000D01*
X176657000Y-111633000D02*
X176657000Y-123063000D01*
G04 #@! TO.N,/NMI*
X170561000Y-119888000D02*
X170561000Y-126365000D01*
X171196000Y-127000000D02*
X172720000Y-127000000D01*
X170561000Y-126365000D02*
X171196000Y-127000000D01*
G04 #@! TO.N,/IRQ*
X168656000Y-124333000D02*
X168656000Y-129540000D01*
G04 #@! TO.N,/SO*
X184810000Y-113626410D02*
X184810000Y-112990000D01*
X183445001Y-114991409D02*
X184810000Y-113626410D01*
X183445001Y-126180999D02*
X183445001Y-114991409D01*
X182880000Y-126746000D02*
X183445001Y-126180999D01*
G04 #@! TO.N,/SYNC*
X131699000Y-134239000D02*
X130048000Y-135890000D01*
X131699000Y-110744000D02*
X131699000Y-134239000D01*
X182270000Y-110261000D02*
X182270000Y-112990000D01*
X181610000Y-109601000D02*
X182270000Y-110261000D01*
G04 #@! TO.N,/A18*
X196672200Y-150215600D02*
X196672200Y-149649915D01*
X196672200Y-149649915D02*
X196672200Y-146075400D01*
X211302600Y-146075400D02*
X211302600Y-148615400D01*
X160807400Y-148259800D02*
X160782000Y-148234400D01*
X160807400Y-151066500D02*
X160807400Y-148259800D01*
X160782000Y-148234400D02*
X160782000Y-144526000D01*
X184531000Y-120650000D02*
X184531000Y-150077400D01*
G04 #@! TO.N,Net-(R10-Pad1)*
X183515000Y-114285000D02*
X182270000Y-115530000D01*
X183515000Y-106807000D02*
X183515000Y-114285000D01*
G04 #@! TO.N,Net-(R12-Pad1)*
X212090000Y-104140000D02*
X212039200Y-138455400D01*
G04 #@! TO.N,/A17*
X195808600Y-151003000D02*
X195808600Y-150437315D01*
X195783200Y-145840598D02*
X195783200Y-145288000D01*
X195808600Y-145865998D02*
X195783200Y-145840598D01*
X195808600Y-150437315D02*
X195808600Y-145865998D01*
X212115400Y-145262600D02*
X212115400Y-151155400D01*
X156210000Y-141860100D02*
X156210000Y-152400000D01*
X149860000Y-138430000D02*
X149860000Y-141885500D01*
X130048000Y-120650000D02*
X128143000Y-122555000D01*
X128143000Y-122555000D02*
X128143000Y-123355998D01*
X128143000Y-123355998D02*
X128143000Y-138430000D01*
G04 #@! TO.N,/BNWDS*
X74168000Y-88646000D02*
X74168000Y-94742000D01*
X74168000Y-95378410D02*
X74168000Y-94742000D01*
X72942999Y-96603411D02*
X74168000Y-95378410D01*
X72942999Y-97870001D02*
X72942999Y-96603411D01*
X73565001Y-98492003D02*
X72942999Y-97870001D01*
X73565001Y-128840116D02*
X73565001Y-98492003D01*
X73826200Y-129101315D02*
X73565001Y-128840116D01*
X73826200Y-129667000D02*
X73826200Y-129101315D01*
G04 #@! TO.N,/BNRDS*
X76708000Y-94742000D02*
X76708000Y-88646000D01*
X76708000Y-95378410D02*
X76708000Y-94742000D01*
X75438000Y-96648410D02*
X76708000Y-95378410D01*
X75438000Y-111854999D02*
X75438000Y-96648410D01*
X76200000Y-112616999D02*
X75438000Y-111854999D01*
X76200000Y-132208100D02*
X76200000Y-112616999D01*
G04 #@! TO.N,/BBLK_B*
X142748000Y-93469208D02*
X142748000Y-88646000D01*
X142748000Y-94742000D02*
X142748000Y-93469208D01*
X125984000Y-128270000D02*
X125984000Y-101346000D01*
X142748000Y-95378410D02*
X142748000Y-94742000D01*
X141478000Y-96648410D02*
X142748000Y-95378410D01*
X141478000Y-101346000D02*
X141478000Y-96648410D01*
G04 #@! TO.N,/DAC_VA*
X330403200Y-90196800D02*
X330430000Y-90170000D01*
X330403200Y-128854200D02*
X330403200Y-90196800D01*
G04 #@! TO.N,/DAC_VB*
X329045000Y-87330000D02*
X329045000Y-142988600D01*
G04 #@! TO.N,/RDY*
X165989000Y-134614460D02*
X165958499Y-134644961D01*
X165989000Y-114173000D02*
X165989000Y-134614460D01*
G04 #@! TO.N,Net-(R11-Pad1)*
X186055000Y-114285000D02*
X184810000Y-115530000D01*
X186055000Y-106045000D02*
X186055000Y-114285000D01*
G04 #@! TO.N,Net-(R14-Pad1)*
X175006000Y-118948200D02*
X175006000Y-103886000D01*
X174955200Y-119837200D02*
X175006000Y-118948200D01*
G04 #@! TO.N,Net-(R17-Pad1)*
X168656000Y-110642400D02*
X168605200Y-110693200D01*
X168656000Y-103886000D02*
X168656000Y-110642400D01*
G04 #@! TO.N,Net-(R20-Pad1)*
X188595000Y-106045000D02*
X186690000Y-104140000D01*
X188595000Y-126238000D02*
X188595000Y-106045000D01*
G04 #@! TO.N,Net-(R24-Pad1)*
X193040000Y-113280000D02*
X193100000Y-113340000D01*
X192430000Y-104496000D02*
X193040000Y-103886000D01*
X192430000Y-112990000D02*
X192430000Y-104496000D01*
G04 #@! TO.N,Net-(R25-Pad1)*
X205740000Y-104140000D02*
X205740000Y-130784600D01*
G04 #@! TO.N,/PHI2*
X124421900Y-185458100D02*
X124421900Y-184731102D01*
X123190000Y-186690000D02*
X124421900Y-185458100D01*
X124421900Y-184731102D02*
X124460000Y-115697000D01*
X124460000Y-115697000D02*
X124421900Y-115671600D01*
X176159999Y-126100001D02*
X175260000Y-127000000D01*
X176911000Y-125349000D02*
X176159999Y-126100001D01*
X177419000Y-124841000D02*
X175260000Y-127000000D01*
X177419000Y-112649000D02*
X177419000Y-124841000D01*
G04 #@! TO.N,Net-(J8-Pad13)*
X205740000Y-94869000D02*
X205740000Y-96520000D01*
X187198000Y-82804000D02*
X188563001Y-81438999D01*
X194487800Y-93319600D02*
X194538600Y-93319600D01*
X188563001Y-81438999D02*
X193452999Y-81438999D01*
X194487800Y-82473800D02*
X194487800Y-93319600D01*
X193452999Y-81438999D02*
X194487800Y-82473800D01*
X194538600Y-93319600D02*
X195453000Y-94234000D01*
X205105000Y-94234000D02*
X205740000Y-94869000D01*
X195453000Y-94234000D02*
X205105000Y-94234000D01*
D39*
G04 #@! TO.N,+5V*
X160129787Y-184150000D02*
X164846000Y-184150000D01*
X159258000Y-183278213D02*
X160129787Y-184150000D01*
X159258000Y-181864000D02*
X159258000Y-183278213D01*
D38*
G04 #@! TO.N,/BPiTX*
X123327999Y-87005999D02*
X122428000Y-86106000D01*
X123653001Y-87331001D02*
X123327999Y-87005999D01*
X123653001Y-96056999D02*
X123653001Y-87331001D01*
X122428000Y-97282000D02*
X123653001Y-96056999D01*
X159512000Y-99822000D02*
X159512000Y-128270000D01*
G04 #@! TO.N,/BPiRX*
X125867999Y-96382001D02*
X124968000Y-97282000D01*
X126193001Y-87331001D02*
X126193001Y-96056999D01*
X126193001Y-96056999D02*
X125867999Y-96382001D01*
X124968000Y-86106000D02*
X126193001Y-87331001D01*
X157861000Y-129159000D02*
X156210000Y-130810000D01*
X157861000Y-90551000D02*
X157861000Y-129159000D01*
X154432000Y-86995000D02*
X157861000Y-90551000D01*
X150114000Y-86995000D02*
X154432000Y-86995000D01*
X147999999Y-84880999D02*
X150114000Y-86995000D01*
X126193001Y-84880999D02*
X147999999Y-84880999D01*
X124968000Y-86106000D02*
X126193001Y-84880999D01*
G04 #@! TO.N,/BUF_DIR*
X198628000Y-176390300D02*
X198615300Y-176403000D01*
X151295100Y-174550333D02*
X151282384Y-174537617D01*
X198628000Y-121869200D02*
X198628000Y-176390300D01*
X132435600Y-174967900D02*
X132435600Y-181825900D01*
X151295100Y-177012600D02*
X151295100Y-174550333D01*
X88176100Y-155371800D02*
X87744300Y-154940000D01*
X87744300Y-154940000D02*
X86360000Y-154940000D01*
X88176100Y-181876700D02*
X88176100Y-155371800D01*
G04 #@! TO.N,Net-(J9-Pad2)*
X269240000Y-117856000D02*
X266928600Y-117856000D01*
X265727609Y-116655009D02*
X265727609Y-112960991D01*
X266928600Y-117856000D02*
X265727609Y-116655009D01*
X267691870Y-110996730D02*
X267691870Y-107950000D01*
X265727609Y-112960991D02*
X267691870Y-110996730D01*
X267030200Y-129057400D02*
X266928600Y-117856000D01*
G04 #@! TO.N,/PiTX*
X144145000Y-134620000D02*
X144145000Y-140970000D01*
X153162000Y-126365000D02*
X153162000Y-134620000D01*
X156210000Y-125730000D02*
X153797000Y-125730000D01*
X153797000Y-125730000D02*
X153162000Y-126365000D01*
X145150001Y-187589999D02*
X146050000Y-186690000D01*
X144824999Y-187915001D02*
X145150001Y-187589999D01*
X132761999Y-187915001D02*
X144824999Y-187915001D01*
X132035001Y-187188003D02*
X132761999Y-187915001D01*
X132035001Y-183686999D02*
X132035001Y-187188003D01*
X133160601Y-182561399D02*
X132035001Y-183686999D01*
X133160601Y-170515597D02*
X133160601Y-182561399D01*
X134271999Y-169404199D02*
X133160601Y-170515597D01*
X134968001Y-169404199D02*
X134271999Y-169404199D01*
X136251802Y-170688000D02*
X134968001Y-169404199D01*
X136635342Y-170688000D02*
X136251802Y-170688000D01*
X137717699Y-169605643D02*
X136635342Y-170688000D01*
X137717699Y-165927000D02*
X137717699Y-169605643D01*
X138387699Y-165257000D02*
X137717699Y-165927000D01*
X138387699Y-156340459D02*
X138387699Y-165257000D01*
X141134000Y-153594158D02*
X138387699Y-156340459D01*
X141134000Y-140970000D02*
X141134000Y-153594158D01*
G04 #@! TO.N,/PiRX*
X154144000Y-179318490D02*
X161549510Y-179318490D01*
X152188779Y-181273711D02*
X154144000Y-179318490D01*
X147113287Y-181273711D02*
X152188779Y-181273711D01*
X144735001Y-183651997D02*
X147113287Y-181273711D01*
X144735001Y-185464999D02*
X144735001Y-183651997D01*
X143510000Y-186690000D02*
X144735001Y-185464999D01*
X161549510Y-179318490D02*
X163068000Y-177800000D01*
X163068000Y-177800000D02*
X163088595Y-177779405D01*
X162838299Y-152902603D02*
X163323101Y-152417801D01*
X163323101Y-152417801D02*
X163323101Y-145162101D01*
X162838299Y-159282299D02*
X162838299Y-152902603D01*
X163068000Y-159512000D02*
X162838299Y-159282299D01*
X163068000Y-177800000D02*
X163068000Y-159512000D01*
X163323101Y-145162101D02*
X160909000Y-142748000D01*
X160909000Y-142748000D02*
X160909000Y-133350000D01*
G04 #@! TO.N,/CS_TUBE*
X153771600Y-178676300D02*
X153784300Y-178625500D01*
X238277400Y-125869700D02*
X238340900Y-125806200D01*
X238277400Y-178282600D02*
X238277400Y-125869700D01*
X153371601Y-179076299D02*
X153771600Y-178676300D01*
X141756299Y-180823701D02*
X151624199Y-180823701D01*
X151624199Y-180823701D02*
X153371601Y-179076299D01*
X140970000Y-181610000D02*
X141756299Y-180823701D01*
X140970000Y-184150000D02*
X140970000Y-181610000D01*
G04 #@! TO.N,/BA16*
X69987999Y-96382001D02*
X69088000Y-97282000D01*
X70313001Y-96056999D02*
X69987999Y-96382001D01*
X70313001Y-87331001D02*
X70313001Y-96056999D01*
X69088000Y-86106000D02*
X70313001Y-87331001D01*
G04 #@! TO.N,/BA17*
X133487999Y-87005999D02*
X132588000Y-86106000D01*
X133813001Y-87331001D02*
X133487999Y-87005999D01*
X133813001Y-96056999D02*
X133813001Y-87331001D01*
X132588000Y-97282000D02*
X133813001Y-96056999D01*
X125222000Y-118110000D02*
X125222000Y-100584000D01*
X132588000Y-100584000D02*
X132588000Y-97282000D01*
G04 #@! TO.N,/BA18*
X143647999Y-96382001D02*
X142748000Y-97282000D01*
X143973001Y-96056999D02*
X143647999Y-96382001D01*
X143973001Y-87331001D02*
X143973001Y-96056999D01*
X142748000Y-86106000D02*
X143973001Y-87331001D01*
X153416000Y-101858799D02*
X153411201Y-101854000D01*
X153416000Y-121920000D02*
X153416000Y-101858799D01*
G04 #@! TO.N,Net-(J16-Pad1)*
X254000000Y-100330000D02*
X255270000Y-99060000D01*
X254000000Y-105410000D02*
X254000000Y-100330000D01*
X245110000Y-87630000D02*
X245110000Y-92862400D01*
X251307600Y-99060000D02*
X255270000Y-99060000D01*
X245110000Y-92862400D02*
X251307600Y-99060000D01*
G04 #@! TO.N,Net-(C22-Pad1)*
X323342000Y-145796000D02*
X326517000Y-145796000D01*
X326517000Y-145796000D02*
X327914000Y-144399000D01*
X327914000Y-144399000D02*
X327914000Y-132080000D01*
G04 #@! TO.N,Net-(C23-Pad2)*
X261131599Y-153015401D02*
X261086600Y-153060400D01*
X261112000Y-114554000D02*
X261131599Y-153015401D01*
G04 #@! TO.N,Net-(C29-Pad2)*
X376936000Y-156972000D02*
X387045200Y-156972000D01*
X388620000Y-155397200D02*
X388620000Y-150876000D01*
X387045200Y-156972000D02*
X388620000Y-155397200D01*
X388620000Y-150876000D02*
X388620000Y-143637000D01*
X390652000Y-141605000D02*
X390652000Y-136024000D01*
X388620000Y-143637000D02*
X390652000Y-141605000D01*
G04 #@! TO.N,Net-(J14-Pad18)*
X281127200Y-173685200D02*
X281178000Y-173736000D01*
G04 #@! TO.N,Net-(J9-Pad1)*
X264160000Y-116478659D02*
X265189970Y-115448689D01*
X265189970Y-115448689D02*
X265189970Y-107950000D01*
X264160000Y-117856000D02*
X264160000Y-116478659D01*
X262432800Y-119583200D02*
X264160000Y-117856000D01*
X262432800Y-133426200D02*
X262432800Y-119583200D01*
G04 #@! TO.N,Net-(J9-Pad5)*
X272389600Y-119532400D02*
X274066000Y-117856000D01*
X272389600Y-130022600D02*
X272389600Y-119532400D01*
X275268081Y-117856000D02*
X277622000Y-115502081D01*
X274066000Y-117856000D02*
X275268081Y-117856000D01*
X277622000Y-115502081D02*
X277622000Y-112903000D01*
X275189950Y-110470950D02*
X275189950Y-107950000D01*
X277622000Y-112903000D02*
X275189950Y-110470950D01*
G04 #@! TO.N,Net-(J9-Pad7)*
X280120090Y-116881910D02*
X280120090Y-107950000D01*
X279146000Y-117856000D02*
X280120090Y-116881910D01*
X277469600Y-119532400D02*
X279146000Y-117856000D01*
X277469600Y-128193800D02*
X277469600Y-119532400D01*
G04 #@! TO.N,Net-(J14-Pad19)*
X272078999Y-181654999D02*
X272404001Y-181980001D01*
X272078999Y-179751999D02*
X272078999Y-181654999D01*
X272440400Y-179390598D02*
X272078999Y-179751999D01*
X272404001Y-181980001D02*
X273304000Y-182880000D01*
X272440400Y-148844000D02*
X272440400Y-179390598D01*
G04 #@! TO.N,Net-(J14-Pad17)*
X233908600Y-154773598D02*
X233908600Y-164224800D01*
X233908600Y-153898600D02*
X233908600Y-154773598D01*
X232410000Y-152400000D02*
X233908600Y-153898600D01*
X269864001Y-181980001D02*
X270764000Y-182880000D01*
X269449001Y-181565001D02*
X269864001Y-181980001D01*
X269449001Y-164807886D02*
X269449001Y-181565001D01*
X269443200Y-164802085D02*
X269449001Y-164807886D01*
X269443200Y-164236400D02*
X269443200Y-164802085D01*
G04 #@! TO.N,Net-(J14-Pad16)*
X220192600Y-104927400D02*
X219710000Y-105410000D01*
X223679001Y-114137082D02*
X223679001Y-126053599D01*
X222504000Y-112962081D02*
X223679001Y-114137082D01*
X222504000Y-111760000D02*
X222504000Y-112962081D01*
X223679001Y-126053599D02*
X221742000Y-127990600D01*
X221742000Y-127990600D02*
X221742000Y-171405001D01*
X219710000Y-105410000D02*
X219710000Y-107061000D01*
X222504000Y-109855000D02*
X222504000Y-111760000D01*
X219710000Y-107061000D02*
X222504000Y-109855000D01*
G04 #@! TO.N,Net-(J14-Pad15)*
X232410000Y-154940000D02*
X232410000Y-173482000D01*
X232299399Y-173592601D02*
X232299399Y-188117199D01*
X232299399Y-188117199D02*
X232333800Y-188151600D01*
X232410000Y-173482000D02*
X232299399Y-173592601D01*
X268224000Y-187585915D02*
X268224000Y-182880000D01*
X268224000Y-188151600D02*
X268224000Y-187585915D01*
G04 #@! TO.N,Net-(J14-Pad14)*
X229870000Y-110557919D02*
X229870000Y-105410000D01*
X229870000Y-111760000D02*
X229870000Y-110557919D01*
X236118400Y-155829000D02*
X237515400Y-157226000D01*
X236118400Y-112776000D02*
X236118400Y-155829000D01*
X237515400Y-157226000D02*
X237515400Y-172339000D01*
X235026200Y-111683800D02*
X236118400Y-112776000D01*
X229946200Y-111683800D02*
X235026200Y-111683800D01*
G04 #@! TO.N,Net-(J14-Pad13)*
X225921370Y-152400000D02*
X226353170Y-152831800D01*
X224790000Y-152400000D02*
X225921370Y-152400000D01*
X226353170Y-191451430D02*
X226339400Y-191465200D01*
X226353170Y-152831800D02*
X226353170Y-191451430D01*
X265684000Y-191516000D02*
X265684000Y-182880000D01*
G04 #@! TO.N,Net-(J14-Pad12)*
X265887200Y-173685200D02*
X265938000Y-173736000D01*
X265887200Y-168249600D02*
X265887200Y-173685200D01*
G04 #@! TO.N,Net-(J14-Pad11)*
X225921370Y-149860000D02*
X226872800Y-150811430D01*
X224790000Y-149860000D02*
X225921370Y-149860000D01*
X226872800Y-190167630D02*
X227078170Y-190373000D01*
X226872800Y-150811430D02*
X226872800Y-190167630D01*
X263169400Y-182905400D02*
X263144000Y-182880000D01*
X263169400Y-190347600D02*
X263169400Y-182905400D01*
G04 #@! TO.N,Net-(J14-Pad10)*
X257073400Y-154228800D02*
X258749800Y-152552400D01*
X257073400Y-161290000D02*
X257073400Y-154228800D01*
X257073400Y-161855685D02*
X257098800Y-161881085D01*
X257073400Y-161290000D02*
X257073400Y-161855685D01*
X257098800Y-161881085D02*
X257098800Y-172974000D01*
X257860800Y-173736000D02*
X260858000Y-173736000D01*
X257098800Y-172974000D02*
X257860800Y-173736000D01*
G04 #@! TO.N,Net-(J14-Pad9)*
X224790000Y-147320000D02*
X227558600Y-150088600D01*
X227558600Y-188860600D02*
X227597800Y-188899800D01*
X227558600Y-150088600D02*
X227558600Y-188860600D01*
X260629400Y-182905400D02*
X260604000Y-182880000D01*
X260629400Y-188899800D02*
X260629400Y-182905400D01*
G04 #@! TO.N,Net-(J14-Pad8)*
X248716800Y-158750000D02*
X248716800Y-153111200D01*
X249275600Y-152552400D02*
X251129800Y-152552400D01*
X248716800Y-153111200D02*
X249275600Y-152552400D01*
X254228600Y-172186600D02*
X255778000Y-173736000D01*
X252704600Y-158750000D02*
X254228600Y-160274000D01*
X248716800Y-158750000D02*
X252704600Y-158750000D01*
X254228600Y-160274000D02*
X254228600Y-172186600D01*
G04 #@! TO.N,Net-(J14-Pad7)*
X225921370Y-144780000D02*
X228117400Y-146976030D01*
X224790000Y-144780000D02*
X225921370Y-144780000D01*
X228117400Y-186244400D02*
X228283600Y-186410600D01*
X228117400Y-146976030D02*
X228117400Y-186244400D01*
X258038600Y-182905400D02*
X258064000Y-182880000D01*
G04 #@! TO.N,Net-(J14-Pad6)*
X235102400Y-147269200D02*
X235102400Y-147396200D01*
X235102400Y-153695400D02*
X235102400Y-147396200D01*
X235102400Y-156210000D02*
X235102400Y-153695400D01*
X251129800Y-147472400D02*
X249047000Y-147472400D01*
X249848001Y-172886001D02*
X250698000Y-173736000D01*
X247991799Y-171029799D02*
X249848001Y-172886001D01*
X247991799Y-148527601D02*
X247991799Y-171029799D01*
X249047000Y-147472400D02*
X247991799Y-148527601D01*
G04 #@! TO.N,Net-(J14-Pad5)*
X224790000Y-142240000D02*
X228854000Y-146304000D01*
X228854000Y-146304000D02*
X228854000Y-185089800D01*
G04 #@! TO.N,Net-(J14-Pad4)*
X251129800Y-142392400D02*
X248081800Y-142392400D01*
X246467999Y-172886001D02*
X245618000Y-173736000D01*
X246793001Y-172560999D02*
X246467999Y-172886001D01*
X248081800Y-142392400D02*
X246793001Y-143681199D01*
X246793001Y-150037800D02*
X246793001Y-172560999D01*
X246793001Y-143681199D02*
X246793001Y-150037800D01*
G04 #@! TO.N,Net-(J14-Pad3)*
X224790000Y-139700000D02*
X229514400Y-144424400D01*
X229514400Y-183856800D02*
X229579000Y-183921400D01*
X229514400Y-144424400D02*
X229514400Y-183856800D01*
G04 #@! TO.N,Net-(J14-Pad2)*
X243306600Y-170967400D02*
X240538000Y-173736000D01*
X243306600Y-146227800D02*
X243306600Y-170967400D01*
X243306600Y-142728802D02*
X243306600Y-146227800D01*
X243306600Y-142728802D02*
X245414800Y-140620602D01*
X245414800Y-140620602D02*
X245414800Y-137388600D01*
X251053600Y-137388600D02*
X251129800Y-137312400D01*
G04 #@! TO.N,Net-(J14-Pad1)*
X225840000Y-137160000D02*
X230327200Y-141647200D01*
X224790000Y-137160000D02*
X225840000Y-137160000D01*
X230327200Y-182930800D02*
X230301800Y-182956200D01*
X230327200Y-141647200D02*
X230327200Y-182930800D01*
G04 #@! TO.N,Net-(J15-Pad4)*
X302971200Y-88341200D02*
X302895000Y-88265000D01*
X302971200Y-136347200D02*
X302971200Y-88341200D01*
G04 #@! TO.N,Net-(J15-Pad3)*
X304800000Y-163830000D02*
X306070000Y-165100000D01*
X304800000Y-88265000D02*
X304800000Y-163830000D01*
G04 #@! TO.N,Net-(J15-Pad2)*
X312420000Y-134467600D02*
X312420000Y-88265000D01*
G04 #@! TO.N,Net-(J16-Pad5)*
X243840000Y-104260000D02*
X243890800Y-104209200D01*
X243840000Y-105410000D02*
X243840000Y-104260000D01*
X243890800Y-104209200D02*
X243890800Y-101955600D01*
X242570000Y-90170000D02*
X242570000Y-91584213D01*
X242570000Y-93345000D02*
X242570000Y-90170000D01*
X243890800Y-94665800D02*
X242570000Y-93345000D01*
X237490000Y-99060000D02*
X243890800Y-99060000D01*
X243890800Y-99060000D02*
X243890800Y-94665800D01*
X243890800Y-101955600D02*
X243890800Y-99060000D01*
G04 #@! TO.N,Net-(J17-Pad5)*
X234950000Y-104260000D02*
X234950000Y-99060000D01*
X234950000Y-105410000D02*
X234950000Y-104260000D01*
X228396800Y-95199200D02*
X232257600Y-99060000D01*
X232257600Y-99060000D02*
X234950000Y-99060000D01*
X228396800Y-90195400D02*
X228396800Y-95199200D01*
G04 #@! TO.N,Net-(J17-Pad1)*
X221437200Y-99060000D02*
X217170000Y-99060000D01*
X226060000Y-94437200D02*
X221437200Y-99060000D01*
X226060000Y-87630000D02*
X226060000Y-94437200D01*
X221437200Y-99060000D02*
X222123000Y-99060000D01*
X224790000Y-101727000D02*
X224790000Y-105410000D01*
X222123000Y-99060000D02*
X224790000Y-101727000D01*
G04 #@! TO.N,Net-(J18-Pad3)*
X280974800Y-123698000D02*
X281101800Y-123571000D01*
X280974800Y-144932400D02*
X280974800Y-123698000D01*
X333171800Y-90198200D02*
X333200000Y-90170000D01*
X333171800Y-123494800D02*
X333171800Y-90198200D01*
G04 #@! TO.N,Net-(J18-Pad4)*
X335940400Y-90199600D02*
X335970000Y-90170000D01*
X335940400Y-127457200D02*
X335940400Y-90199600D01*
X276250400Y-132969000D02*
X276301200Y-132918200D01*
X258749800Y-155092400D02*
X262991600Y-155092400D01*
X262991600Y-155092400D02*
X267462000Y-150622000D01*
X267462000Y-150622000D02*
X267462000Y-134747000D01*
X269290800Y-132918200D02*
X276301200Y-132918200D01*
X267462000Y-134747000D02*
X269290800Y-132918200D01*
G04 #@! TO.N,Net-(J18-Pad5)*
X282371800Y-145219202D02*
X282371800Y-117221000D01*
X282371800Y-145872200D02*
X282371800Y-145219202D01*
X283819600Y-147320000D02*
X282371800Y-145872200D01*
X338759800Y-90189800D02*
X338740000Y-90170000D01*
G04 #@! TO.N,Net-(J18-Pad10)*
X285496000Y-125018800D02*
X285369000Y-124891800D01*
X285496000Y-139852400D02*
X285496000Y-125018800D01*
X331815000Y-88800782D02*
X331815000Y-87330000D01*
X331815000Y-124290115D02*
X331815000Y-88800782D01*
X331851000Y-124326115D02*
X331815000Y-124290115D01*
X331851000Y-124891800D02*
X331851000Y-124326115D01*
G04 #@! TO.N,Net-(J18-Pad11)*
X288823400Y-126542800D02*
X288747200Y-126466600D01*
X288823400Y-149987000D02*
X288823400Y-126542800D01*
X334585000Y-88800782D02*
X334585000Y-87330000D01*
X334619600Y-90839802D02*
X334585000Y-90805202D01*
X334585000Y-90805202D02*
X334585000Y-88800782D01*
X334619600Y-126365000D02*
X334619600Y-90839802D01*
G04 #@! TO.N,Net-(J18-Pad12)*
X255244600Y-124891800D02*
X257937000Y-122199400D01*
X337362800Y-87337800D02*
X337355000Y-87330000D01*
X337362800Y-122072400D02*
X337362800Y-87337800D01*
X252331881Y-150012400D02*
X252357281Y-149987000D01*
X251129800Y-150012400D02*
X252331881Y-150012400D01*
X253720600Y-149987000D02*
X255244600Y-148463000D01*
X252357281Y-149987000D02*
X253720600Y-149987000D01*
X255244600Y-148463000D02*
X255244600Y-124891800D01*
G04 #@! TO.N,Net-(J18-Pad13)*
X283819600Y-119151400D02*
X283768800Y-119100600D01*
X283819600Y-142240000D02*
X283819600Y-119151400D01*
X340125000Y-88800782D02*
X340125000Y-87330000D01*
G04 #@! TO.N,Net-(R19-Pad1)*
X220218000Y-122802000D02*
X218550000Y-124470000D01*
X220218000Y-109220000D02*
X220218000Y-122802000D01*
G04 #@! TO.N,Net-(R22-Pad1)*
X199390000Y-103886000D02*
X199390000Y-128295400D01*
G04 #@! TO.N,Net-(R40-Pad1)*
X365252000Y-145982081D02*
X367487200Y-148217281D01*
X365252000Y-144780000D02*
X365252000Y-145982081D01*
X367487200Y-152603200D02*
X369316000Y-154432000D01*
X367487200Y-148217281D02*
X367487200Y-152603200D01*
G04 #@! TO.N,Net-(U11-Pad49)*
X220675200Y-139827000D02*
X220675200Y-135178800D01*
X230378000Y-140208000D02*
X232410000Y-142240000D01*
X230378000Y-135178800D02*
X230378000Y-140208000D01*
G04 #@! TO.N,Net-(U11-Pad51)*
X235026200Y-127050800D02*
X235026200Y-145796000D01*
X235026200Y-145796000D02*
X233426000Y-147396200D01*
X233426000Y-147396200D02*
X232486200Y-147396200D01*
X232486200Y-147396200D02*
X232410000Y-147320000D01*
X214894000Y-147330000D02*
X216010000Y-147330000D01*
X214376000Y-146812000D02*
X214894000Y-147330000D01*
X215095999Y-128185001D02*
X214376000Y-128905000D01*
X220277599Y-128185001D02*
X215095999Y-128185001D01*
X221437200Y-127025400D02*
X220277599Y-128185001D01*
X214376000Y-128905000D02*
X214376000Y-146812000D01*
G04 #@! TO.N,Net-(U11-Pad63)*
X292836600Y-143002000D02*
X291084000Y-143002000D01*
X293370000Y-143535400D02*
X292836600Y-143002000D01*
X293370000Y-163499800D02*
X293370000Y-143535400D01*
G04 #@! TO.N,Net-(U11-Pad65)*
X291084000Y-159994600D02*
X291084000Y-145542000D01*
G04 #@! TO.N,Net-(U11-Pad71)*
X222732600Y-144754600D02*
X222732600Y-134162800D01*
X247827800Y-134137400D02*
X247827800Y-136575800D01*
X247827800Y-136575800D02*
X247827800Y-139827000D01*
G04 #@! TO.N,Net-(U11-Pad85)*
X242976400Y-136144000D02*
X242976400Y-116967000D01*
G04 #@! TO.N,Net-(R53-Pad1)*
X335534000Y-132080000D02*
X335534000Y-138938000D01*
G04 #@! TD*
M02*
