G04 #@! TF.GenerationSoftware,KiCad,Pcbnew,(5.0.2-5)-5*
G04 #@! TF.CreationDate,2019-10-07T20:46:21+02:00*
G04 #@! TF.ProjectId,FPGAtom,46504741-746f-46d2-9e6b-696361645f70,1.3*
G04 #@! TF.SameCoordinates,Original*
G04 #@! TF.FileFunction,Profile,NP*
%FSLAX46Y46*%
G04 Gerber Fmt 4.6, Leading zero omitted, Abs format (unit mm)*
G04 Created by KiCad (PCBNEW (5.0.2-5)-5) date Monday, 07 October 2019 at 20:46:21*
%MOMM*%
%LPD*%
G01*
G04 APERTURE LIST*
%ADD10C,0.150000*%
G04 APERTURE END LIST*
D10*
X31242000Y-186817000D02*
X31242000Y-193040000D01*
X37274500Y-186817000D02*
X37274500Y-179959000D01*
X31242000Y-186817000D02*
X37274500Y-186817000D01*
X37274500Y-179959000D02*
X31242000Y-179959000D01*
X398780000Y-186817000D02*
X398780000Y-193040000D01*
X392811000Y-186817000D02*
X398780000Y-186817000D01*
X392811000Y-179959000D02*
X392811000Y-186817000D01*
X398780000Y-179959000D02*
X392811000Y-179959000D01*
X31242000Y-80772000D02*
X31242000Y-179959000D01*
X52260500Y-80772000D02*
X31242000Y-80772000D01*
X212915500Y-80772000D02*
X57277000Y-80772000D01*
X374015000Y-80708500D02*
X217995500Y-80772000D01*
X398780000Y-80772000D02*
X379285500Y-80772000D01*
X374015000Y-80772000D02*
X374015000Y-87312500D01*
X374015000Y-87312500D02*
X379285500Y-87312500D01*
X379285500Y-87312500D02*
X379285500Y-80772000D01*
X217995500Y-87122000D02*
X217995500Y-80772000D01*
X212979000Y-87122000D02*
X217932000Y-87122000D01*
X212915500Y-80772000D02*
X212915500Y-87122000D01*
X57277000Y-87185500D02*
X57277000Y-80772000D01*
X52260500Y-87185500D02*
X57277000Y-87185500D01*
X52260500Y-80772000D02*
X52260500Y-87185500D01*
X398780000Y-179959000D02*
X398780000Y-80772000D01*
X31242000Y-193040000D02*
X398780000Y-193040000D01*
M02*
