M48
;DRILL file {KiCad (5.0.2-5)-5} date Monday, 07 October 2019 at 20:46:27
;FORMAT={-:-/ absolute / metric / decimal}
FMAT,2
METRIC,TZ
T1C0.400
T2C0.800
T3C0.900
T4C1.000
T5C1.100
T6C1.180
T7C2.000
T8C3.100
T9C3.200
%
G90
G05
T1
X43.409Y-142.329
X45.517Y-143.586
X46.622Y-144.729
X48.031Y-120.193
X48.082Y-159.931
X49.479Y-118.605
X52.997Y-161.163
X53.911Y-168.859
X54.712Y-166.459
X54.762Y-162.509
X55.74Y-163.754
X55.74Y-167.691
X57.048Y-156.172
X57.048Y-172.822
X57.874Y-158.864
X61.925Y-152.413
X62.979Y-151.524
X62.979Y-162.649
X63.119Y-91.885
X63.119Y-125.984
X66.116Y-103.95
X66.131Y-176.494
X67.31Y-101.625
X67.31Y-115.189
X68.618Y-171.45
X68.707Y-104.648
X69.85Y-102.756
X70.358Y-100.33
X71.12Y-109.855
X73.826Y-129.667
X74.739Y-131.483
X74.739Y-160.058
X74.93Y-115.57
X76.2Y-132.208
X76.594Y-133.731
X76.594Y-165.176
X77.978Y-108.585
X78.13Y-137.528
X78.194Y-170.243
X78.74Y-106.426
X79.616Y-136.169
X79.68Y-175.4
X81.407Y-107.315
X82.677Y-121.539
X83.845Y-120.193
X85.09Y-122.301
X86.258Y-118.605
X87.757Y-123.19
X88.176Y-181.877
X88.9Y-105.701
X88.9Y-120.65
X89.027Y-104.648
X89.319Y-144.678
X89.319Y-165.202
X90.17Y-124.079
X90.399Y-143.688
X90.399Y-162.598
X90.78Y-103.861
X91.3Y-160.02
X91.313Y-105.664
X91.363Y-142.329
X91.44Y-119.888
X91.935Y-101.511
X92.089Y-157.378
X92.71Y-124.968
X92.71Y-185.547
X93.98Y-118.745
X94.488Y-102.705
X95.25Y-125.73
X96.52Y-117.602
X96.596Y-169.012
X97.485Y-191.516
X98.323Y-165.125
X98.323Y-175.26
X99.187Y-108.585
X99.441Y-106.426
X99.949Y-162.56
X99.949Y-172.745
X100.292Y-136.169
X100.33Y-120.65
X101.575Y-170.256
X101.575Y-173.99
X101.854Y-107.315
X102.87Y-119.761
X102.883Y-137.465
X102.997Y-168.986
X102.997Y-177.775
X104.013Y-121.412
X105.41Y-118.745
X105.664Y-133.477
X106.68Y-122.301
X107.95Y-117.602
X107.95Y-131.42
X108.89Y-166.421
X108.915Y-178.181
X109.22Y-123.317
X111.76Y-123.952
X115.532Y-158.75
X117.475Y-109.855
X117.475Y-116.967
X117.602Y-122.428
X118.085Y-170.129
X118.085Y-177.343
X118.11Y-127.
X118.11Y-142.24
X118.237Y-124.587
X120.523Y-125.603
X123.571Y-143.383
X123.571Y-152.4
X123.698Y-104.013
X124.46Y-115.697
X125.158Y-167.716
X125.222Y-100.584
X125.222Y-118.11
X125.222Y-120.65
X125.705Y-178.943
X125.984Y-101.346
X125.984Y-128.27
X125.984Y-144.21
X125.984Y-152.4
X126.111Y-99.187
X126.709Y-149.86
X126.905Y-134.715
X126.949Y-171.475
X127.Y-102.362
X127.Y-133.223
X127.889Y-115.57
X128.143Y-138.43
X128.27Y-173.895
X129.489Y-169.012
X130.81Y-176.962
X131.699Y-110.744
X132.436Y-174.968
X132.436Y-181.826
X132.588Y-100.584
X132.842Y-104.013
X132.842Y-128.27
X133.985Y-100.457
X134.239Y-103.251
X134.239Y-122.301
X134.62Y-170.129
X134.62Y-177.825
X135.255Y-99.187
X135.255Y-133.35
X135.814Y-175.285
X135.814Y-175.285
X136.398Y-118.11
X136.444Y-160.02
X136.469Y-169.781
X137.16Y-123.19
X137.16Y-176.073
X137.185Y-172.771
X137.287Y-130.683
X137.287Y-157.353
X137.444Y-160.02
X138.176Y-143.401
X138.443Y-166.275
X139.7Y-167.716
X140.208Y-102.362
X141.134Y-140.97
X141.478Y-101.346
X141.872Y-162.496
X142.621Y-154.94
X143.37Y-157.493
X143.383Y-116.84
X143.383Y-146.71
X143.383Y-153.746
X143.942Y-165.1
X144.145Y-134.62
X144.145Y-140.97
X144.145Y-160.02
X144.399Y-148.247
X144.869Y-180.099
X145.542Y-118.11
X146.063Y-140.157
X146.063Y-147.46
X146.08Y-172.184
X147.282Y-145.898
X147.282Y-151.016
X147.283Y-191.516
X147.955Y-93.091
X148.565Y-172.974
X148.717Y-142.709
X149.479Y-104.902
X149.479Y-123.19
X149.793Y-147.434
X149.835Y-172.136
X149.835Y-176.962
X149.86Y-138.43
X149.86Y-141.886
X150.929Y-120.65
X151.003Y-110.744
X151.003Y-119.38
X151.13Y-127.
X151.168Y-138.049
X151.282Y-174.538
X151.295Y-177.013
X152.019Y-157.353
X152.019Y-160.02
X152.298Y-178.968
X152.324Y-173.736
X152.349Y-141.16
X153.162Y-134.62
X153.289Y-90.551
X153.411Y-101.854
X153.416Y-121.92
X153.645Y-174.676
X153.772Y-178.676
X154.136Y-88.519
X154.136Y-88.519
X154.813Y-119.38
X154.889Y-176.098
X156.21Y-141.86
X156.21Y-177.851
X157.988Y-145.161
X158.013Y-153.137
X158.623Y-130.81
X158.699Y-169.037
X159.512Y-99.822
X159.512Y-128.27
X160.706Y-169.806
X160.782Y-144.526
X160.782Y-148.234
X160.807Y-151.066
X160.909Y-133.35
X161.925Y-146.05
X162.052Y-125.73
X162.598Y-152.07
X163.563Y-158.775
X164.186Y-154.965
X164.274Y-161.265
X165.1Y-143.485
X165.1Y-157.48
X165.405Y-169.799
X165.405Y-177.521
X165.958Y-134.645
X165.989Y-114.173
X166.129Y-141.135
X166.587Y-148.565
X166.587Y-160.02
X168.605Y-110.693
X168.656Y-124.333
X168.656Y-129.54
X169.443Y-153.137
X169.469Y-140.97
X169.799Y-124.968
X170.104Y-162.585
X170.282Y-165.125
X170.307Y-167.64
X170.434Y-156.21
X170.561Y-119.888
X170.688Y-99.06
X171.115Y-148.552
X171.115Y-150.558
X171.374Y-143.485
X173.482Y-91.948
X174.955Y-119.837
X175.285Y-173.711
X176.657Y-111.633
X176.708Y-155.397
X177.024Y-134.595
X177.165Y-135.788
X177.19Y-141.351
X177.394Y-156.185
X177.394Y-167.919
X177.419Y-112.649
X177.444Y-170.561
X177.444Y-172.949
X178.003Y-140.589
X178.841Y-166.319
X178.841Y-169.621
X180.137Y-161.315
X180.137Y-166.319
X180.645Y-132.182
X180.645Y-142.316
X180.924Y-152.4
X180.924Y-163.855
X180.924Y-167.157
X180.924Y-162.433
X181.178Y-146.939
X181.61Y-109.601
X181.635Y-158.217
X181.635Y-174.65
X181.649Y-168.693
X182.296Y-142.342
X182.296Y-149.911
X182.88Y-126.746
X183.439Y-128.219
X183.464Y-144.78
X183.515Y-106.807
X183.769Y-156.591
X184.531Y-120.65
X184.531Y-150.077
X184.658Y-155.829
X184.683Y-165.1
X184.683Y-176.124
X184.709Y-157.404
X185.598Y-160.147
X185.674Y-154.153
X185.979Y-152.4
X186.004Y-144.526
X186.055Y-106.045
X188.595Y-126.238
X188.894Y-159.01
X188.9Y-134.595
X189.738Y-130.683
X189.789Y-159.791
X189.814Y-137.16
X190.754Y-160.63
X190.779Y-143.51
X191.592Y-145.821
X191.592Y-161.442
X192.317Y-154.788
X192.329Y-142.367
X192.405Y-179.311
X193.065Y-177.521
X193.091Y-129.54
X193.091Y-153.441
X194.005Y-138.43
X194.081Y-152.603
X194.869Y-133.325
X194.894Y-151.816
X195.783Y-145.288
X195.809Y-151.003
X196.672Y-146.075
X196.672Y-150.216
X196.672Y-156.591
X196.977Y-159.004
X197.383Y-139.7
X198.615Y-176.403
X198.628Y-121.869
X199.39Y-128.295
X199.39Y-182.753
X200.533Y-127.
X200.685Y-167.894
X200.709Y-151.028
X201.434Y-150.19
X201.434Y-166.308
X202.159Y-149.377
X202.159Y-167.132
X202.87Y-169.621
X202.895Y-154.203
X203.708Y-155.829
X203.835Y-144.526
X203.835Y-150.216
X204.876Y-149.657
X204.902Y-135.814
X205.74Y-130.785
X205.943Y-146.964
X205.943Y-153.746
X206.172Y-155.016
X206.172Y-170.561
X206.756Y-152.324
X206.858Y-132.182
X207.137Y-157.404
X207.137Y-172.136
X207.95Y-171.348
X207.975Y-158.191
X209.22Y-141.351
X209.22Y-161.595
X210.109Y-140.614
X210.16Y-162.382
X211.201Y-149.657
X211.201Y-163.144
X211.303Y-146.075
X211.303Y-148.615
X212.039Y-138.455
X212.039Y-152.324
X212.039Y-163.881
X212.115Y-145.263
X212.115Y-151.155
X212.928Y-129.159
X212.928Y-164.719
X220.218Y-109.22
X220.675Y-135.179
X220.675Y-139.827
X221.437Y-127.025
X221.742Y-171.405
X222.733Y-134.163
X222.733Y-144.755
X226.339Y-191.465
X227.078Y-190.373
X227.598Y-188.9
X228.284Y-186.411
X228.854Y-185.09
X229.579Y-183.921
X230.302Y-182.956
X230.378Y-135.179
X232.334Y-188.152
X233.909Y-164.225
X235.026Y-127.051
X235.458Y-187.427
X235.483Y-169.316
X236.843Y-138.506
X237.515Y-172.339
X238.277Y-178.283
X238.341Y-125.806
X239.014Y-146.304
X242.976Y-116.967
X242.976Y-136.144
X243.916Y-141.046
X245.415Y-137.389
X246.38Y-149.987
X247.828Y-134.137
X247.853Y-139.852
X253.365Y-122.174
X255.524Y-147.447
X256.984Y-157.543
X260.629Y-188.9
X260.985Y-168.25
X261.087Y-153.06
X261.112Y-114.554
X262.433Y-133.426
X263.169Y-190.348
X264.224Y-158.75
X264.414Y-172.339
X265.684Y-191.516
X266.192Y-153.861
X267.03Y-129.057
X268.034Y-161.417
X268.224Y-171.405
X268.224Y-188.152
X271.082Y-164.225
X271.653Y-170.182
X272.224Y-148.837
X272.39Y-130.023
X273.431Y-152.146
X276.301Y-132.918
X276.987Y-168.275
X277.47Y-128.194
X280.975Y-144.932
X281.102Y-123.571
X282.372Y-117.221
X283.769Y-119.101
X285.369Y-124.892
X285.496Y-139.852
X288.747Y-126.467
X288.823Y-149.987
X291.084Y-159.995
X293.37Y-163.5
X302.971Y-136.347
X312.42Y-134.468
X329.045Y-142.989
X330.403Y-128.854
X331.851Y-124.892
X333.172Y-123.495
X334.585Y-87.33
X334.62Y-126.365
X335.94Y-127.457
X337.363Y-122.072
X339.979Y-127.457
X345.694Y-123.571
T2
X344.297Y-154.813
X351.917Y-154.813
X330.454Y-138.938
X332.994Y-136.398
X335.534Y-138.938
X251.13Y-132.232
X251.13Y-134.772
X251.13Y-137.312
X251.13Y-139.852
X251.13Y-142.392
X251.13Y-144.932
X251.13Y-147.472
X251.13Y-150.012
X251.13Y-152.552
X251.13Y-155.092
X258.75Y-132.232
X258.75Y-134.772
X258.75Y-137.312
X258.75Y-139.852
X258.75Y-142.392
X258.75Y-144.932
X258.75Y-147.472
X258.75Y-150.012
X258.75Y-152.552
X258.75Y-155.092
X199.39Y-96.266
X199.39Y-103.886
X248.92Y-111.76
X248.92Y-119.38
X330.454Y-149.987
X338.074Y-149.987
X238.76Y-111.76
X238.76Y-119.38
X255.27Y-166.116
X255.27Y-173.736
X330.454Y-154.686
X338.074Y-154.686
X217.17Y-99.06
X224.79Y-99.06
X315.722Y-170.688
X323.342Y-170.688
X140.081Y-113.03
X140.081Y-115.57
X140.081Y-118.11
X140.081Y-120.65
X140.081Y-123.19
X140.081Y-125.73
X140.081Y-128.27
X140.081Y-130.81
X140.081Y-133.35
X140.081Y-135.89
X147.701Y-113.03
X147.701Y-115.57
X147.701Y-118.11
X147.701Y-120.65
X147.701Y-123.19
X147.701Y-125.73
X147.701Y-128.27
X147.701Y-130.81
X147.701Y-133.35
X147.701Y-135.89
X315.722Y-158.242
X315.722Y-160.782
X315.722Y-163.322
X315.722Y-165.862
X323.342Y-158.242
X323.342Y-160.782
X323.342Y-163.322
X323.342Y-165.862
X365.252Y-144.78
X365.252Y-152.4
X159.131Y-86.36
X159.131Y-93.98
X383.032Y-150.876
X383.032Y-158.496
X269.748Y-166.116
X269.748Y-173.736
X240.538Y-166.116
X240.538Y-173.736
X365.252Y-155.956
X365.252Y-163.576
X298.45Y-89.535
X298.45Y-97.155
X274.066Y-117.856
X274.066Y-125.476
X306.07Y-160.02
X306.07Y-165.1
X308.61Y-162.56
X45.847Y-126.238
X53.467Y-126.238
X219.71Y-105.41
X222.25Y-105.41
X224.79Y-105.41
X128.27Y-149.504
X135.89Y-149.504
X277.05Y-166.116
X277.05Y-173.736
X212.09Y-96.52
X212.09Y-104.14
X280.606Y-166.116
X280.606Y-173.736
X186.69Y-96.52
X186.69Y-104.14
X35.852Y-158.28
X43.472Y-158.28
X205.74Y-96.52
X205.74Y-104.14
X168.656Y-96.266
X168.656Y-103.886
X224.917Y-87.63
X224.917Y-90.17
X227.457Y-87.63
X229.997Y-87.63
X232.537Y-87.63
X232.537Y-90.17
X224.79Y-137.16
X224.79Y-139.7
X224.79Y-142.24
X224.79Y-144.78
X224.79Y-147.32
X224.79Y-149.86
X224.79Y-152.4
X224.79Y-154.94
X232.41Y-137.16
X232.41Y-139.7
X232.41Y-142.24
X232.41Y-144.78
X232.41Y-147.32
X232.41Y-149.86
X232.41Y-152.4
X232.41Y-154.94
X163.957Y-86.36
X163.957Y-93.98
X122.428Y-113.03
X122.428Y-115.57
X122.428Y-118.11
X122.428Y-120.65
X122.428Y-123.19
X122.428Y-125.73
X122.428Y-128.27
X122.428Y-130.81
X122.428Y-133.35
X122.428Y-135.89
X130.048Y-113.03
X130.048Y-115.57
X130.048Y-118.11
X130.048Y-120.65
X130.048Y-123.19
X130.048Y-125.73
X130.048Y-128.27
X130.048Y-130.81
X130.048Y-133.35
X130.048Y-135.89
X175.006Y-96.266
X175.006Y-103.886
X342.138Y-132.08
X349.758Y-132.08
X248.92Y-105.41
X251.46Y-105.41
X254.Y-105.41
X156.21Y-113.03
X156.21Y-115.57
X156.21Y-118.11
X156.21Y-120.65
X156.21Y-123.19
X156.21Y-125.73
X156.21Y-128.27
X156.21Y-130.81
X156.21Y-133.35
X156.21Y-135.89
X163.83Y-113.03
X163.83Y-115.57
X163.83Y-118.11
X163.83Y-120.65
X163.83Y-123.19
X163.83Y-125.73
X163.83Y-128.27
X163.83Y-130.81
X163.83Y-133.35
X163.83Y-135.89
X369.316Y-149.352
X369.316Y-151.892
X369.316Y-154.432
X369.316Y-156.972
X376.936Y-149.352
X376.936Y-151.892
X376.936Y-154.432
X376.936Y-156.972
X35.852Y-166.916
X43.472Y-166.916
X105.41Y-139.7
X105.41Y-142.24
X105.41Y-144.78
X105.41Y-147.32
X105.41Y-149.86
X105.41Y-152.4
X105.41Y-154.94
X105.41Y-157.48
X105.41Y-160.02
X105.41Y-162.56
X105.41Y-165.1
X105.41Y-167.64
X105.41Y-170.18
X105.41Y-172.72
X105.41Y-175.26
X105.41Y-177.8
X120.65Y-139.7
X120.65Y-142.24
X120.65Y-144.78
X120.65Y-147.32
X120.65Y-149.86
X120.65Y-152.4
X120.65Y-154.94
X120.65Y-157.48
X120.65Y-160.02
X120.65Y-162.56
X120.65Y-165.1
X120.65Y-167.64
X120.65Y-170.18
X120.65Y-172.72
X120.65Y-175.26
X120.65Y-177.8
X229.87Y-105.41
X232.41Y-105.41
X234.95Y-105.41
X243.459Y-87.63
X243.459Y-90.17
X245.999Y-87.63
X248.539Y-87.63
X251.079Y-87.63
X251.079Y-90.17
X264.16Y-117.856
X264.16Y-125.476
X51.854Y-154.978
X51.854Y-157.518
X51.854Y-160.058
X51.854Y-162.598
X51.854Y-165.138
X51.854Y-167.678
X51.854Y-170.218
X51.854Y-172.758
X51.854Y-175.298
X51.854Y-177.838
X59.474Y-154.978
X59.474Y-157.518
X59.474Y-160.058
X59.474Y-162.598
X59.474Y-165.138
X59.474Y-167.678
X59.474Y-170.218
X59.474Y-172.758
X59.474Y-175.298
X59.474Y-177.838
X394.462Y-150.876
X394.462Y-158.496
X344.65Y-138.98
X347.19Y-136.44
X349.73Y-138.98
X156.337Y-97.536
X163.957Y-97.536
X235.458Y-166.116
X235.458Y-173.736
X238.76Y-105.41
X241.3Y-105.41
X243.84Y-105.41
X330.327Y-159.639
X337.947Y-159.639
X64.77Y-113.03
X64.77Y-128.27
X67.31Y-113.03
X67.31Y-128.27
X69.85Y-113.03
X69.85Y-128.27
X72.39Y-113.03
X72.39Y-128.27
X74.93Y-113.03
X74.93Y-128.27
X77.47Y-113.03
X77.47Y-128.27
X80.01Y-113.03
X80.01Y-128.27
X82.55Y-113.03
X82.55Y-128.27
X85.09Y-113.03
X85.09Y-128.27
X87.63Y-113.03
X87.63Y-128.27
X90.17Y-113.03
X90.17Y-128.27
X92.71Y-113.03
X92.71Y-128.27
X95.25Y-113.03
X95.25Y-128.27
X97.79Y-113.03
X97.79Y-128.27
X100.33Y-113.03
X100.33Y-128.27
X102.87Y-113.03
X102.87Y-128.27
X105.41Y-113.03
X105.41Y-128.27
X107.95Y-113.03
X107.95Y-128.27
X110.49Y-113.03
X110.49Y-128.27
X113.03Y-113.03
X113.03Y-128.27
X262.636Y-166.116
X262.636Y-173.736
X369.824Y-127.254
X369.824Y-134.874
X344.297Y-149.987
X351.917Y-149.987
X222.504Y-111.76
X222.504Y-119.38
X229.87Y-111.76
X229.87Y-119.38
X227.33Y-99.06
X234.95Y-99.06
X247.65Y-166.116
X247.65Y-173.736
X237.49Y-99.06
X245.11Y-99.06
X388.62Y-150.876
X388.62Y-158.496
X359.41Y-155.956
X359.41Y-163.576
X168.656Y-86.36
X168.656Y-93.98
X247.65Y-99.06
X255.27Y-99.06
X369.316Y-162.56
X376.936Y-162.56
X86.36Y-154.94
X86.36Y-157.48
X86.36Y-160.02
X86.36Y-162.56
X86.36Y-165.1
X86.36Y-167.64
X86.36Y-170.18
X86.36Y-172.72
X86.36Y-175.26
X86.36Y-177.8
X93.98Y-154.94
X93.98Y-157.48
X93.98Y-160.02
X93.98Y-162.56
X93.98Y-165.1
X93.98Y-167.64
X93.98Y-170.18
X93.98Y-172.72
X93.98Y-175.26
X93.98Y-177.8
X284.416Y-166.116
X284.416Y-173.736
X292.227Y-89.408
X292.227Y-97.028
X180.34Y-96.52
X180.34Y-104.14
X193.04Y-96.266
X193.04Y-103.886
X45.847Y-130.429
X53.467Y-130.429
X279.146Y-117.856
X279.146Y-125.476
X327.914Y-132.08
X335.534Y-132.08
X291.084Y-137.922
X291.084Y-140.462
X291.084Y-143.002
X291.084Y-145.542
X298.704Y-137.922
X298.704Y-140.462
X298.704Y-143.002
X298.704Y-145.542
X35.934Y-162.598
X43.554Y-162.598
X288.417Y-166.116
X288.417Y-173.736
X364.744Y-127.254
X364.744Y-134.874
X269.24Y-117.856
X269.24Y-125.476
T3
X289.687Y-85.09
X292.227Y-85.09
X266.192Y-166.179
X266.192Y-173.799
X273.431Y-166.243
X273.431Y-173.863
X243.967Y-166.116
X243.967Y-173.736
X146.05Y-154.94
X146.05Y-157.48
X146.05Y-160.02
X146.05Y-162.56
X146.05Y-165.1
X148.59Y-152.4
X148.59Y-154.94
X148.59Y-157.48
X148.59Y-160.02
X148.59Y-162.56
X148.59Y-165.1
X148.59Y-167.64
X151.13Y-152.4
X151.13Y-154.94
X151.13Y-165.1
X151.13Y-167.64
X153.67Y-152.4
X153.67Y-154.94
X153.67Y-165.1
X153.67Y-167.64
X156.21Y-152.4
X156.21Y-154.94
X156.21Y-157.48
X156.21Y-160.02
X156.21Y-162.56
X156.21Y-165.1
X156.21Y-167.64
X158.75Y-154.94
X158.75Y-154.94
X158.75Y-157.48
X158.75Y-160.02
X158.75Y-162.56
X158.75Y-165.1
X295.91Y-85.09
X298.45Y-85.09
X251.587Y-166.052
X251.587Y-173.672
X259.017Y-166.116
X259.017Y-173.736
T4
X293.37Y-171.196
X293.37Y-173.736
X388.112Y-115.316
X393.112Y-115.316
X291.338Y-131.826
X298.838Y-131.826
X224.91Y-130.81
X232.41Y-130.81
X267.582Y-113.792
X275.082Y-113.792
X164.846Y-184.15
X164.846Y-186.69
X128.27Y-144.78
X130.81Y-144.78
X133.35Y-144.78
X327.66Y-90.17
X329.045Y-87.33
X330.43Y-90.17
X331.815Y-87.33
X333.2Y-90.17
X334.585Y-87.33
X335.97Y-90.17
X337.355Y-87.33
X338.74Y-90.17
X340.125Y-87.33
X341.51Y-90.17
X342.895Y-87.33
X344.28Y-90.17
X345.665Y-87.33
X347.05Y-90.17
X315.842Y-145.796
X323.342Y-145.796
X159.258Y-181.864
X159.258Y-189.364
X379.476Y-128.524
X379.476Y-131.064
X379.476Y-133.604
X315.588Y-132.08
X323.088Y-132.08
X357.378Y-127.254
X357.378Y-134.754
X107.95Y-134.62
X115.45Y-134.62
X306.578Y-145.796
X309.118Y-145.796
X183.159Y-154.019
X183.159Y-161.519
X388.366Y-103.632
X390.906Y-103.632
X393.446Y-103.632
X390.652Y-128.524
X390.652Y-136.024
X172.72Y-121.92
X172.72Y-124.46
X172.72Y-127.
X172.72Y-129.54
X172.72Y-132.08
X172.72Y-134.62
X172.72Y-137.16
X172.72Y-139.7
X172.72Y-142.24
X172.72Y-144.78
X172.72Y-147.32
X172.72Y-149.86
X172.72Y-152.4
X172.72Y-154.94
X172.72Y-157.48
X172.72Y-160.02
X172.72Y-162.56
X172.72Y-165.1
X172.72Y-167.64
X172.72Y-170.18
X175.26Y-121.92
X175.26Y-124.46
X175.26Y-127.
X175.26Y-129.54
X175.26Y-132.08
X175.26Y-134.62
X175.26Y-137.16
X175.26Y-139.7
X175.26Y-142.24
X175.26Y-144.78
X175.26Y-147.32
X175.26Y-149.86
X175.26Y-152.4
X175.26Y-154.94
X175.26Y-157.48
X175.26Y-160.02
X175.26Y-162.56
X175.26Y-165.1
X175.26Y-167.64
X175.26Y-170.18
X179.73Y-112.99
X179.73Y-115.53
X182.27Y-112.99
X182.27Y-115.53
X184.81Y-112.99
X184.81Y-115.53
X187.35Y-112.99
X187.35Y-115.53
X189.89Y-112.99
X189.89Y-115.53
X192.43Y-112.99
X192.43Y-115.53
X216.01Y-121.93
X216.01Y-124.47
X216.01Y-127.01
X216.01Y-129.55
X216.01Y-132.09
X216.01Y-134.63
X216.01Y-137.17
X216.01Y-139.71
X216.01Y-142.25
X216.01Y-144.79
X216.01Y-147.33
X216.01Y-149.87
X216.01Y-152.41
X216.01Y-154.95
X216.01Y-157.49
X216.01Y-160.03
X216.01Y-162.57
X216.01Y-165.11
X216.01Y-167.65
X216.01Y-170.19
X218.55Y-121.93
X218.55Y-124.47
X218.55Y-127.01
X218.55Y-129.55
X218.55Y-132.09
X218.55Y-134.63
X218.55Y-137.17
X218.55Y-139.71
X218.55Y-142.25
X218.55Y-144.79
X218.55Y-147.33
X218.55Y-149.87
X218.55Y-152.41
X218.55Y-154.95
X218.55Y-157.49
X218.55Y-160.03
X218.55Y-162.57
X218.55Y-165.11
X218.55Y-167.65
X218.55Y-170.19
X344.297Y-160.02
X346.837Y-160.02
X51.931Y-148.671
X59.431Y-148.671
X204.216Y-152.4
X204.216Y-159.9
X105.41Y-184.15
X105.41Y-186.69
X107.95Y-184.15
X107.95Y-186.69
X110.49Y-184.15
X110.49Y-186.69
X113.03Y-184.15
X113.03Y-186.69
X115.57Y-184.15
X115.57Y-186.69
X118.11Y-184.15
X118.11Y-186.69
X120.65Y-184.15
X120.65Y-186.69
X123.19Y-184.15
X123.19Y-186.69
X125.73Y-184.15
X125.73Y-186.69
X128.27Y-184.15
X128.27Y-186.69
X130.81Y-184.15
X130.81Y-186.69
X133.35Y-184.15
X133.35Y-186.69
X135.89Y-184.15
X135.89Y-186.69
X138.43Y-184.15
X138.43Y-186.69
X140.97Y-184.15
X140.97Y-186.69
X143.51Y-184.15
X143.51Y-186.69
X146.05Y-184.15
X146.05Y-186.69
X148.59Y-184.15
X148.59Y-186.69
X151.13Y-184.15
X151.13Y-186.69
X153.67Y-184.15
X153.67Y-186.69
X331.724Y-165.862
X331.724Y-170.862
X66.548Y-94.742
X66.548Y-97.282
X69.088Y-94.742
X69.088Y-97.282
X71.628Y-94.742
X71.628Y-97.282
X74.168Y-94.742
X74.168Y-97.282
X76.708Y-94.742
X76.708Y-97.282
X79.248Y-94.742
X79.248Y-97.282
X81.788Y-94.742
X81.788Y-97.282
X84.328Y-94.742
X84.328Y-97.282
X86.868Y-94.742
X86.868Y-97.282
X89.408Y-94.742
X89.408Y-97.282
X91.948Y-94.742
X91.948Y-97.282
X94.488Y-94.742
X94.488Y-97.282
X97.028Y-94.742
X97.028Y-97.282
X99.568Y-94.742
X99.568Y-97.282
X102.108Y-94.742
X102.108Y-97.282
X104.648Y-94.742
X104.648Y-97.282
X107.188Y-94.742
X107.188Y-97.282
X109.728Y-94.742
X109.728Y-97.282
X112.268Y-94.742
X112.268Y-97.282
X114.808Y-94.742
X114.808Y-97.282
X117.348Y-94.742
X117.348Y-97.282
X119.888Y-94.742
X119.888Y-97.282
X122.428Y-94.742
X122.428Y-97.282
X124.968Y-94.742
X124.968Y-97.282
X127.508Y-94.742
X127.508Y-97.282
X130.048Y-94.742
X130.048Y-97.282
X132.588Y-94.742
X132.588Y-97.282
X135.128Y-94.742
X135.128Y-97.282
X137.668Y-94.742
X137.668Y-97.282
X140.208Y-94.742
X140.208Y-97.282
X142.748Y-94.742
X142.748Y-97.282
X145.288Y-94.742
X145.288Y-97.282
X376.936Y-128.524
X376.936Y-131.064
X376.936Y-133.604
X375.412Y-115.316
X380.412Y-115.316
X251.224Y-125.476
X258.724Y-125.476
X315.842Y-152.146
X323.342Y-152.146
X66.548Y-86.106
X66.548Y-88.646
X69.088Y-86.106
X69.088Y-88.646
X71.628Y-86.106
X71.628Y-88.646
X74.168Y-86.106
X74.168Y-88.646
X76.708Y-86.106
X76.708Y-88.646
X79.248Y-86.106
X79.248Y-88.646
X81.788Y-86.106
X81.788Y-88.646
X84.328Y-86.106
X84.328Y-88.646
X86.868Y-86.106
X86.868Y-88.646
X89.408Y-86.106
X89.408Y-88.646
X91.948Y-86.106
X91.948Y-88.646
X94.488Y-86.106
X94.488Y-88.646
X97.028Y-86.106
X97.028Y-88.646
X99.568Y-86.106
X99.568Y-88.646
X102.108Y-86.106
X102.108Y-88.646
X104.648Y-86.106
X104.648Y-88.646
X107.188Y-86.106
X107.188Y-88.646
X109.728Y-86.106
X109.728Y-88.646
X112.268Y-86.106
X112.268Y-88.646
X114.808Y-86.106
X114.808Y-88.646
X117.348Y-86.106
X117.348Y-88.646
X119.888Y-86.106
X119.888Y-88.646
X122.428Y-86.106
X122.428Y-88.646
X124.968Y-86.106
X124.968Y-88.646
X127.508Y-86.106
X127.508Y-88.646
X130.048Y-86.106
X130.048Y-88.646
X132.588Y-86.106
X132.588Y-88.646
X135.128Y-86.106
X135.128Y-88.646
X137.668Y-86.106
X137.668Y-88.646
X140.208Y-86.106
X140.208Y-88.646
X142.748Y-86.106
X142.748Y-88.646
X145.288Y-86.106
X145.288Y-88.646
X344.424Y-165.862
X344.424Y-170.862
X369.436Y-142.24
X376.936Y-142.24
X140.201Y-107.95
X147.701Y-107.95
X306.578Y-132.08
X309.118Y-132.08
X359.41Y-144.392
X359.41Y-151.892
X59.2Y-116.52
X59.2Y-124.02
X250.444Y-180.34
X250.444Y-182.88
X252.984Y-180.34
X252.984Y-182.88
X255.524Y-180.34
X255.524Y-182.88
X258.064Y-180.34
X258.064Y-182.88
X260.604Y-180.34
X260.604Y-182.88
X263.144Y-180.34
X263.144Y-182.88
X265.684Y-180.34
X265.684Y-182.88
X268.224Y-180.34
X268.224Y-182.88
X270.764Y-180.34
X270.764Y-182.88
X273.304Y-180.34
X273.304Y-182.88
X275.844Y-180.34
X275.844Y-182.88
X278.384Y-180.34
X278.384Y-182.88
X280.924Y-180.34
X280.924Y-182.88
X139.713Y-149.476
X139.713Y-156.976
X315.842Y-138.938
X323.342Y-138.938
X122.548Y-107.925
X130.048Y-107.925
X283.82Y-142.24
X283.82Y-144.78
X283.82Y-147.32
X86.48Y-148.59
X93.98Y-148.59
X156.432Y-108.001
X163.932Y-108.001
X362.094Y-171.196
X367.094Y-171.196
T5
X179.146Y-147.371
X179.146Y-157.531
X208.178Y-124.511
X208.178Y-134.671
T6
X181.61Y-85.344
X182.626Y-82.804
X182.634Y-87.782
X183.896Y-85.344
X184.912Y-82.804
X184.925Y-87.782
X186.182Y-85.344
X187.198Y-82.804
X187.211Y-87.782
X188.468Y-85.344
X189.484Y-82.804
X189.504Y-87.782
X190.754Y-85.344
X191.77Y-82.804
X191.793Y-87.782
T7
X222.377Y-85.09
X228.727Y-83.82
X235.077Y-85.09
X240.919Y-85.09
X247.269Y-83.82
X253.619Y-85.09
T8
X174.45Y-85.783
X199.438Y-85.783
T9
X320.705Y-89.87
X354.005Y-89.87
T2
X302.895Y-88.115G85X302.895Y-88.415
G05
X304.8Y-88.115G85X304.8Y-88.415
G05
X307.19Y-83.185G85X307.49Y-83.185
G05
X310.515Y-88.115G85X310.515Y-88.415
G05
X312.42Y-88.115G85X312.42Y-88.415
G05
T4
X361.06Y-87.44G85X361.06Y-89.44
G05
X366.76Y-85.44G85X364.76Y-85.44
G05
X366.76Y-91.44G85X364.76Y-91.44
G05
T0
M30
