G04 #@! TF.GenerationSoftware,KiCad,Pcbnew,(5.0.2-5)-5*
G04 #@! TF.CreationDate,2019-10-07T20:46:20+02:00*
G04 #@! TF.ProjectId,FPGAtom,46504741-746f-46d2-9e6b-696361645f70,1.3*
G04 #@! TF.SameCoordinates,Original*
G04 #@! TF.FileFunction,Paste,Bot*
G04 #@! TF.FilePolarity,Positive*
%FSLAX46Y46*%
G04 Gerber Fmt 4.6, Leading zero omitted, Abs format (unit mm)*
G04 Created by KiCad (PCBNEW (5.0.2-5)-5) date Monday, 07 October 2019 at 20:46:20*
%MOMM*%
%LPD*%
G01*
G04 APERTURE LIST*
%ADD10C,0.100000*%
%ADD11C,0.550000*%
G04 APERTURE END LIST*
D10*
G04 #@! TO.C,U1*
G36*
X188090977Y-147535662D02*
X188104325Y-147537642D01*
X188117414Y-147540921D01*
X188130119Y-147545467D01*
X188142317Y-147551236D01*
X188153891Y-147558173D01*
X188164729Y-147566211D01*
X188174727Y-147575273D01*
X188183789Y-147585271D01*
X188191827Y-147596109D01*
X188198764Y-147607683D01*
X188204533Y-147619881D01*
X188209079Y-147632586D01*
X188212358Y-147645675D01*
X188214338Y-147659023D01*
X188215000Y-147672500D01*
X188215000Y-147947500D01*
X188214338Y-147960977D01*
X188212358Y-147974325D01*
X188209079Y-147987414D01*
X188204533Y-148000119D01*
X188198764Y-148012317D01*
X188191827Y-148023891D01*
X188183789Y-148034729D01*
X188174727Y-148044727D01*
X188164729Y-148053789D01*
X188153891Y-148061827D01*
X188142317Y-148068764D01*
X188130119Y-148074533D01*
X188117414Y-148079079D01*
X188104325Y-148082358D01*
X188090977Y-148084338D01*
X188077500Y-148085000D01*
X186827500Y-148085000D01*
X186814023Y-148084338D01*
X186800675Y-148082358D01*
X186787586Y-148079079D01*
X186774881Y-148074533D01*
X186762683Y-148068764D01*
X186751109Y-148061827D01*
X186740271Y-148053789D01*
X186730273Y-148044727D01*
X186721211Y-148034729D01*
X186713173Y-148023891D01*
X186706236Y-148012317D01*
X186700467Y-148000119D01*
X186695921Y-147987414D01*
X186692642Y-147974325D01*
X186690662Y-147960977D01*
X186690000Y-147947500D01*
X186690000Y-147672500D01*
X186690662Y-147659023D01*
X186692642Y-147645675D01*
X186695921Y-147632586D01*
X186700467Y-147619881D01*
X186706236Y-147607683D01*
X186713173Y-147596109D01*
X186721211Y-147585271D01*
X186730273Y-147575273D01*
X186740271Y-147566211D01*
X186751109Y-147558173D01*
X186762683Y-147551236D01*
X186774881Y-147545467D01*
X186787586Y-147540921D01*
X186800675Y-147537642D01*
X186814023Y-147535662D01*
X186827500Y-147535000D01*
X188077500Y-147535000D01*
X188090977Y-147535662D01*
X188090977Y-147535662D01*
G37*
D11*
X187452500Y-147810000D03*
D10*
G36*
X188090977Y-148335662D02*
X188104325Y-148337642D01*
X188117414Y-148340921D01*
X188130119Y-148345467D01*
X188142317Y-148351236D01*
X188153891Y-148358173D01*
X188164729Y-148366211D01*
X188174727Y-148375273D01*
X188183789Y-148385271D01*
X188191827Y-148396109D01*
X188198764Y-148407683D01*
X188204533Y-148419881D01*
X188209079Y-148432586D01*
X188212358Y-148445675D01*
X188214338Y-148459023D01*
X188215000Y-148472500D01*
X188215000Y-148747500D01*
X188214338Y-148760977D01*
X188212358Y-148774325D01*
X188209079Y-148787414D01*
X188204533Y-148800119D01*
X188198764Y-148812317D01*
X188191827Y-148823891D01*
X188183789Y-148834729D01*
X188174727Y-148844727D01*
X188164729Y-148853789D01*
X188153891Y-148861827D01*
X188142317Y-148868764D01*
X188130119Y-148874533D01*
X188117414Y-148879079D01*
X188104325Y-148882358D01*
X188090977Y-148884338D01*
X188077500Y-148885000D01*
X186827500Y-148885000D01*
X186814023Y-148884338D01*
X186800675Y-148882358D01*
X186787586Y-148879079D01*
X186774881Y-148874533D01*
X186762683Y-148868764D01*
X186751109Y-148861827D01*
X186740271Y-148853789D01*
X186730273Y-148844727D01*
X186721211Y-148834729D01*
X186713173Y-148823891D01*
X186706236Y-148812317D01*
X186700467Y-148800119D01*
X186695921Y-148787414D01*
X186692642Y-148774325D01*
X186690662Y-148760977D01*
X186690000Y-148747500D01*
X186690000Y-148472500D01*
X186690662Y-148459023D01*
X186692642Y-148445675D01*
X186695921Y-148432586D01*
X186700467Y-148419881D01*
X186706236Y-148407683D01*
X186713173Y-148396109D01*
X186721211Y-148385271D01*
X186730273Y-148375273D01*
X186740271Y-148366211D01*
X186751109Y-148358173D01*
X186762683Y-148351236D01*
X186774881Y-148345467D01*
X186787586Y-148340921D01*
X186800675Y-148337642D01*
X186814023Y-148335662D01*
X186827500Y-148335000D01*
X188077500Y-148335000D01*
X188090977Y-148335662D01*
X188090977Y-148335662D01*
G37*
D11*
X187452500Y-148610000D03*
D10*
G36*
X188090977Y-149135662D02*
X188104325Y-149137642D01*
X188117414Y-149140921D01*
X188130119Y-149145467D01*
X188142317Y-149151236D01*
X188153891Y-149158173D01*
X188164729Y-149166211D01*
X188174727Y-149175273D01*
X188183789Y-149185271D01*
X188191827Y-149196109D01*
X188198764Y-149207683D01*
X188204533Y-149219881D01*
X188209079Y-149232586D01*
X188212358Y-149245675D01*
X188214338Y-149259023D01*
X188215000Y-149272500D01*
X188215000Y-149547500D01*
X188214338Y-149560977D01*
X188212358Y-149574325D01*
X188209079Y-149587414D01*
X188204533Y-149600119D01*
X188198764Y-149612317D01*
X188191827Y-149623891D01*
X188183789Y-149634729D01*
X188174727Y-149644727D01*
X188164729Y-149653789D01*
X188153891Y-149661827D01*
X188142317Y-149668764D01*
X188130119Y-149674533D01*
X188117414Y-149679079D01*
X188104325Y-149682358D01*
X188090977Y-149684338D01*
X188077500Y-149685000D01*
X186827500Y-149685000D01*
X186814023Y-149684338D01*
X186800675Y-149682358D01*
X186787586Y-149679079D01*
X186774881Y-149674533D01*
X186762683Y-149668764D01*
X186751109Y-149661827D01*
X186740271Y-149653789D01*
X186730273Y-149644727D01*
X186721211Y-149634729D01*
X186713173Y-149623891D01*
X186706236Y-149612317D01*
X186700467Y-149600119D01*
X186695921Y-149587414D01*
X186692642Y-149574325D01*
X186690662Y-149560977D01*
X186690000Y-149547500D01*
X186690000Y-149272500D01*
X186690662Y-149259023D01*
X186692642Y-149245675D01*
X186695921Y-149232586D01*
X186700467Y-149219881D01*
X186706236Y-149207683D01*
X186713173Y-149196109D01*
X186721211Y-149185271D01*
X186730273Y-149175273D01*
X186740271Y-149166211D01*
X186751109Y-149158173D01*
X186762683Y-149151236D01*
X186774881Y-149145467D01*
X186787586Y-149140921D01*
X186800675Y-149137642D01*
X186814023Y-149135662D01*
X186827500Y-149135000D01*
X188077500Y-149135000D01*
X188090977Y-149135662D01*
X188090977Y-149135662D01*
G37*
D11*
X187452500Y-149410000D03*
D10*
G36*
X188090977Y-149935662D02*
X188104325Y-149937642D01*
X188117414Y-149940921D01*
X188130119Y-149945467D01*
X188142317Y-149951236D01*
X188153891Y-149958173D01*
X188164729Y-149966211D01*
X188174727Y-149975273D01*
X188183789Y-149985271D01*
X188191827Y-149996109D01*
X188198764Y-150007683D01*
X188204533Y-150019881D01*
X188209079Y-150032586D01*
X188212358Y-150045675D01*
X188214338Y-150059023D01*
X188215000Y-150072500D01*
X188215000Y-150347500D01*
X188214338Y-150360977D01*
X188212358Y-150374325D01*
X188209079Y-150387414D01*
X188204533Y-150400119D01*
X188198764Y-150412317D01*
X188191827Y-150423891D01*
X188183789Y-150434729D01*
X188174727Y-150444727D01*
X188164729Y-150453789D01*
X188153891Y-150461827D01*
X188142317Y-150468764D01*
X188130119Y-150474533D01*
X188117414Y-150479079D01*
X188104325Y-150482358D01*
X188090977Y-150484338D01*
X188077500Y-150485000D01*
X186827500Y-150485000D01*
X186814023Y-150484338D01*
X186800675Y-150482358D01*
X186787586Y-150479079D01*
X186774881Y-150474533D01*
X186762683Y-150468764D01*
X186751109Y-150461827D01*
X186740271Y-150453789D01*
X186730273Y-150444727D01*
X186721211Y-150434729D01*
X186713173Y-150423891D01*
X186706236Y-150412317D01*
X186700467Y-150400119D01*
X186695921Y-150387414D01*
X186692642Y-150374325D01*
X186690662Y-150360977D01*
X186690000Y-150347500D01*
X186690000Y-150072500D01*
X186690662Y-150059023D01*
X186692642Y-150045675D01*
X186695921Y-150032586D01*
X186700467Y-150019881D01*
X186706236Y-150007683D01*
X186713173Y-149996109D01*
X186721211Y-149985271D01*
X186730273Y-149975273D01*
X186740271Y-149966211D01*
X186751109Y-149958173D01*
X186762683Y-149951236D01*
X186774881Y-149945467D01*
X186787586Y-149940921D01*
X186800675Y-149937642D01*
X186814023Y-149935662D01*
X186827500Y-149935000D01*
X188077500Y-149935000D01*
X188090977Y-149935662D01*
X188090977Y-149935662D01*
G37*
D11*
X187452500Y-150210000D03*
D10*
G36*
X188090977Y-150735662D02*
X188104325Y-150737642D01*
X188117414Y-150740921D01*
X188130119Y-150745467D01*
X188142317Y-150751236D01*
X188153891Y-150758173D01*
X188164729Y-150766211D01*
X188174727Y-150775273D01*
X188183789Y-150785271D01*
X188191827Y-150796109D01*
X188198764Y-150807683D01*
X188204533Y-150819881D01*
X188209079Y-150832586D01*
X188212358Y-150845675D01*
X188214338Y-150859023D01*
X188215000Y-150872500D01*
X188215000Y-151147500D01*
X188214338Y-151160977D01*
X188212358Y-151174325D01*
X188209079Y-151187414D01*
X188204533Y-151200119D01*
X188198764Y-151212317D01*
X188191827Y-151223891D01*
X188183789Y-151234729D01*
X188174727Y-151244727D01*
X188164729Y-151253789D01*
X188153891Y-151261827D01*
X188142317Y-151268764D01*
X188130119Y-151274533D01*
X188117414Y-151279079D01*
X188104325Y-151282358D01*
X188090977Y-151284338D01*
X188077500Y-151285000D01*
X186827500Y-151285000D01*
X186814023Y-151284338D01*
X186800675Y-151282358D01*
X186787586Y-151279079D01*
X186774881Y-151274533D01*
X186762683Y-151268764D01*
X186751109Y-151261827D01*
X186740271Y-151253789D01*
X186730273Y-151244727D01*
X186721211Y-151234729D01*
X186713173Y-151223891D01*
X186706236Y-151212317D01*
X186700467Y-151200119D01*
X186695921Y-151187414D01*
X186692642Y-151174325D01*
X186690662Y-151160977D01*
X186690000Y-151147500D01*
X186690000Y-150872500D01*
X186690662Y-150859023D01*
X186692642Y-150845675D01*
X186695921Y-150832586D01*
X186700467Y-150819881D01*
X186706236Y-150807683D01*
X186713173Y-150796109D01*
X186721211Y-150785271D01*
X186730273Y-150775273D01*
X186740271Y-150766211D01*
X186751109Y-150758173D01*
X186762683Y-150751236D01*
X186774881Y-150745467D01*
X186787586Y-150740921D01*
X186800675Y-150737642D01*
X186814023Y-150735662D01*
X186827500Y-150735000D01*
X188077500Y-150735000D01*
X188090977Y-150735662D01*
X188090977Y-150735662D01*
G37*
D11*
X187452500Y-151010000D03*
D10*
G36*
X188090977Y-151535662D02*
X188104325Y-151537642D01*
X188117414Y-151540921D01*
X188130119Y-151545467D01*
X188142317Y-151551236D01*
X188153891Y-151558173D01*
X188164729Y-151566211D01*
X188174727Y-151575273D01*
X188183789Y-151585271D01*
X188191827Y-151596109D01*
X188198764Y-151607683D01*
X188204533Y-151619881D01*
X188209079Y-151632586D01*
X188212358Y-151645675D01*
X188214338Y-151659023D01*
X188215000Y-151672500D01*
X188215000Y-151947500D01*
X188214338Y-151960977D01*
X188212358Y-151974325D01*
X188209079Y-151987414D01*
X188204533Y-152000119D01*
X188198764Y-152012317D01*
X188191827Y-152023891D01*
X188183789Y-152034729D01*
X188174727Y-152044727D01*
X188164729Y-152053789D01*
X188153891Y-152061827D01*
X188142317Y-152068764D01*
X188130119Y-152074533D01*
X188117414Y-152079079D01*
X188104325Y-152082358D01*
X188090977Y-152084338D01*
X188077500Y-152085000D01*
X186827500Y-152085000D01*
X186814023Y-152084338D01*
X186800675Y-152082358D01*
X186787586Y-152079079D01*
X186774881Y-152074533D01*
X186762683Y-152068764D01*
X186751109Y-152061827D01*
X186740271Y-152053789D01*
X186730273Y-152044727D01*
X186721211Y-152034729D01*
X186713173Y-152023891D01*
X186706236Y-152012317D01*
X186700467Y-152000119D01*
X186695921Y-151987414D01*
X186692642Y-151974325D01*
X186690662Y-151960977D01*
X186690000Y-151947500D01*
X186690000Y-151672500D01*
X186690662Y-151659023D01*
X186692642Y-151645675D01*
X186695921Y-151632586D01*
X186700467Y-151619881D01*
X186706236Y-151607683D01*
X186713173Y-151596109D01*
X186721211Y-151585271D01*
X186730273Y-151575273D01*
X186740271Y-151566211D01*
X186751109Y-151558173D01*
X186762683Y-151551236D01*
X186774881Y-151545467D01*
X186787586Y-151540921D01*
X186800675Y-151537642D01*
X186814023Y-151535662D01*
X186827500Y-151535000D01*
X188077500Y-151535000D01*
X188090977Y-151535662D01*
X188090977Y-151535662D01*
G37*
D11*
X187452500Y-151810000D03*
D10*
G36*
X188090977Y-152335662D02*
X188104325Y-152337642D01*
X188117414Y-152340921D01*
X188130119Y-152345467D01*
X188142317Y-152351236D01*
X188153891Y-152358173D01*
X188164729Y-152366211D01*
X188174727Y-152375273D01*
X188183789Y-152385271D01*
X188191827Y-152396109D01*
X188198764Y-152407683D01*
X188204533Y-152419881D01*
X188209079Y-152432586D01*
X188212358Y-152445675D01*
X188214338Y-152459023D01*
X188215000Y-152472500D01*
X188215000Y-152747500D01*
X188214338Y-152760977D01*
X188212358Y-152774325D01*
X188209079Y-152787414D01*
X188204533Y-152800119D01*
X188198764Y-152812317D01*
X188191827Y-152823891D01*
X188183789Y-152834729D01*
X188174727Y-152844727D01*
X188164729Y-152853789D01*
X188153891Y-152861827D01*
X188142317Y-152868764D01*
X188130119Y-152874533D01*
X188117414Y-152879079D01*
X188104325Y-152882358D01*
X188090977Y-152884338D01*
X188077500Y-152885000D01*
X186827500Y-152885000D01*
X186814023Y-152884338D01*
X186800675Y-152882358D01*
X186787586Y-152879079D01*
X186774881Y-152874533D01*
X186762683Y-152868764D01*
X186751109Y-152861827D01*
X186740271Y-152853789D01*
X186730273Y-152844727D01*
X186721211Y-152834729D01*
X186713173Y-152823891D01*
X186706236Y-152812317D01*
X186700467Y-152800119D01*
X186695921Y-152787414D01*
X186692642Y-152774325D01*
X186690662Y-152760977D01*
X186690000Y-152747500D01*
X186690000Y-152472500D01*
X186690662Y-152459023D01*
X186692642Y-152445675D01*
X186695921Y-152432586D01*
X186700467Y-152419881D01*
X186706236Y-152407683D01*
X186713173Y-152396109D01*
X186721211Y-152385271D01*
X186730273Y-152375273D01*
X186740271Y-152366211D01*
X186751109Y-152358173D01*
X186762683Y-152351236D01*
X186774881Y-152345467D01*
X186787586Y-152340921D01*
X186800675Y-152337642D01*
X186814023Y-152335662D01*
X186827500Y-152335000D01*
X188077500Y-152335000D01*
X188090977Y-152335662D01*
X188090977Y-152335662D01*
G37*
D11*
X187452500Y-152610000D03*
D10*
G36*
X188090977Y-153135662D02*
X188104325Y-153137642D01*
X188117414Y-153140921D01*
X188130119Y-153145467D01*
X188142317Y-153151236D01*
X188153891Y-153158173D01*
X188164729Y-153166211D01*
X188174727Y-153175273D01*
X188183789Y-153185271D01*
X188191827Y-153196109D01*
X188198764Y-153207683D01*
X188204533Y-153219881D01*
X188209079Y-153232586D01*
X188212358Y-153245675D01*
X188214338Y-153259023D01*
X188215000Y-153272500D01*
X188215000Y-153547500D01*
X188214338Y-153560977D01*
X188212358Y-153574325D01*
X188209079Y-153587414D01*
X188204533Y-153600119D01*
X188198764Y-153612317D01*
X188191827Y-153623891D01*
X188183789Y-153634729D01*
X188174727Y-153644727D01*
X188164729Y-153653789D01*
X188153891Y-153661827D01*
X188142317Y-153668764D01*
X188130119Y-153674533D01*
X188117414Y-153679079D01*
X188104325Y-153682358D01*
X188090977Y-153684338D01*
X188077500Y-153685000D01*
X186827500Y-153685000D01*
X186814023Y-153684338D01*
X186800675Y-153682358D01*
X186787586Y-153679079D01*
X186774881Y-153674533D01*
X186762683Y-153668764D01*
X186751109Y-153661827D01*
X186740271Y-153653789D01*
X186730273Y-153644727D01*
X186721211Y-153634729D01*
X186713173Y-153623891D01*
X186706236Y-153612317D01*
X186700467Y-153600119D01*
X186695921Y-153587414D01*
X186692642Y-153574325D01*
X186690662Y-153560977D01*
X186690000Y-153547500D01*
X186690000Y-153272500D01*
X186690662Y-153259023D01*
X186692642Y-153245675D01*
X186695921Y-153232586D01*
X186700467Y-153219881D01*
X186706236Y-153207683D01*
X186713173Y-153196109D01*
X186721211Y-153185271D01*
X186730273Y-153175273D01*
X186740271Y-153166211D01*
X186751109Y-153158173D01*
X186762683Y-153151236D01*
X186774881Y-153145467D01*
X186787586Y-153140921D01*
X186800675Y-153137642D01*
X186814023Y-153135662D01*
X186827500Y-153135000D01*
X188077500Y-153135000D01*
X188090977Y-153135662D01*
X188090977Y-153135662D01*
G37*
D11*
X187452500Y-153410000D03*
D10*
G36*
X188090977Y-153935662D02*
X188104325Y-153937642D01*
X188117414Y-153940921D01*
X188130119Y-153945467D01*
X188142317Y-153951236D01*
X188153891Y-153958173D01*
X188164729Y-153966211D01*
X188174727Y-153975273D01*
X188183789Y-153985271D01*
X188191827Y-153996109D01*
X188198764Y-154007683D01*
X188204533Y-154019881D01*
X188209079Y-154032586D01*
X188212358Y-154045675D01*
X188214338Y-154059023D01*
X188215000Y-154072500D01*
X188215000Y-154347500D01*
X188214338Y-154360977D01*
X188212358Y-154374325D01*
X188209079Y-154387414D01*
X188204533Y-154400119D01*
X188198764Y-154412317D01*
X188191827Y-154423891D01*
X188183789Y-154434729D01*
X188174727Y-154444727D01*
X188164729Y-154453789D01*
X188153891Y-154461827D01*
X188142317Y-154468764D01*
X188130119Y-154474533D01*
X188117414Y-154479079D01*
X188104325Y-154482358D01*
X188090977Y-154484338D01*
X188077500Y-154485000D01*
X186827500Y-154485000D01*
X186814023Y-154484338D01*
X186800675Y-154482358D01*
X186787586Y-154479079D01*
X186774881Y-154474533D01*
X186762683Y-154468764D01*
X186751109Y-154461827D01*
X186740271Y-154453789D01*
X186730273Y-154444727D01*
X186721211Y-154434729D01*
X186713173Y-154423891D01*
X186706236Y-154412317D01*
X186700467Y-154400119D01*
X186695921Y-154387414D01*
X186692642Y-154374325D01*
X186690662Y-154360977D01*
X186690000Y-154347500D01*
X186690000Y-154072500D01*
X186690662Y-154059023D01*
X186692642Y-154045675D01*
X186695921Y-154032586D01*
X186700467Y-154019881D01*
X186706236Y-154007683D01*
X186713173Y-153996109D01*
X186721211Y-153985271D01*
X186730273Y-153975273D01*
X186740271Y-153966211D01*
X186751109Y-153958173D01*
X186762683Y-153951236D01*
X186774881Y-153945467D01*
X186787586Y-153940921D01*
X186800675Y-153937642D01*
X186814023Y-153935662D01*
X186827500Y-153935000D01*
X188077500Y-153935000D01*
X188090977Y-153935662D01*
X188090977Y-153935662D01*
G37*
D11*
X187452500Y-154210000D03*
D10*
G36*
X188090977Y-154735662D02*
X188104325Y-154737642D01*
X188117414Y-154740921D01*
X188130119Y-154745467D01*
X188142317Y-154751236D01*
X188153891Y-154758173D01*
X188164729Y-154766211D01*
X188174727Y-154775273D01*
X188183789Y-154785271D01*
X188191827Y-154796109D01*
X188198764Y-154807683D01*
X188204533Y-154819881D01*
X188209079Y-154832586D01*
X188212358Y-154845675D01*
X188214338Y-154859023D01*
X188215000Y-154872500D01*
X188215000Y-155147500D01*
X188214338Y-155160977D01*
X188212358Y-155174325D01*
X188209079Y-155187414D01*
X188204533Y-155200119D01*
X188198764Y-155212317D01*
X188191827Y-155223891D01*
X188183789Y-155234729D01*
X188174727Y-155244727D01*
X188164729Y-155253789D01*
X188153891Y-155261827D01*
X188142317Y-155268764D01*
X188130119Y-155274533D01*
X188117414Y-155279079D01*
X188104325Y-155282358D01*
X188090977Y-155284338D01*
X188077500Y-155285000D01*
X186827500Y-155285000D01*
X186814023Y-155284338D01*
X186800675Y-155282358D01*
X186787586Y-155279079D01*
X186774881Y-155274533D01*
X186762683Y-155268764D01*
X186751109Y-155261827D01*
X186740271Y-155253789D01*
X186730273Y-155244727D01*
X186721211Y-155234729D01*
X186713173Y-155223891D01*
X186706236Y-155212317D01*
X186700467Y-155200119D01*
X186695921Y-155187414D01*
X186692642Y-155174325D01*
X186690662Y-155160977D01*
X186690000Y-155147500D01*
X186690000Y-154872500D01*
X186690662Y-154859023D01*
X186692642Y-154845675D01*
X186695921Y-154832586D01*
X186700467Y-154819881D01*
X186706236Y-154807683D01*
X186713173Y-154796109D01*
X186721211Y-154785271D01*
X186730273Y-154775273D01*
X186740271Y-154766211D01*
X186751109Y-154758173D01*
X186762683Y-154751236D01*
X186774881Y-154745467D01*
X186787586Y-154740921D01*
X186800675Y-154737642D01*
X186814023Y-154735662D01*
X186827500Y-154735000D01*
X188077500Y-154735000D01*
X188090977Y-154735662D01*
X188090977Y-154735662D01*
G37*
D11*
X187452500Y-155010000D03*
D10*
G36*
X188090977Y-155535662D02*
X188104325Y-155537642D01*
X188117414Y-155540921D01*
X188130119Y-155545467D01*
X188142317Y-155551236D01*
X188153891Y-155558173D01*
X188164729Y-155566211D01*
X188174727Y-155575273D01*
X188183789Y-155585271D01*
X188191827Y-155596109D01*
X188198764Y-155607683D01*
X188204533Y-155619881D01*
X188209079Y-155632586D01*
X188212358Y-155645675D01*
X188214338Y-155659023D01*
X188215000Y-155672500D01*
X188215000Y-155947500D01*
X188214338Y-155960977D01*
X188212358Y-155974325D01*
X188209079Y-155987414D01*
X188204533Y-156000119D01*
X188198764Y-156012317D01*
X188191827Y-156023891D01*
X188183789Y-156034729D01*
X188174727Y-156044727D01*
X188164729Y-156053789D01*
X188153891Y-156061827D01*
X188142317Y-156068764D01*
X188130119Y-156074533D01*
X188117414Y-156079079D01*
X188104325Y-156082358D01*
X188090977Y-156084338D01*
X188077500Y-156085000D01*
X186827500Y-156085000D01*
X186814023Y-156084338D01*
X186800675Y-156082358D01*
X186787586Y-156079079D01*
X186774881Y-156074533D01*
X186762683Y-156068764D01*
X186751109Y-156061827D01*
X186740271Y-156053789D01*
X186730273Y-156044727D01*
X186721211Y-156034729D01*
X186713173Y-156023891D01*
X186706236Y-156012317D01*
X186700467Y-156000119D01*
X186695921Y-155987414D01*
X186692642Y-155974325D01*
X186690662Y-155960977D01*
X186690000Y-155947500D01*
X186690000Y-155672500D01*
X186690662Y-155659023D01*
X186692642Y-155645675D01*
X186695921Y-155632586D01*
X186700467Y-155619881D01*
X186706236Y-155607683D01*
X186713173Y-155596109D01*
X186721211Y-155585271D01*
X186730273Y-155575273D01*
X186740271Y-155566211D01*
X186751109Y-155558173D01*
X186762683Y-155551236D01*
X186774881Y-155545467D01*
X186787586Y-155540921D01*
X186800675Y-155537642D01*
X186814023Y-155535662D01*
X186827500Y-155535000D01*
X188077500Y-155535000D01*
X188090977Y-155535662D01*
X188090977Y-155535662D01*
G37*
D11*
X187452500Y-155810000D03*
D10*
G36*
X188090977Y-156335662D02*
X188104325Y-156337642D01*
X188117414Y-156340921D01*
X188130119Y-156345467D01*
X188142317Y-156351236D01*
X188153891Y-156358173D01*
X188164729Y-156366211D01*
X188174727Y-156375273D01*
X188183789Y-156385271D01*
X188191827Y-156396109D01*
X188198764Y-156407683D01*
X188204533Y-156419881D01*
X188209079Y-156432586D01*
X188212358Y-156445675D01*
X188214338Y-156459023D01*
X188215000Y-156472500D01*
X188215000Y-156747500D01*
X188214338Y-156760977D01*
X188212358Y-156774325D01*
X188209079Y-156787414D01*
X188204533Y-156800119D01*
X188198764Y-156812317D01*
X188191827Y-156823891D01*
X188183789Y-156834729D01*
X188174727Y-156844727D01*
X188164729Y-156853789D01*
X188153891Y-156861827D01*
X188142317Y-156868764D01*
X188130119Y-156874533D01*
X188117414Y-156879079D01*
X188104325Y-156882358D01*
X188090977Y-156884338D01*
X188077500Y-156885000D01*
X186827500Y-156885000D01*
X186814023Y-156884338D01*
X186800675Y-156882358D01*
X186787586Y-156879079D01*
X186774881Y-156874533D01*
X186762683Y-156868764D01*
X186751109Y-156861827D01*
X186740271Y-156853789D01*
X186730273Y-156844727D01*
X186721211Y-156834729D01*
X186713173Y-156823891D01*
X186706236Y-156812317D01*
X186700467Y-156800119D01*
X186695921Y-156787414D01*
X186692642Y-156774325D01*
X186690662Y-156760977D01*
X186690000Y-156747500D01*
X186690000Y-156472500D01*
X186690662Y-156459023D01*
X186692642Y-156445675D01*
X186695921Y-156432586D01*
X186700467Y-156419881D01*
X186706236Y-156407683D01*
X186713173Y-156396109D01*
X186721211Y-156385271D01*
X186730273Y-156375273D01*
X186740271Y-156366211D01*
X186751109Y-156358173D01*
X186762683Y-156351236D01*
X186774881Y-156345467D01*
X186787586Y-156340921D01*
X186800675Y-156337642D01*
X186814023Y-156335662D01*
X186827500Y-156335000D01*
X188077500Y-156335000D01*
X188090977Y-156335662D01*
X188090977Y-156335662D01*
G37*
D11*
X187452500Y-156610000D03*
D10*
G36*
X188090977Y-157135662D02*
X188104325Y-157137642D01*
X188117414Y-157140921D01*
X188130119Y-157145467D01*
X188142317Y-157151236D01*
X188153891Y-157158173D01*
X188164729Y-157166211D01*
X188174727Y-157175273D01*
X188183789Y-157185271D01*
X188191827Y-157196109D01*
X188198764Y-157207683D01*
X188204533Y-157219881D01*
X188209079Y-157232586D01*
X188212358Y-157245675D01*
X188214338Y-157259023D01*
X188215000Y-157272500D01*
X188215000Y-157547500D01*
X188214338Y-157560977D01*
X188212358Y-157574325D01*
X188209079Y-157587414D01*
X188204533Y-157600119D01*
X188198764Y-157612317D01*
X188191827Y-157623891D01*
X188183789Y-157634729D01*
X188174727Y-157644727D01*
X188164729Y-157653789D01*
X188153891Y-157661827D01*
X188142317Y-157668764D01*
X188130119Y-157674533D01*
X188117414Y-157679079D01*
X188104325Y-157682358D01*
X188090977Y-157684338D01*
X188077500Y-157685000D01*
X186827500Y-157685000D01*
X186814023Y-157684338D01*
X186800675Y-157682358D01*
X186787586Y-157679079D01*
X186774881Y-157674533D01*
X186762683Y-157668764D01*
X186751109Y-157661827D01*
X186740271Y-157653789D01*
X186730273Y-157644727D01*
X186721211Y-157634729D01*
X186713173Y-157623891D01*
X186706236Y-157612317D01*
X186700467Y-157600119D01*
X186695921Y-157587414D01*
X186692642Y-157574325D01*
X186690662Y-157560977D01*
X186690000Y-157547500D01*
X186690000Y-157272500D01*
X186690662Y-157259023D01*
X186692642Y-157245675D01*
X186695921Y-157232586D01*
X186700467Y-157219881D01*
X186706236Y-157207683D01*
X186713173Y-157196109D01*
X186721211Y-157185271D01*
X186730273Y-157175273D01*
X186740271Y-157166211D01*
X186751109Y-157158173D01*
X186762683Y-157151236D01*
X186774881Y-157145467D01*
X186787586Y-157140921D01*
X186800675Y-157137642D01*
X186814023Y-157135662D01*
X186827500Y-157135000D01*
X188077500Y-157135000D01*
X188090977Y-157135662D01*
X188090977Y-157135662D01*
G37*
D11*
X187452500Y-157410000D03*
D10*
G36*
X188090977Y-157935662D02*
X188104325Y-157937642D01*
X188117414Y-157940921D01*
X188130119Y-157945467D01*
X188142317Y-157951236D01*
X188153891Y-157958173D01*
X188164729Y-157966211D01*
X188174727Y-157975273D01*
X188183789Y-157985271D01*
X188191827Y-157996109D01*
X188198764Y-158007683D01*
X188204533Y-158019881D01*
X188209079Y-158032586D01*
X188212358Y-158045675D01*
X188214338Y-158059023D01*
X188215000Y-158072500D01*
X188215000Y-158347500D01*
X188214338Y-158360977D01*
X188212358Y-158374325D01*
X188209079Y-158387414D01*
X188204533Y-158400119D01*
X188198764Y-158412317D01*
X188191827Y-158423891D01*
X188183789Y-158434729D01*
X188174727Y-158444727D01*
X188164729Y-158453789D01*
X188153891Y-158461827D01*
X188142317Y-158468764D01*
X188130119Y-158474533D01*
X188117414Y-158479079D01*
X188104325Y-158482358D01*
X188090977Y-158484338D01*
X188077500Y-158485000D01*
X186827500Y-158485000D01*
X186814023Y-158484338D01*
X186800675Y-158482358D01*
X186787586Y-158479079D01*
X186774881Y-158474533D01*
X186762683Y-158468764D01*
X186751109Y-158461827D01*
X186740271Y-158453789D01*
X186730273Y-158444727D01*
X186721211Y-158434729D01*
X186713173Y-158423891D01*
X186706236Y-158412317D01*
X186700467Y-158400119D01*
X186695921Y-158387414D01*
X186692642Y-158374325D01*
X186690662Y-158360977D01*
X186690000Y-158347500D01*
X186690000Y-158072500D01*
X186690662Y-158059023D01*
X186692642Y-158045675D01*
X186695921Y-158032586D01*
X186700467Y-158019881D01*
X186706236Y-158007683D01*
X186713173Y-157996109D01*
X186721211Y-157985271D01*
X186730273Y-157975273D01*
X186740271Y-157966211D01*
X186751109Y-157958173D01*
X186762683Y-157951236D01*
X186774881Y-157945467D01*
X186787586Y-157940921D01*
X186800675Y-157937642D01*
X186814023Y-157935662D01*
X186827500Y-157935000D01*
X188077500Y-157935000D01*
X188090977Y-157935662D01*
X188090977Y-157935662D01*
G37*
D11*
X187452500Y-158210000D03*
D10*
G36*
X188090977Y-158735662D02*
X188104325Y-158737642D01*
X188117414Y-158740921D01*
X188130119Y-158745467D01*
X188142317Y-158751236D01*
X188153891Y-158758173D01*
X188164729Y-158766211D01*
X188174727Y-158775273D01*
X188183789Y-158785271D01*
X188191827Y-158796109D01*
X188198764Y-158807683D01*
X188204533Y-158819881D01*
X188209079Y-158832586D01*
X188212358Y-158845675D01*
X188214338Y-158859023D01*
X188215000Y-158872500D01*
X188215000Y-159147500D01*
X188214338Y-159160977D01*
X188212358Y-159174325D01*
X188209079Y-159187414D01*
X188204533Y-159200119D01*
X188198764Y-159212317D01*
X188191827Y-159223891D01*
X188183789Y-159234729D01*
X188174727Y-159244727D01*
X188164729Y-159253789D01*
X188153891Y-159261827D01*
X188142317Y-159268764D01*
X188130119Y-159274533D01*
X188117414Y-159279079D01*
X188104325Y-159282358D01*
X188090977Y-159284338D01*
X188077500Y-159285000D01*
X186827500Y-159285000D01*
X186814023Y-159284338D01*
X186800675Y-159282358D01*
X186787586Y-159279079D01*
X186774881Y-159274533D01*
X186762683Y-159268764D01*
X186751109Y-159261827D01*
X186740271Y-159253789D01*
X186730273Y-159244727D01*
X186721211Y-159234729D01*
X186713173Y-159223891D01*
X186706236Y-159212317D01*
X186700467Y-159200119D01*
X186695921Y-159187414D01*
X186692642Y-159174325D01*
X186690662Y-159160977D01*
X186690000Y-159147500D01*
X186690000Y-158872500D01*
X186690662Y-158859023D01*
X186692642Y-158845675D01*
X186695921Y-158832586D01*
X186700467Y-158819881D01*
X186706236Y-158807683D01*
X186713173Y-158796109D01*
X186721211Y-158785271D01*
X186730273Y-158775273D01*
X186740271Y-158766211D01*
X186751109Y-158758173D01*
X186762683Y-158751236D01*
X186774881Y-158745467D01*
X186787586Y-158740921D01*
X186800675Y-158737642D01*
X186814023Y-158735662D01*
X186827500Y-158735000D01*
X188077500Y-158735000D01*
X188090977Y-158735662D01*
X188090977Y-158735662D01*
G37*
D11*
X187452500Y-159010000D03*
D10*
G36*
X188090977Y-159535662D02*
X188104325Y-159537642D01*
X188117414Y-159540921D01*
X188130119Y-159545467D01*
X188142317Y-159551236D01*
X188153891Y-159558173D01*
X188164729Y-159566211D01*
X188174727Y-159575273D01*
X188183789Y-159585271D01*
X188191827Y-159596109D01*
X188198764Y-159607683D01*
X188204533Y-159619881D01*
X188209079Y-159632586D01*
X188212358Y-159645675D01*
X188214338Y-159659023D01*
X188215000Y-159672500D01*
X188215000Y-159947500D01*
X188214338Y-159960977D01*
X188212358Y-159974325D01*
X188209079Y-159987414D01*
X188204533Y-160000119D01*
X188198764Y-160012317D01*
X188191827Y-160023891D01*
X188183789Y-160034729D01*
X188174727Y-160044727D01*
X188164729Y-160053789D01*
X188153891Y-160061827D01*
X188142317Y-160068764D01*
X188130119Y-160074533D01*
X188117414Y-160079079D01*
X188104325Y-160082358D01*
X188090977Y-160084338D01*
X188077500Y-160085000D01*
X186827500Y-160085000D01*
X186814023Y-160084338D01*
X186800675Y-160082358D01*
X186787586Y-160079079D01*
X186774881Y-160074533D01*
X186762683Y-160068764D01*
X186751109Y-160061827D01*
X186740271Y-160053789D01*
X186730273Y-160044727D01*
X186721211Y-160034729D01*
X186713173Y-160023891D01*
X186706236Y-160012317D01*
X186700467Y-160000119D01*
X186695921Y-159987414D01*
X186692642Y-159974325D01*
X186690662Y-159960977D01*
X186690000Y-159947500D01*
X186690000Y-159672500D01*
X186690662Y-159659023D01*
X186692642Y-159645675D01*
X186695921Y-159632586D01*
X186700467Y-159619881D01*
X186706236Y-159607683D01*
X186713173Y-159596109D01*
X186721211Y-159585271D01*
X186730273Y-159575273D01*
X186740271Y-159566211D01*
X186751109Y-159558173D01*
X186762683Y-159551236D01*
X186774881Y-159545467D01*
X186787586Y-159540921D01*
X186800675Y-159537642D01*
X186814023Y-159535662D01*
X186827500Y-159535000D01*
X188077500Y-159535000D01*
X188090977Y-159535662D01*
X188090977Y-159535662D01*
G37*
D11*
X187452500Y-159810000D03*
D10*
G36*
X188090977Y-160335662D02*
X188104325Y-160337642D01*
X188117414Y-160340921D01*
X188130119Y-160345467D01*
X188142317Y-160351236D01*
X188153891Y-160358173D01*
X188164729Y-160366211D01*
X188174727Y-160375273D01*
X188183789Y-160385271D01*
X188191827Y-160396109D01*
X188198764Y-160407683D01*
X188204533Y-160419881D01*
X188209079Y-160432586D01*
X188212358Y-160445675D01*
X188214338Y-160459023D01*
X188215000Y-160472500D01*
X188215000Y-160747500D01*
X188214338Y-160760977D01*
X188212358Y-160774325D01*
X188209079Y-160787414D01*
X188204533Y-160800119D01*
X188198764Y-160812317D01*
X188191827Y-160823891D01*
X188183789Y-160834729D01*
X188174727Y-160844727D01*
X188164729Y-160853789D01*
X188153891Y-160861827D01*
X188142317Y-160868764D01*
X188130119Y-160874533D01*
X188117414Y-160879079D01*
X188104325Y-160882358D01*
X188090977Y-160884338D01*
X188077500Y-160885000D01*
X186827500Y-160885000D01*
X186814023Y-160884338D01*
X186800675Y-160882358D01*
X186787586Y-160879079D01*
X186774881Y-160874533D01*
X186762683Y-160868764D01*
X186751109Y-160861827D01*
X186740271Y-160853789D01*
X186730273Y-160844727D01*
X186721211Y-160834729D01*
X186713173Y-160823891D01*
X186706236Y-160812317D01*
X186700467Y-160800119D01*
X186695921Y-160787414D01*
X186692642Y-160774325D01*
X186690662Y-160760977D01*
X186690000Y-160747500D01*
X186690000Y-160472500D01*
X186690662Y-160459023D01*
X186692642Y-160445675D01*
X186695921Y-160432586D01*
X186700467Y-160419881D01*
X186706236Y-160407683D01*
X186713173Y-160396109D01*
X186721211Y-160385271D01*
X186730273Y-160375273D01*
X186740271Y-160366211D01*
X186751109Y-160358173D01*
X186762683Y-160351236D01*
X186774881Y-160345467D01*
X186787586Y-160340921D01*
X186800675Y-160337642D01*
X186814023Y-160335662D01*
X186827500Y-160335000D01*
X188077500Y-160335000D01*
X188090977Y-160335662D01*
X188090977Y-160335662D01*
G37*
D11*
X187452500Y-160610000D03*
D10*
G36*
X188090977Y-161135662D02*
X188104325Y-161137642D01*
X188117414Y-161140921D01*
X188130119Y-161145467D01*
X188142317Y-161151236D01*
X188153891Y-161158173D01*
X188164729Y-161166211D01*
X188174727Y-161175273D01*
X188183789Y-161185271D01*
X188191827Y-161196109D01*
X188198764Y-161207683D01*
X188204533Y-161219881D01*
X188209079Y-161232586D01*
X188212358Y-161245675D01*
X188214338Y-161259023D01*
X188215000Y-161272500D01*
X188215000Y-161547500D01*
X188214338Y-161560977D01*
X188212358Y-161574325D01*
X188209079Y-161587414D01*
X188204533Y-161600119D01*
X188198764Y-161612317D01*
X188191827Y-161623891D01*
X188183789Y-161634729D01*
X188174727Y-161644727D01*
X188164729Y-161653789D01*
X188153891Y-161661827D01*
X188142317Y-161668764D01*
X188130119Y-161674533D01*
X188117414Y-161679079D01*
X188104325Y-161682358D01*
X188090977Y-161684338D01*
X188077500Y-161685000D01*
X186827500Y-161685000D01*
X186814023Y-161684338D01*
X186800675Y-161682358D01*
X186787586Y-161679079D01*
X186774881Y-161674533D01*
X186762683Y-161668764D01*
X186751109Y-161661827D01*
X186740271Y-161653789D01*
X186730273Y-161644727D01*
X186721211Y-161634729D01*
X186713173Y-161623891D01*
X186706236Y-161612317D01*
X186700467Y-161600119D01*
X186695921Y-161587414D01*
X186692642Y-161574325D01*
X186690662Y-161560977D01*
X186690000Y-161547500D01*
X186690000Y-161272500D01*
X186690662Y-161259023D01*
X186692642Y-161245675D01*
X186695921Y-161232586D01*
X186700467Y-161219881D01*
X186706236Y-161207683D01*
X186713173Y-161196109D01*
X186721211Y-161185271D01*
X186730273Y-161175273D01*
X186740271Y-161166211D01*
X186751109Y-161158173D01*
X186762683Y-161151236D01*
X186774881Y-161145467D01*
X186787586Y-161140921D01*
X186800675Y-161137642D01*
X186814023Y-161135662D01*
X186827500Y-161135000D01*
X188077500Y-161135000D01*
X188090977Y-161135662D01*
X188090977Y-161135662D01*
G37*
D11*
X187452500Y-161410000D03*
D10*
G36*
X188090977Y-161935662D02*
X188104325Y-161937642D01*
X188117414Y-161940921D01*
X188130119Y-161945467D01*
X188142317Y-161951236D01*
X188153891Y-161958173D01*
X188164729Y-161966211D01*
X188174727Y-161975273D01*
X188183789Y-161985271D01*
X188191827Y-161996109D01*
X188198764Y-162007683D01*
X188204533Y-162019881D01*
X188209079Y-162032586D01*
X188212358Y-162045675D01*
X188214338Y-162059023D01*
X188215000Y-162072500D01*
X188215000Y-162347500D01*
X188214338Y-162360977D01*
X188212358Y-162374325D01*
X188209079Y-162387414D01*
X188204533Y-162400119D01*
X188198764Y-162412317D01*
X188191827Y-162423891D01*
X188183789Y-162434729D01*
X188174727Y-162444727D01*
X188164729Y-162453789D01*
X188153891Y-162461827D01*
X188142317Y-162468764D01*
X188130119Y-162474533D01*
X188117414Y-162479079D01*
X188104325Y-162482358D01*
X188090977Y-162484338D01*
X188077500Y-162485000D01*
X186827500Y-162485000D01*
X186814023Y-162484338D01*
X186800675Y-162482358D01*
X186787586Y-162479079D01*
X186774881Y-162474533D01*
X186762683Y-162468764D01*
X186751109Y-162461827D01*
X186740271Y-162453789D01*
X186730273Y-162444727D01*
X186721211Y-162434729D01*
X186713173Y-162423891D01*
X186706236Y-162412317D01*
X186700467Y-162400119D01*
X186695921Y-162387414D01*
X186692642Y-162374325D01*
X186690662Y-162360977D01*
X186690000Y-162347500D01*
X186690000Y-162072500D01*
X186690662Y-162059023D01*
X186692642Y-162045675D01*
X186695921Y-162032586D01*
X186700467Y-162019881D01*
X186706236Y-162007683D01*
X186713173Y-161996109D01*
X186721211Y-161985271D01*
X186730273Y-161975273D01*
X186740271Y-161966211D01*
X186751109Y-161958173D01*
X186762683Y-161951236D01*
X186774881Y-161945467D01*
X186787586Y-161940921D01*
X186800675Y-161937642D01*
X186814023Y-161935662D01*
X186827500Y-161935000D01*
X188077500Y-161935000D01*
X188090977Y-161935662D01*
X188090977Y-161935662D01*
G37*
D11*
X187452500Y-162210000D03*
D10*
G36*
X188090977Y-162735662D02*
X188104325Y-162737642D01*
X188117414Y-162740921D01*
X188130119Y-162745467D01*
X188142317Y-162751236D01*
X188153891Y-162758173D01*
X188164729Y-162766211D01*
X188174727Y-162775273D01*
X188183789Y-162785271D01*
X188191827Y-162796109D01*
X188198764Y-162807683D01*
X188204533Y-162819881D01*
X188209079Y-162832586D01*
X188212358Y-162845675D01*
X188214338Y-162859023D01*
X188215000Y-162872500D01*
X188215000Y-163147500D01*
X188214338Y-163160977D01*
X188212358Y-163174325D01*
X188209079Y-163187414D01*
X188204533Y-163200119D01*
X188198764Y-163212317D01*
X188191827Y-163223891D01*
X188183789Y-163234729D01*
X188174727Y-163244727D01*
X188164729Y-163253789D01*
X188153891Y-163261827D01*
X188142317Y-163268764D01*
X188130119Y-163274533D01*
X188117414Y-163279079D01*
X188104325Y-163282358D01*
X188090977Y-163284338D01*
X188077500Y-163285000D01*
X186827500Y-163285000D01*
X186814023Y-163284338D01*
X186800675Y-163282358D01*
X186787586Y-163279079D01*
X186774881Y-163274533D01*
X186762683Y-163268764D01*
X186751109Y-163261827D01*
X186740271Y-163253789D01*
X186730273Y-163244727D01*
X186721211Y-163234729D01*
X186713173Y-163223891D01*
X186706236Y-163212317D01*
X186700467Y-163200119D01*
X186695921Y-163187414D01*
X186692642Y-163174325D01*
X186690662Y-163160977D01*
X186690000Y-163147500D01*
X186690000Y-162872500D01*
X186690662Y-162859023D01*
X186692642Y-162845675D01*
X186695921Y-162832586D01*
X186700467Y-162819881D01*
X186706236Y-162807683D01*
X186713173Y-162796109D01*
X186721211Y-162785271D01*
X186730273Y-162775273D01*
X186740271Y-162766211D01*
X186751109Y-162758173D01*
X186762683Y-162751236D01*
X186774881Y-162745467D01*
X186787586Y-162740921D01*
X186800675Y-162737642D01*
X186814023Y-162735662D01*
X186827500Y-162735000D01*
X188077500Y-162735000D01*
X188090977Y-162735662D01*
X188090977Y-162735662D01*
G37*
D11*
X187452500Y-163010000D03*
D10*
G36*
X188090977Y-163535662D02*
X188104325Y-163537642D01*
X188117414Y-163540921D01*
X188130119Y-163545467D01*
X188142317Y-163551236D01*
X188153891Y-163558173D01*
X188164729Y-163566211D01*
X188174727Y-163575273D01*
X188183789Y-163585271D01*
X188191827Y-163596109D01*
X188198764Y-163607683D01*
X188204533Y-163619881D01*
X188209079Y-163632586D01*
X188212358Y-163645675D01*
X188214338Y-163659023D01*
X188215000Y-163672500D01*
X188215000Y-163947500D01*
X188214338Y-163960977D01*
X188212358Y-163974325D01*
X188209079Y-163987414D01*
X188204533Y-164000119D01*
X188198764Y-164012317D01*
X188191827Y-164023891D01*
X188183789Y-164034729D01*
X188174727Y-164044727D01*
X188164729Y-164053789D01*
X188153891Y-164061827D01*
X188142317Y-164068764D01*
X188130119Y-164074533D01*
X188117414Y-164079079D01*
X188104325Y-164082358D01*
X188090977Y-164084338D01*
X188077500Y-164085000D01*
X186827500Y-164085000D01*
X186814023Y-164084338D01*
X186800675Y-164082358D01*
X186787586Y-164079079D01*
X186774881Y-164074533D01*
X186762683Y-164068764D01*
X186751109Y-164061827D01*
X186740271Y-164053789D01*
X186730273Y-164044727D01*
X186721211Y-164034729D01*
X186713173Y-164023891D01*
X186706236Y-164012317D01*
X186700467Y-164000119D01*
X186695921Y-163987414D01*
X186692642Y-163974325D01*
X186690662Y-163960977D01*
X186690000Y-163947500D01*
X186690000Y-163672500D01*
X186690662Y-163659023D01*
X186692642Y-163645675D01*
X186695921Y-163632586D01*
X186700467Y-163619881D01*
X186706236Y-163607683D01*
X186713173Y-163596109D01*
X186721211Y-163585271D01*
X186730273Y-163575273D01*
X186740271Y-163566211D01*
X186751109Y-163558173D01*
X186762683Y-163551236D01*
X186774881Y-163545467D01*
X186787586Y-163540921D01*
X186800675Y-163537642D01*
X186814023Y-163535662D01*
X186827500Y-163535000D01*
X188077500Y-163535000D01*
X188090977Y-163535662D01*
X188090977Y-163535662D01*
G37*
D11*
X187452500Y-163810000D03*
D10*
G36*
X188090977Y-164335662D02*
X188104325Y-164337642D01*
X188117414Y-164340921D01*
X188130119Y-164345467D01*
X188142317Y-164351236D01*
X188153891Y-164358173D01*
X188164729Y-164366211D01*
X188174727Y-164375273D01*
X188183789Y-164385271D01*
X188191827Y-164396109D01*
X188198764Y-164407683D01*
X188204533Y-164419881D01*
X188209079Y-164432586D01*
X188212358Y-164445675D01*
X188214338Y-164459023D01*
X188215000Y-164472500D01*
X188215000Y-164747500D01*
X188214338Y-164760977D01*
X188212358Y-164774325D01*
X188209079Y-164787414D01*
X188204533Y-164800119D01*
X188198764Y-164812317D01*
X188191827Y-164823891D01*
X188183789Y-164834729D01*
X188174727Y-164844727D01*
X188164729Y-164853789D01*
X188153891Y-164861827D01*
X188142317Y-164868764D01*
X188130119Y-164874533D01*
X188117414Y-164879079D01*
X188104325Y-164882358D01*
X188090977Y-164884338D01*
X188077500Y-164885000D01*
X186827500Y-164885000D01*
X186814023Y-164884338D01*
X186800675Y-164882358D01*
X186787586Y-164879079D01*
X186774881Y-164874533D01*
X186762683Y-164868764D01*
X186751109Y-164861827D01*
X186740271Y-164853789D01*
X186730273Y-164844727D01*
X186721211Y-164834729D01*
X186713173Y-164823891D01*
X186706236Y-164812317D01*
X186700467Y-164800119D01*
X186695921Y-164787414D01*
X186692642Y-164774325D01*
X186690662Y-164760977D01*
X186690000Y-164747500D01*
X186690000Y-164472500D01*
X186690662Y-164459023D01*
X186692642Y-164445675D01*
X186695921Y-164432586D01*
X186700467Y-164419881D01*
X186706236Y-164407683D01*
X186713173Y-164396109D01*
X186721211Y-164385271D01*
X186730273Y-164375273D01*
X186740271Y-164366211D01*
X186751109Y-164358173D01*
X186762683Y-164351236D01*
X186774881Y-164345467D01*
X186787586Y-164340921D01*
X186800675Y-164337642D01*
X186814023Y-164335662D01*
X186827500Y-164335000D01*
X188077500Y-164335000D01*
X188090977Y-164335662D01*
X188090977Y-164335662D01*
G37*
D11*
X187452500Y-164610000D03*
D10*
G36*
X199265977Y-164335662D02*
X199279325Y-164337642D01*
X199292414Y-164340921D01*
X199305119Y-164345467D01*
X199317317Y-164351236D01*
X199328891Y-164358173D01*
X199339729Y-164366211D01*
X199349727Y-164375273D01*
X199358789Y-164385271D01*
X199366827Y-164396109D01*
X199373764Y-164407683D01*
X199379533Y-164419881D01*
X199384079Y-164432586D01*
X199387358Y-164445675D01*
X199389338Y-164459023D01*
X199390000Y-164472500D01*
X199390000Y-164747500D01*
X199389338Y-164760977D01*
X199387358Y-164774325D01*
X199384079Y-164787414D01*
X199379533Y-164800119D01*
X199373764Y-164812317D01*
X199366827Y-164823891D01*
X199358789Y-164834729D01*
X199349727Y-164844727D01*
X199339729Y-164853789D01*
X199328891Y-164861827D01*
X199317317Y-164868764D01*
X199305119Y-164874533D01*
X199292414Y-164879079D01*
X199279325Y-164882358D01*
X199265977Y-164884338D01*
X199252500Y-164885000D01*
X198002500Y-164885000D01*
X197989023Y-164884338D01*
X197975675Y-164882358D01*
X197962586Y-164879079D01*
X197949881Y-164874533D01*
X197937683Y-164868764D01*
X197926109Y-164861827D01*
X197915271Y-164853789D01*
X197905273Y-164844727D01*
X197896211Y-164834729D01*
X197888173Y-164823891D01*
X197881236Y-164812317D01*
X197875467Y-164800119D01*
X197870921Y-164787414D01*
X197867642Y-164774325D01*
X197865662Y-164760977D01*
X197865000Y-164747500D01*
X197865000Y-164472500D01*
X197865662Y-164459023D01*
X197867642Y-164445675D01*
X197870921Y-164432586D01*
X197875467Y-164419881D01*
X197881236Y-164407683D01*
X197888173Y-164396109D01*
X197896211Y-164385271D01*
X197905273Y-164375273D01*
X197915271Y-164366211D01*
X197926109Y-164358173D01*
X197937683Y-164351236D01*
X197949881Y-164345467D01*
X197962586Y-164340921D01*
X197975675Y-164337642D01*
X197989023Y-164335662D01*
X198002500Y-164335000D01*
X199252500Y-164335000D01*
X199265977Y-164335662D01*
X199265977Y-164335662D01*
G37*
D11*
X198627500Y-164610000D03*
D10*
G36*
X199265977Y-163535662D02*
X199279325Y-163537642D01*
X199292414Y-163540921D01*
X199305119Y-163545467D01*
X199317317Y-163551236D01*
X199328891Y-163558173D01*
X199339729Y-163566211D01*
X199349727Y-163575273D01*
X199358789Y-163585271D01*
X199366827Y-163596109D01*
X199373764Y-163607683D01*
X199379533Y-163619881D01*
X199384079Y-163632586D01*
X199387358Y-163645675D01*
X199389338Y-163659023D01*
X199390000Y-163672500D01*
X199390000Y-163947500D01*
X199389338Y-163960977D01*
X199387358Y-163974325D01*
X199384079Y-163987414D01*
X199379533Y-164000119D01*
X199373764Y-164012317D01*
X199366827Y-164023891D01*
X199358789Y-164034729D01*
X199349727Y-164044727D01*
X199339729Y-164053789D01*
X199328891Y-164061827D01*
X199317317Y-164068764D01*
X199305119Y-164074533D01*
X199292414Y-164079079D01*
X199279325Y-164082358D01*
X199265977Y-164084338D01*
X199252500Y-164085000D01*
X198002500Y-164085000D01*
X197989023Y-164084338D01*
X197975675Y-164082358D01*
X197962586Y-164079079D01*
X197949881Y-164074533D01*
X197937683Y-164068764D01*
X197926109Y-164061827D01*
X197915271Y-164053789D01*
X197905273Y-164044727D01*
X197896211Y-164034729D01*
X197888173Y-164023891D01*
X197881236Y-164012317D01*
X197875467Y-164000119D01*
X197870921Y-163987414D01*
X197867642Y-163974325D01*
X197865662Y-163960977D01*
X197865000Y-163947500D01*
X197865000Y-163672500D01*
X197865662Y-163659023D01*
X197867642Y-163645675D01*
X197870921Y-163632586D01*
X197875467Y-163619881D01*
X197881236Y-163607683D01*
X197888173Y-163596109D01*
X197896211Y-163585271D01*
X197905273Y-163575273D01*
X197915271Y-163566211D01*
X197926109Y-163558173D01*
X197937683Y-163551236D01*
X197949881Y-163545467D01*
X197962586Y-163540921D01*
X197975675Y-163537642D01*
X197989023Y-163535662D01*
X198002500Y-163535000D01*
X199252500Y-163535000D01*
X199265977Y-163535662D01*
X199265977Y-163535662D01*
G37*
D11*
X198627500Y-163810000D03*
D10*
G36*
X199265977Y-162735662D02*
X199279325Y-162737642D01*
X199292414Y-162740921D01*
X199305119Y-162745467D01*
X199317317Y-162751236D01*
X199328891Y-162758173D01*
X199339729Y-162766211D01*
X199349727Y-162775273D01*
X199358789Y-162785271D01*
X199366827Y-162796109D01*
X199373764Y-162807683D01*
X199379533Y-162819881D01*
X199384079Y-162832586D01*
X199387358Y-162845675D01*
X199389338Y-162859023D01*
X199390000Y-162872500D01*
X199390000Y-163147500D01*
X199389338Y-163160977D01*
X199387358Y-163174325D01*
X199384079Y-163187414D01*
X199379533Y-163200119D01*
X199373764Y-163212317D01*
X199366827Y-163223891D01*
X199358789Y-163234729D01*
X199349727Y-163244727D01*
X199339729Y-163253789D01*
X199328891Y-163261827D01*
X199317317Y-163268764D01*
X199305119Y-163274533D01*
X199292414Y-163279079D01*
X199279325Y-163282358D01*
X199265977Y-163284338D01*
X199252500Y-163285000D01*
X198002500Y-163285000D01*
X197989023Y-163284338D01*
X197975675Y-163282358D01*
X197962586Y-163279079D01*
X197949881Y-163274533D01*
X197937683Y-163268764D01*
X197926109Y-163261827D01*
X197915271Y-163253789D01*
X197905273Y-163244727D01*
X197896211Y-163234729D01*
X197888173Y-163223891D01*
X197881236Y-163212317D01*
X197875467Y-163200119D01*
X197870921Y-163187414D01*
X197867642Y-163174325D01*
X197865662Y-163160977D01*
X197865000Y-163147500D01*
X197865000Y-162872500D01*
X197865662Y-162859023D01*
X197867642Y-162845675D01*
X197870921Y-162832586D01*
X197875467Y-162819881D01*
X197881236Y-162807683D01*
X197888173Y-162796109D01*
X197896211Y-162785271D01*
X197905273Y-162775273D01*
X197915271Y-162766211D01*
X197926109Y-162758173D01*
X197937683Y-162751236D01*
X197949881Y-162745467D01*
X197962586Y-162740921D01*
X197975675Y-162737642D01*
X197989023Y-162735662D01*
X198002500Y-162735000D01*
X199252500Y-162735000D01*
X199265977Y-162735662D01*
X199265977Y-162735662D01*
G37*
D11*
X198627500Y-163010000D03*
D10*
G36*
X199265977Y-161935662D02*
X199279325Y-161937642D01*
X199292414Y-161940921D01*
X199305119Y-161945467D01*
X199317317Y-161951236D01*
X199328891Y-161958173D01*
X199339729Y-161966211D01*
X199349727Y-161975273D01*
X199358789Y-161985271D01*
X199366827Y-161996109D01*
X199373764Y-162007683D01*
X199379533Y-162019881D01*
X199384079Y-162032586D01*
X199387358Y-162045675D01*
X199389338Y-162059023D01*
X199390000Y-162072500D01*
X199390000Y-162347500D01*
X199389338Y-162360977D01*
X199387358Y-162374325D01*
X199384079Y-162387414D01*
X199379533Y-162400119D01*
X199373764Y-162412317D01*
X199366827Y-162423891D01*
X199358789Y-162434729D01*
X199349727Y-162444727D01*
X199339729Y-162453789D01*
X199328891Y-162461827D01*
X199317317Y-162468764D01*
X199305119Y-162474533D01*
X199292414Y-162479079D01*
X199279325Y-162482358D01*
X199265977Y-162484338D01*
X199252500Y-162485000D01*
X198002500Y-162485000D01*
X197989023Y-162484338D01*
X197975675Y-162482358D01*
X197962586Y-162479079D01*
X197949881Y-162474533D01*
X197937683Y-162468764D01*
X197926109Y-162461827D01*
X197915271Y-162453789D01*
X197905273Y-162444727D01*
X197896211Y-162434729D01*
X197888173Y-162423891D01*
X197881236Y-162412317D01*
X197875467Y-162400119D01*
X197870921Y-162387414D01*
X197867642Y-162374325D01*
X197865662Y-162360977D01*
X197865000Y-162347500D01*
X197865000Y-162072500D01*
X197865662Y-162059023D01*
X197867642Y-162045675D01*
X197870921Y-162032586D01*
X197875467Y-162019881D01*
X197881236Y-162007683D01*
X197888173Y-161996109D01*
X197896211Y-161985271D01*
X197905273Y-161975273D01*
X197915271Y-161966211D01*
X197926109Y-161958173D01*
X197937683Y-161951236D01*
X197949881Y-161945467D01*
X197962586Y-161940921D01*
X197975675Y-161937642D01*
X197989023Y-161935662D01*
X198002500Y-161935000D01*
X199252500Y-161935000D01*
X199265977Y-161935662D01*
X199265977Y-161935662D01*
G37*
D11*
X198627500Y-162210000D03*
D10*
G36*
X199265977Y-161135662D02*
X199279325Y-161137642D01*
X199292414Y-161140921D01*
X199305119Y-161145467D01*
X199317317Y-161151236D01*
X199328891Y-161158173D01*
X199339729Y-161166211D01*
X199349727Y-161175273D01*
X199358789Y-161185271D01*
X199366827Y-161196109D01*
X199373764Y-161207683D01*
X199379533Y-161219881D01*
X199384079Y-161232586D01*
X199387358Y-161245675D01*
X199389338Y-161259023D01*
X199390000Y-161272500D01*
X199390000Y-161547500D01*
X199389338Y-161560977D01*
X199387358Y-161574325D01*
X199384079Y-161587414D01*
X199379533Y-161600119D01*
X199373764Y-161612317D01*
X199366827Y-161623891D01*
X199358789Y-161634729D01*
X199349727Y-161644727D01*
X199339729Y-161653789D01*
X199328891Y-161661827D01*
X199317317Y-161668764D01*
X199305119Y-161674533D01*
X199292414Y-161679079D01*
X199279325Y-161682358D01*
X199265977Y-161684338D01*
X199252500Y-161685000D01*
X198002500Y-161685000D01*
X197989023Y-161684338D01*
X197975675Y-161682358D01*
X197962586Y-161679079D01*
X197949881Y-161674533D01*
X197937683Y-161668764D01*
X197926109Y-161661827D01*
X197915271Y-161653789D01*
X197905273Y-161644727D01*
X197896211Y-161634729D01*
X197888173Y-161623891D01*
X197881236Y-161612317D01*
X197875467Y-161600119D01*
X197870921Y-161587414D01*
X197867642Y-161574325D01*
X197865662Y-161560977D01*
X197865000Y-161547500D01*
X197865000Y-161272500D01*
X197865662Y-161259023D01*
X197867642Y-161245675D01*
X197870921Y-161232586D01*
X197875467Y-161219881D01*
X197881236Y-161207683D01*
X197888173Y-161196109D01*
X197896211Y-161185271D01*
X197905273Y-161175273D01*
X197915271Y-161166211D01*
X197926109Y-161158173D01*
X197937683Y-161151236D01*
X197949881Y-161145467D01*
X197962586Y-161140921D01*
X197975675Y-161137642D01*
X197989023Y-161135662D01*
X198002500Y-161135000D01*
X199252500Y-161135000D01*
X199265977Y-161135662D01*
X199265977Y-161135662D01*
G37*
D11*
X198627500Y-161410000D03*
D10*
G36*
X199265977Y-160335662D02*
X199279325Y-160337642D01*
X199292414Y-160340921D01*
X199305119Y-160345467D01*
X199317317Y-160351236D01*
X199328891Y-160358173D01*
X199339729Y-160366211D01*
X199349727Y-160375273D01*
X199358789Y-160385271D01*
X199366827Y-160396109D01*
X199373764Y-160407683D01*
X199379533Y-160419881D01*
X199384079Y-160432586D01*
X199387358Y-160445675D01*
X199389338Y-160459023D01*
X199390000Y-160472500D01*
X199390000Y-160747500D01*
X199389338Y-160760977D01*
X199387358Y-160774325D01*
X199384079Y-160787414D01*
X199379533Y-160800119D01*
X199373764Y-160812317D01*
X199366827Y-160823891D01*
X199358789Y-160834729D01*
X199349727Y-160844727D01*
X199339729Y-160853789D01*
X199328891Y-160861827D01*
X199317317Y-160868764D01*
X199305119Y-160874533D01*
X199292414Y-160879079D01*
X199279325Y-160882358D01*
X199265977Y-160884338D01*
X199252500Y-160885000D01*
X198002500Y-160885000D01*
X197989023Y-160884338D01*
X197975675Y-160882358D01*
X197962586Y-160879079D01*
X197949881Y-160874533D01*
X197937683Y-160868764D01*
X197926109Y-160861827D01*
X197915271Y-160853789D01*
X197905273Y-160844727D01*
X197896211Y-160834729D01*
X197888173Y-160823891D01*
X197881236Y-160812317D01*
X197875467Y-160800119D01*
X197870921Y-160787414D01*
X197867642Y-160774325D01*
X197865662Y-160760977D01*
X197865000Y-160747500D01*
X197865000Y-160472500D01*
X197865662Y-160459023D01*
X197867642Y-160445675D01*
X197870921Y-160432586D01*
X197875467Y-160419881D01*
X197881236Y-160407683D01*
X197888173Y-160396109D01*
X197896211Y-160385271D01*
X197905273Y-160375273D01*
X197915271Y-160366211D01*
X197926109Y-160358173D01*
X197937683Y-160351236D01*
X197949881Y-160345467D01*
X197962586Y-160340921D01*
X197975675Y-160337642D01*
X197989023Y-160335662D01*
X198002500Y-160335000D01*
X199252500Y-160335000D01*
X199265977Y-160335662D01*
X199265977Y-160335662D01*
G37*
D11*
X198627500Y-160610000D03*
D10*
G36*
X199265977Y-159535662D02*
X199279325Y-159537642D01*
X199292414Y-159540921D01*
X199305119Y-159545467D01*
X199317317Y-159551236D01*
X199328891Y-159558173D01*
X199339729Y-159566211D01*
X199349727Y-159575273D01*
X199358789Y-159585271D01*
X199366827Y-159596109D01*
X199373764Y-159607683D01*
X199379533Y-159619881D01*
X199384079Y-159632586D01*
X199387358Y-159645675D01*
X199389338Y-159659023D01*
X199390000Y-159672500D01*
X199390000Y-159947500D01*
X199389338Y-159960977D01*
X199387358Y-159974325D01*
X199384079Y-159987414D01*
X199379533Y-160000119D01*
X199373764Y-160012317D01*
X199366827Y-160023891D01*
X199358789Y-160034729D01*
X199349727Y-160044727D01*
X199339729Y-160053789D01*
X199328891Y-160061827D01*
X199317317Y-160068764D01*
X199305119Y-160074533D01*
X199292414Y-160079079D01*
X199279325Y-160082358D01*
X199265977Y-160084338D01*
X199252500Y-160085000D01*
X198002500Y-160085000D01*
X197989023Y-160084338D01*
X197975675Y-160082358D01*
X197962586Y-160079079D01*
X197949881Y-160074533D01*
X197937683Y-160068764D01*
X197926109Y-160061827D01*
X197915271Y-160053789D01*
X197905273Y-160044727D01*
X197896211Y-160034729D01*
X197888173Y-160023891D01*
X197881236Y-160012317D01*
X197875467Y-160000119D01*
X197870921Y-159987414D01*
X197867642Y-159974325D01*
X197865662Y-159960977D01*
X197865000Y-159947500D01*
X197865000Y-159672500D01*
X197865662Y-159659023D01*
X197867642Y-159645675D01*
X197870921Y-159632586D01*
X197875467Y-159619881D01*
X197881236Y-159607683D01*
X197888173Y-159596109D01*
X197896211Y-159585271D01*
X197905273Y-159575273D01*
X197915271Y-159566211D01*
X197926109Y-159558173D01*
X197937683Y-159551236D01*
X197949881Y-159545467D01*
X197962586Y-159540921D01*
X197975675Y-159537642D01*
X197989023Y-159535662D01*
X198002500Y-159535000D01*
X199252500Y-159535000D01*
X199265977Y-159535662D01*
X199265977Y-159535662D01*
G37*
D11*
X198627500Y-159810000D03*
D10*
G36*
X199265977Y-158735662D02*
X199279325Y-158737642D01*
X199292414Y-158740921D01*
X199305119Y-158745467D01*
X199317317Y-158751236D01*
X199328891Y-158758173D01*
X199339729Y-158766211D01*
X199349727Y-158775273D01*
X199358789Y-158785271D01*
X199366827Y-158796109D01*
X199373764Y-158807683D01*
X199379533Y-158819881D01*
X199384079Y-158832586D01*
X199387358Y-158845675D01*
X199389338Y-158859023D01*
X199390000Y-158872500D01*
X199390000Y-159147500D01*
X199389338Y-159160977D01*
X199387358Y-159174325D01*
X199384079Y-159187414D01*
X199379533Y-159200119D01*
X199373764Y-159212317D01*
X199366827Y-159223891D01*
X199358789Y-159234729D01*
X199349727Y-159244727D01*
X199339729Y-159253789D01*
X199328891Y-159261827D01*
X199317317Y-159268764D01*
X199305119Y-159274533D01*
X199292414Y-159279079D01*
X199279325Y-159282358D01*
X199265977Y-159284338D01*
X199252500Y-159285000D01*
X198002500Y-159285000D01*
X197989023Y-159284338D01*
X197975675Y-159282358D01*
X197962586Y-159279079D01*
X197949881Y-159274533D01*
X197937683Y-159268764D01*
X197926109Y-159261827D01*
X197915271Y-159253789D01*
X197905273Y-159244727D01*
X197896211Y-159234729D01*
X197888173Y-159223891D01*
X197881236Y-159212317D01*
X197875467Y-159200119D01*
X197870921Y-159187414D01*
X197867642Y-159174325D01*
X197865662Y-159160977D01*
X197865000Y-159147500D01*
X197865000Y-158872500D01*
X197865662Y-158859023D01*
X197867642Y-158845675D01*
X197870921Y-158832586D01*
X197875467Y-158819881D01*
X197881236Y-158807683D01*
X197888173Y-158796109D01*
X197896211Y-158785271D01*
X197905273Y-158775273D01*
X197915271Y-158766211D01*
X197926109Y-158758173D01*
X197937683Y-158751236D01*
X197949881Y-158745467D01*
X197962586Y-158740921D01*
X197975675Y-158737642D01*
X197989023Y-158735662D01*
X198002500Y-158735000D01*
X199252500Y-158735000D01*
X199265977Y-158735662D01*
X199265977Y-158735662D01*
G37*
D11*
X198627500Y-159010000D03*
D10*
G36*
X199265977Y-157935662D02*
X199279325Y-157937642D01*
X199292414Y-157940921D01*
X199305119Y-157945467D01*
X199317317Y-157951236D01*
X199328891Y-157958173D01*
X199339729Y-157966211D01*
X199349727Y-157975273D01*
X199358789Y-157985271D01*
X199366827Y-157996109D01*
X199373764Y-158007683D01*
X199379533Y-158019881D01*
X199384079Y-158032586D01*
X199387358Y-158045675D01*
X199389338Y-158059023D01*
X199390000Y-158072500D01*
X199390000Y-158347500D01*
X199389338Y-158360977D01*
X199387358Y-158374325D01*
X199384079Y-158387414D01*
X199379533Y-158400119D01*
X199373764Y-158412317D01*
X199366827Y-158423891D01*
X199358789Y-158434729D01*
X199349727Y-158444727D01*
X199339729Y-158453789D01*
X199328891Y-158461827D01*
X199317317Y-158468764D01*
X199305119Y-158474533D01*
X199292414Y-158479079D01*
X199279325Y-158482358D01*
X199265977Y-158484338D01*
X199252500Y-158485000D01*
X198002500Y-158485000D01*
X197989023Y-158484338D01*
X197975675Y-158482358D01*
X197962586Y-158479079D01*
X197949881Y-158474533D01*
X197937683Y-158468764D01*
X197926109Y-158461827D01*
X197915271Y-158453789D01*
X197905273Y-158444727D01*
X197896211Y-158434729D01*
X197888173Y-158423891D01*
X197881236Y-158412317D01*
X197875467Y-158400119D01*
X197870921Y-158387414D01*
X197867642Y-158374325D01*
X197865662Y-158360977D01*
X197865000Y-158347500D01*
X197865000Y-158072500D01*
X197865662Y-158059023D01*
X197867642Y-158045675D01*
X197870921Y-158032586D01*
X197875467Y-158019881D01*
X197881236Y-158007683D01*
X197888173Y-157996109D01*
X197896211Y-157985271D01*
X197905273Y-157975273D01*
X197915271Y-157966211D01*
X197926109Y-157958173D01*
X197937683Y-157951236D01*
X197949881Y-157945467D01*
X197962586Y-157940921D01*
X197975675Y-157937642D01*
X197989023Y-157935662D01*
X198002500Y-157935000D01*
X199252500Y-157935000D01*
X199265977Y-157935662D01*
X199265977Y-157935662D01*
G37*
D11*
X198627500Y-158210000D03*
D10*
G36*
X199265977Y-157135662D02*
X199279325Y-157137642D01*
X199292414Y-157140921D01*
X199305119Y-157145467D01*
X199317317Y-157151236D01*
X199328891Y-157158173D01*
X199339729Y-157166211D01*
X199349727Y-157175273D01*
X199358789Y-157185271D01*
X199366827Y-157196109D01*
X199373764Y-157207683D01*
X199379533Y-157219881D01*
X199384079Y-157232586D01*
X199387358Y-157245675D01*
X199389338Y-157259023D01*
X199390000Y-157272500D01*
X199390000Y-157547500D01*
X199389338Y-157560977D01*
X199387358Y-157574325D01*
X199384079Y-157587414D01*
X199379533Y-157600119D01*
X199373764Y-157612317D01*
X199366827Y-157623891D01*
X199358789Y-157634729D01*
X199349727Y-157644727D01*
X199339729Y-157653789D01*
X199328891Y-157661827D01*
X199317317Y-157668764D01*
X199305119Y-157674533D01*
X199292414Y-157679079D01*
X199279325Y-157682358D01*
X199265977Y-157684338D01*
X199252500Y-157685000D01*
X198002500Y-157685000D01*
X197989023Y-157684338D01*
X197975675Y-157682358D01*
X197962586Y-157679079D01*
X197949881Y-157674533D01*
X197937683Y-157668764D01*
X197926109Y-157661827D01*
X197915271Y-157653789D01*
X197905273Y-157644727D01*
X197896211Y-157634729D01*
X197888173Y-157623891D01*
X197881236Y-157612317D01*
X197875467Y-157600119D01*
X197870921Y-157587414D01*
X197867642Y-157574325D01*
X197865662Y-157560977D01*
X197865000Y-157547500D01*
X197865000Y-157272500D01*
X197865662Y-157259023D01*
X197867642Y-157245675D01*
X197870921Y-157232586D01*
X197875467Y-157219881D01*
X197881236Y-157207683D01*
X197888173Y-157196109D01*
X197896211Y-157185271D01*
X197905273Y-157175273D01*
X197915271Y-157166211D01*
X197926109Y-157158173D01*
X197937683Y-157151236D01*
X197949881Y-157145467D01*
X197962586Y-157140921D01*
X197975675Y-157137642D01*
X197989023Y-157135662D01*
X198002500Y-157135000D01*
X199252500Y-157135000D01*
X199265977Y-157135662D01*
X199265977Y-157135662D01*
G37*
D11*
X198627500Y-157410000D03*
D10*
G36*
X199265977Y-156335662D02*
X199279325Y-156337642D01*
X199292414Y-156340921D01*
X199305119Y-156345467D01*
X199317317Y-156351236D01*
X199328891Y-156358173D01*
X199339729Y-156366211D01*
X199349727Y-156375273D01*
X199358789Y-156385271D01*
X199366827Y-156396109D01*
X199373764Y-156407683D01*
X199379533Y-156419881D01*
X199384079Y-156432586D01*
X199387358Y-156445675D01*
X199389338Y-156459023D01*
X199390000Y-156472500D01*
X199390000Y-156747500D01*
X199389338Y-156760977D01*
X199387358Y-156774325D01*
X199384079Y-156787414D01*
X199379533Y-156800119D01*
X199373764Y-156812317D01*
X199366827Y-156823891D01*
X199358789Y-156834729D01*
X199349727Y-156844727D01*
X199339729Y-156853789D01*
X199328891Y-156861827D01*
X199317317Y-156868764D01*
X199305119Y-156874533D01*
X199292414Y-156879079D01*
X199279325Y-156882358D01*
X199265977Y-156884338D01*
X199252500Y-156885000D01*
X198002500Y-156885000D01*
X197989023Y-156884338D01*
X197975675Y-156882358D01*
X197962586Y-156879079D01*
X197949881Y-156874533D01*
X197937683Y-156868764D01*
X197926109Y-156861827D01*
X197915271Y-156853789D01*
X197905273Y-156844727D01*
X197896211Y-156834729D01*
X197888173Y-156823891D01*
X197881236Y-156812317D01*
X197875467Y-156800119D01*
X197870921Y-156787414D01*
X197867642Y-156774325D01*
X197865662Y-156760977D01*
X197865000Y-156747500D01*
X197865000Y-156472500D01*
X197865662Y-156459023D01*
X197867642Y-156445675D01*
X197870921Y-156432586D01*
X197875467Y-156419881D01*
X197881236Y-156407683D01*
X197888173Y-156396109D01*
X197896211Y-156385271D01*
X197905273Y-156375273D01*
X197915271Y-156366211D01*
X197926109Y-156358173D01*
X197937683Y-156351236D01*
X197949881Y-156345467D01*
X197962586Y-156340921D01*
X197975675Y-156337642D01*
X197989023Y-156335662D01*
X198002500Y-156335000D01*
X199252500Y-156335000D01*
X199265977Y-156335662D01*
X199265977Y-156335662D01*
G37*
D11*
X198627500Y-156610000D03*
D10*
G36*
X199265977Y-155535662D02*
X199279325Y-155537642D01*
X199292414Y-155540921D01*
X199305119Y-155545467D01*
X199317317Y-155551236D01*
X199328891Y-155558173D01*
X199339729Y-155566211D01*
X199349727Y-155575273D01*
X199358789Y-155585271D01*
X199366827Y-155596109D01*
X199373764Y-155607683D01*
X199379533Y-155619881D01*
X199384079Y-155632586D01*
X199387358Y-155645675D01*
X199389338Y-155659023D01*
X199390000Y-155672500D01*
X199390000Y-155947500D01*
X199389338Y-155960977D01*
X199387358Y-155974325D01*
X199384079Y-155987414D01*
X199379533Y-156000119D01*
X199373764Y-156012317D01*
X199366827Y-156023891D01*
X199358789Y-156034729D01*
X199349727Y-156044727D01*
X199339729Y-156053789D01*
X199328891Y-156061827D01*
X199317317Y-156068764D01*
X199305119Y-156074533D01*
X199292414Y-156079079D01*
X199279325Y-156082358D01*
X199265977Y-156084338D01*
X199252500Y-156085000D01*
X198002500Y-156085000D01*
X197989023Y-156084338D01*
X197975675Y-156082358D01*
X197962586Y-156079079D01*
X197949881Y-156074533D01*
X197937683Y-156068764D01*
X197926109Y-156061827D01*
X197915271Y-156053789D01*
X197905273Y-156044727D01*
X197896211Y-156034729D01*
X197888173Y-156023891D01*
X197881236Y-156012317D01*
X197875467Y-156000119D01*
X197870921Y-155987414D01*
X197867642Y-155974325D01*
X197865662Y-155960977D01*
X197865000Y-155947500D01*
X197865000Y-155672500D01*
X197865662Y-155659023D01*
X197867642Y-155645675D01*
X197870921Y-155632586D01*
X197875467Y-155619881D01*
X197881236Y-155607683D01*
X197888173Y-155596109D01*
X197896211Y-155585271D01*
X197905273Y-155575273D01*
X197915271Y-155566211D01*
X197926109Y-155558173D01*
X197937683Y-155551236D01*
X197949881Y-155545467D01*
X197962586Y-155540921D01*
X197975675Y-155537642D01*
X197989023Y-155535662D01*
X198002500Y-155535000D01*
X199252500Y-155535000D01*
X199265977Y-155535662D01*
X199265977Y-155535662D01*
G37*
D11*
X198627500Y-155810000D03*
D10*
G36*
X199265977Y-154735662D02*
X199279325Y-154737642D01*
X199292414Y-154740921D01*
X199305119Y-154745467D01*
X199317317Y-154751236D01*
X199328891Y-154758173D01*
X199339729Y-154766211D01*
X199349727Y-154775273D01*
X199358789Y-154785271D01*
X199366827Y-154796109D01*
X199373764Y-154807683D01*
X199379533Y-154819881D01*
X199384079Y-154832586D01*
X199387358Y-154845675D01*
X199389338Y-154859023D01*
X199390000Y-154872500D01*
X199390000Y-155147500D01*
X199389338Y-155160977D01*
X199387358Y-155174325D01*
X199384079Y-155187414D01*
X199379533Y-155200119D01*
X199373764Y-155212317D01*
X199366827Y-155223891D01*
X199358789Y-155234729D01*
X199349727Y-155244727D01*
X199339729Y-155253789D01*
X199328891Y-155261827D01*
X199317317Y-155268764D01*
X199305119Y-155274533D01*
X199292414Y-155279079D01*
X199279325Y-155282358D01*
X199265977Y-155284338D01*
X199252500Y-155285000D01*
X198002500Y-155285000D01*
X197989023Y-155284338D01*
X197975675Y-155282358D01*
X197962586Y-155279079D01*
X197949881Y-155274533D01*
X197937683Y-155268764D01*
X197926109Y-155261827D01*
X197915271Y-155253789D01*
X197905273Y-155244727D01*
X197896211Y-155234729D01*
X197888173Y-155223891D01*
X197881236Y-155212317D01*
X197875467Y-155200119D01*
X197870921Y-155187414D01*
X197867642Y-155174325D01*
X197865662Y-155160977D01*
X197865000Y-155147500D01*
X197865000Y-154872500D01*
X197865662Y-154859023D01*
X197867642Y-154845675D01*
X197870921Y-154832586D01*
X197875467Y-154819881D01*
X197881236Y-154807683D01*
X197888173Y-154796109D01*
X197896211Y-154785271D01*
X197905273Y-154775273D01*
X197915271Y-154766211D01*
X197926109Y-154758173D01*
X197937683Y-154751236D01*
X197949881Y-154745467D01*
X197962586Y-154740921D01*
X197975675Y-154737642D01*
X197989023Y-154735662D01*
X198002500Y-154735000D01*
X199252500Y-154735000D01*
X199265977Y-154735662D01*
X199265977Y-154735662D01*
G37*
D11*
X198627500Y-155010000D03*
D10*
G36*
X199265977Y-153935662D02*
X199279325Y-153937642D01*
X199292414Y-153940921D01*
X199305119Y-153945467D01*
X199317317Y-153951236D01*
X199328891Y-153958173D01*
X199339729Y-153966211D01*
X199349727Y-153975273D01*
X199358789Y-153985271D01*
X199366827Y-153996109D01*
X199373764Y-154007683D01*
X199379533Y-154019881D01*
X199384079Y-154032586D01*
X199387358Y-154045675D01*
X199389338Y-154059023D01*
X199390000Y-154072500D01*
X199390000Y-154347500D01*
X199389338Y-154360977D01*
X199387358Y-154374325D01*
X199384079Y-154387414D01*
X199379533Y-154400119D01*
X199373764Y-154412317D01*
X199366827Y-154423891D01*
X199358789Y-154434729D01*
X199349727Y-154444727D01*
X199339729Y-154453789D01*
X199328891Y-154461827D01*
X199317317Y-154468764D01*
X199305119Y-154474533D01*
X199292414Y-154479079D01*
X199279325Y-154482358D01*
X199265977Y-154484338D01*
X199252500Y-154485000D01*
X198002500Y-154485000D01*
X197989023Y-154484338D01*
X197975675Y-154482358D01*
X197962586Y-154479079D01*
X197949881Y-154474533D01*
X197937683Y-154468764D01*
X197926109Y-154461827D01*
X197915271Y-154453789D01*
X197905273Y-154444727D01*
X197896211Y-154434729D01*
X197888173Y-154423891D01*
X197881236Y-154412317D01*
X197875467Y-154400119D01*
X197870921Y-154387414D01*
X197867642Y-154374325D01*
X197865662Y-154360977D01*
X197865000Y-154347500D01*
X197865000Y-154072500D01*
X197865662Y-154059023D01*
X197867642Y-154045675D01*
X197870921Y-154032586D01*
X197875467Y-154019881D01*
X197881236Y-154007683D01*
X197888173Y-153996109D01*
X197896211Y-153985271D01*
X197905273Y-153975273D01*
X197915271Y-153966211D01*
X197926109Y-153958173D01*
X197937683Y-153951236D01*
X197949881Y-153945467D01*
X197962586Y-153940921D01*
X197975675Y-153937642D01*
X197989023Y-153935662D01*
X198002500Y-153935000D01*
X199252500Y-153935000D01*
X199265977Y-153935662D01*
X199265977Y-153935662D01*
G37*
D11*
X198627500Y-154210000D03*
D10*
G36*
X199265977Y-153135662D02*
X199279325Y-153137642D01*
X199292414Y-153140921D01*
X199305119Y-153145467D01*
X199317317Y-153151236D01*
X199328891Y-153158173D01*
X199339729Y-153166211D01*
X199349727Y-153175273D01*
X199358789Y-153185271D01*
X199366827Y-153196109D01*
X199373764Y-153207683D01*
X199379533Y-153219881D01*
X199384079Y-153232586D01*
X199387358Y-153245675D01*
X199389338Y-153259023D01*
X199390000Y-153272500D01*
X199390000Y-153547500D01*
X199389338Y-153560977D01*
X199387358Y-153574325D01*
X199384079Y-153587414D01*
X199379533Y-153600119D01*
X199373764Y-153612317D01*
X199366827Y-153623891D01*
X199358789Y-153634729D01*
X199349727Y-153644727D01*
X199339729Y-153653789D01*
X199328891Y-153661827D01*
X199317317Y-153668764D01*
X199305119Y-153674533D01*
X199292414Y-153679079D01*
X199279325Y-153682358D01*
X199265977Y-153684338D01*
X199252500Y-153685000D01*
X198002500Y-153685000D01*
X197989023Y-153684338D01*
X197975675Y-153682358D01*
X197962586Y-153679079D01*
X197949881Y-153674533D01*
X197937683Y-153668764D01*
X197926109Y-153661827D01*
X197915271Y-153653789D01*
X197905273Y-153644727D01*
X197896211Y-153634729D01*
X197888173Y-153623891D01*
X197881236Y-153612317D01*
X197875467Y-153600119D01*
X197870921Y-153587414D01*
X197867642Y-153574325D01*
X197865662Y-153560977D01*
X197865000Y-153547500D01*
X197865000Y-153272500D01*
X197865662Y-153259023D01*
X197867642Y-153245675D01*
X197870921Y-153232586D01*
X197875467Y-153219881D01*
X197881236Y-153207683D01*
X197888173Y-153196109D01*
X197896211Y-153185271D01*
X197905273Y-153175273D01*
X197915271Y-153166211D01*
X197926109Y-153158173D01*
X197937683Y-153151236D01*
X197949881Y-153145467D01*
X197962586Y-153140921D01*
X197975675Y-153137642D01*
X197989023Y-153135662D01*
X198002500Y-153135000D01*
X199252500Y-153135000D01*
X199265977Y-153135662D01*
X199265977Y-153135662D01*
G37*
D11*
X198627500Y-153410000D03*
D10*
G36*
X199265977Y-152335662D02*
X199279325Y-152337642D01*
X199292414Y-152340921D01*
X199305119Y-152345467D01*
X199317317Y-152351236D01*
X199328891Y-152358173D01*
X199339729Y-152366211D01*
X199349727Y-152375273D01*
X199358789Y-152385271D01*
X199366827Y-152396109D01*
X199373764Y-152407683D01*
X199379533Y-152419881D01*
X199384079Y-152432586D01*
X199387358Y-152445675D01*
X199389338Y-152459023D01*
X199390000Y-152472500D01*
X199390000Y-152747500D01*
X199389338Y-152760977D01*
X199387358Y-152774325D01*
X199384079Y-152787414D01*
X199379533Y-152800119D01*
X199373764Y-152812317D01*
X199366827Y-152823891D01*
X199358789Y-152834729D01*
X199349727Y-152844727D01*
X199339729Y-152853789D01*
X199328891Y-152861827D01*
X199317317Y-152868764D01*
X199305119Y-152874533D01*
X199292414Y-152879079D01*
X199279325Y-152882358D01*
X199265977Y-152884338D01*
X199252500Y-152885000D01*
X198002500Y-152885000D01*
X197989023Y-152884338D01*
X197975675Y-152882358D01*
X197962586Y-152879079D01*
X197949881Y-152874533D01*
X197937683Y-152868764D01*
X197926109Y-152861827D01*
X197915271Y-152853789D01*
X197905273Y-152844727D01*
X197896211Y-152834729D01*
X197888173Y-152823891D01*
X197881236Y-152812317D01*
X197875467Y-152800119D01*
X197870921Y-152787414D01*
X197867642Y-152774325D01*
X197865662Y-152760977D01*
X197865000Y-152747500D01*
X197865000Y-152472500D01*
X197865662Y-152459023D01*
X197867642Y-152445675D01*
X197870921Y-152432586D01*
X197875467Y-152419881D01*
X197881236Y-152407683D01*
X197888173Y-152396109D01*
X197896211Y-152385271D01*
X197905273Y-152375273D01*
X197915271Y-152366211D01*
X197926109Y-152358173D01*
X197937683Y-152351236D01*
X197949881Y-152345467D01*
X197962586Y-152340921D01*
X197975675Y-152337642D01*
X197989023Y-152335662D01*
X198002500Y-152335000D01*
X199252500Y-152335000D01*
X199265977Y-152335662D01*
X199265977Y-152335662D01*
G37*
D11*
X198627500Y-152610000D03*
D10*
G36*
X199265977Y-151535662D02*
X199279325Y-151537642D01*
X199292414Y-151540921D01*
X199305119Y-151545467D01*
X199317317Y-151551236D01*
X199328891Y-151558173D01*
X199339729Y-151566211D01*
X199349727Y-151575273D01*
X199358789Y-151585271D01*
X199366827Y-151596109D01*
X199373764Y-151607683D01*
X199379533Y-151619881D01*
X199384079Y-151632586D01*
X199387358Y-151645675D01*
X199389338Y-151659023D01*
X199390000Y-151672500D01*
X199390000Y-151947500D01*
X199389338Y-151960977D01*
X199387358Y-151974325D01*
X199384079Y-151987414D01*
X199379533Y-152000119D01*
X199373764Y-152012317D01*
X199366827Y-152023891D01*
X199358789Y-152034729D01*
X199349727Y-152044727D01*
X199339729Y-152053789D01*
X199328891Y-152061827D01*
X199317317Y-152068764D01*
X199305119Y-152074533D01*
X199292414Y-152079079D01*
X199279325Y-152082358D01*
X199265977Y-152084338D01*
X199252500Y-152085000D01*
X198002500Y-152085000D01*
X197989023Y-152084338D01*
X197975675Y-152082358D01*
X197962586Y-152079079D01*
X197949881Y-152074533D01*
X197937683Y-152068764D01*
X197926109Y-152061827D01*
X197915271Y-152053789D01*
X197905273Y-152044727D01*
X197896211Y-152034729D01*
X197888173Y-152023891D01*
X197881236Y-152012317D01*
X197875467Y-152000119D01*
X197870921Y-151987414D01*
X197867642Y-151974325D01*
X197865662Y-151960977D01*
X197865000Y-151947500D01*
X197865000Y-151672500D01*
X197865662Y-151659023D01*
X197867642Y-151645675D01*
X197870921Y-151632586D01*
X197875467Y-151619881D01*
X197881236Y-151607683D01*
X197888173Y-151596109D01*
X197896211Y-151585271D01*
X197905273Y-151575273D01*
X197915271Y-151566211D01*
X197926109Y-151558173D01*
X197937683Y-151551236D01*
X197949881Y-151545467D01*
X197962586Y-151540921D01*
X197975675Y-151537642D01*
X197989023Y-151535662D01*
X198002500Y-151535000D01*
X199252500Y-151535000D01*
X199265977Y-151535662D01*
X199265977Y-151535662D01*
G37*
D11*
X198627500Y-151810000D03*
D10*
G36*
X199265977Y-150735662D02*
X199279325Y-150737642D01*
X199292414Y-150740921D01*
X199305119Y-150745467D01*
X199317317Y-150751236D01*
X199328891Y-150758173D01*
X199339729Y-150766211D01*
X199349727Y-150775273D01*
X199358789Y-150785271D01*
X199366827Y-150796109D01*
X199373764Y-150807683D01*
X199379533Y-150819881D01*
X199384079Y-150832586D01*
X199387358Y-150845675D01*
X199389338Y-150859023D01*
X199390000Y-150872500D01*
X199390000Y-151147500D01*
X199389338Y-151160977D01*
X199387358Y-151174325D01*
X199384079Y-151187414D01*
X199379533Y-151200119D01*
X199373764Y-151212317D01*
X199366827Y-151223891D01*
X199358789Y-151234729D01*
X199349727Y-151244727D01*
X199339729Y-151253789D01*
X199328891Y-151261827D01*
X199317317Y-151268764D01*
X199305119Y-151274533D01*
X199292414Y-151279079D01*
X199279325Y-151282358D01*
X199265977Y-151284338D01*
X199252500Y-151285000D01*
X198002500Y-151285000D01*
X197989023Y-151284338D01*
X197975675Y-151282358D01*
X197962586Y-151279079D01*
X197949881Y-151274533D01*
X197937683Y-151268764D01*
X197926109Y-151261827D01*
X197915271Y-151253789D01*
X197905273Y-151244727D01*
X197896211Y-151234729D01*
X197888173Y-151223891D01*
X197881236Y-151212317D01*
X197875467Y-151200119D01*
X197870921Y-151187414D01*
X197867642Y-151174325D01*
X197865662Y-151160977D01*
X197865000Y-151147500D01*
X197865000Y-150872500D01*
X197865662Y-150859023D01*
X197867642Y-150845675D01*
X197870921Y-150832586D01*
X197875467Y-150819881D01*
X197881236Y-150807683D01*
X197888173Y-150796109D01*
X197896211Y-150785271D01*
X197905273Y-150775273D01*
X197915271Y-150766211D01*
X197926109Y-150758173D01*
X197937683Y-150751236D01*
X197949881Y-150745467D01*
X197962586Y-150740921D01*
X197975675Y-150737642D01*
X197989023Y-150735662D01*
X198002500Y-150735000D01*
X199252500Y-150735000D01*
X199265977Y-150735662D01*
X199265977Y-150735662D01*
G37*
D11*
X198627500Y-151010000D03*
D10*
G36*
X199265977Y-149935662D02*
X199279325Y-149937642D01*
X199292414Y-149940921D01*
X199305119Y-149945467D01*
X199317317Y-149951236D01*
X199328891Y-149958173D01*
X199339729Y-149966211D01*
X199349727Y-149975273D01*
X199358789Y-149985271D01*
X199366827Y-149996109D01*
X199373764Y-150007683D01*
X199379533Y-150019881D01*
X199384079Y-150032586D01*
X199387358Y-150045675D01*
X199389338Y-150059023D01*
X199390000Y-150072500D01*
X199390000Y-150347500D01*
X199389338Y-150360977D01*
X199387358Y-150374325D01*
X199384079Y-150387414D01*
X199379533Y-150400119D01*
X199373764Y-150412317D01*
X199366827Y-150423891D01*
X199358789Y-150434729D01*
X199349727Y-150444727D01*
X199339729Y-150453789D01*
X199328891Y-150461827D01*
X199317317Y-150468764D01*
X199305119Y-150474533D01*
X199292414Y-150479079D01*
X199279325Y-150482358D01*
X199265977Y-150484338D01*
X199252500Y-150485000D01*
X198002500Y-150485000D01*
X197989023Y-150484338D01*
X197975675Y-150482358D01*
X197962586Y-150479079D01*
X197949881Y-150474533D01*
X197937683Y-150468764D01*
X197926109Y-150461827D01*
X197915271Y-150453789D01*
X197905273Y-150444727D01*
X197896211Y-150434729D01*
X197888173Y-150423891D01*
X197881236Y-150412317D01*
X197875467Y-150400119D01*
X197870921Y-150387414D01*
X197867642Y-150374325D01*
X197865662Y-150360977D01*
X197865000Y-150347500D01*
X197865000Y-150072500D01*
X197865662Y-150059023D01*
X197867642Y-150045675D01*
X197870921Y-150032586D01*
X197875467Y-150019881D01*
X197881236Y-150007683D01*
X197888173Y-149996109D01*
X197896211Y-149985271D01*
X197905273Y-149975273D01*
X197915271Y-149966211D01*
X197926109Y-149958173D01*
X197937683Y-149951236D01*
X197949881Y-149945467D01*
X197962586Y-149940921D01*
X197975675Y-149937642D01*
X197989023Y-149935662D01*
X198002500Y-149935000D01*
X199252500Y-149935000D01*
X199265977Y-149935662D01*
X199265977Y-149935662D01*
G37*
D11*
X198627500Y-150210000D03*
D10*
G36*
X199265977Y-149135662D02*
X199279325Y-149137642D01*
X199292414Y-149140921D01*
X199305119Y-149145467D01*
X199317317Y-149151236D01*
X199328891Y-149158173D01*
X199339729Y-149166211D01*
X199349727Y-149175273D01*
X199358789Y-149185271D01*
X199366827Y-149196109D01*
X199373764Y-149207683D01*
X199379533Y-149219881D01*
X199384079Y-149232586D01*
X199387358Y-149245675D01*
X199389338Y-149259023D01*
X199390000Y-149272500D01*
X199390000Y-149547500D01*
X199389338Y-149560977D01*
X199387358Y-149574325D01*
X199384079Y-149587414D01*
X199379533Y-149600119D01*
X199373764Y-149612317D01*
X199366827Y-149623891D01*
X199358789Y-149634729D01*
X199349727Y-149644727D01*
X199339729Y-149653789D01*
X199328891Y-149661827D01*
X199317317Y-149668764D01*
X199305119Y-149674533D01*
X199292414Y-149679079D01*
X199279325Y-149682358D01*
X199265977Y-149684338D01*
X199252500Y-149685000D01*
X198002500Y-149685000D01*
X197989023Y-149684338D01*
X197975675Y-149682358D01*
X197962586Y-149679079D01*
X197949881Y-149674533D01*
X197937683Y-149668764D01*
X197926109Y-149661827D01*
X197915271Y-149653789D01*
X197905273Y-149644727D01*
X197896211Y-149634729D01*
X197888173Y-149623891D01*
X197881236Y-149612317D01*
X197875467Y-149600119D01*
X197870921Y-149587414D01*
X197867642Y-149574325D01*
X197865662Y-149560977D01*
X197865000Y-149547500D01*
X197865000Y-149272500D01*
X197865662Y-149259023D01*
X197867642Y-149245675D01*
X197870921Y-149232586D01*
X197875467Y-149219881D01*
X197881236Y-149207683D01*
X197888173Y-149196109D01*
X197896211Y-149185271D01*
X197905273Y-149175273D01*
X197915271Y-149166211D01*
X197926109Y-149158173D01*
X197937683Y-149151236D01*
X197949881Y-149145467D01*
X197962586Y-149140921D01*
X197975675Y-149137642D01*
X197989023Y-149135662D01*
X198002500Y-149135000D01*
X199252500Y-149135000D01*
X199265977Y-149135662D01*
X199265977Y-149135662D01*
G37*
D11*
X198627500Y-149410000D03*
D10*
G36*
X199265977Y-148335662D02*
X199279325Y-148337642D01*
X199292414Y-148340921D01*
X199305119Y-148345467D01*
X199317317Y-148351236D01*
X199328891Y-148358173D01*
X199339729Y-148366211D01*
X199349727Y-148375273D01*
X199358789Y-148385271D01*
X199366827Y-148396109D01*
X199373764Y-148407683D01*
X199379533Y-148419881D01*
X199384079Y-148432586D01*
X199387358Y-148445675D01*
X199389338Y-148459023D01*
X199390000Y-148472500D01*
X199390000Y-148747500D01*
X199389338Y-148760977D01*
X199387358Y-148774325D01*
X199384079Y-148787414D01*
X199379533Y-148800119D01*
X199373764Y-148812317D01*
X199366827Y-148823891D01*
X199358789Y-148834729D01*
X199349727Y-148844727D01*
X199339729Y-148853789D01*
X199328891Y-148861827D01*
X199317317Y-148868764D01*
X199305119Y-148874533D01*
X199292414Y-148879079D01*
X199279325Y-148882358D01*
X199265977Y-148884338D01*
X199252500Y-148885000D01*
X198002500Y-148885000D01*
X197989023Y-148884338D01*
X197975675Y-148882358D01*
X197962586Y-148879079D01*
X197949881Y-148874533D01*
X197937683Y-148868764D01*
X197926109Y-148861827D01*
X197915271Y-148853789D01*
X197905273Y-148844727D01*
X197896211Y-148834729D01*
X197888173Y-148823891D01*
X197881236Y-148812317D01*
X197875467Y-148800119D01*
X197870921Y-148787414D01*
X197867642Y-148774325D01*
X197865662Y-148760977D01*
X197865000Y-148747500D01*
X197865000Y-148472500D01*
X197865662Y-148459023D01*
X197867642Y-148445675D01*
X197870921Y-148432586D01*
X197875467Y-148419881D01*
X197881236Y-148407683D01*
X197888173Y-148396109D01*
X197896211Y-148385271D01*
X197905273Y-148375273D01*
X197915271Y-148366211D01*
X197926109Y-148358173D01*
X197937683Y-148351236D01*
X197949881Y-148345467D01*
X197962586Y-148340921D01*
X197975675Y-148337642D01*
X197989023Y-148335662D01*
X198002500Y-148335000D01*
X199252500Y-148335000D01*
X199265977Y-148335662D01*
X199265977Y-148335662D01*
G37*
D11*
X198627500Y-148610000D03*
D10*
G36*
X199265977Y-147535662D02*
X199279325Y-147537642D01*
X199292414Y-147540921D01*
X199305119Y-147545467D01*
X199317317Y-147551236D01*
X199328891Y-147558173D01*
X199339729Y-147566211D01*
X199349727Y-147575273D01*
X199358789Y-147585271D01*
X199366827Y-147596109D01*
X199373764Y-147607683D01*
X199379533Y-147619881D01*
X199384079Y-147632586D01*
X199387358Y-147645675D01*
X199389338Y-147659023D01*
X199390000Y-147672500D01*
X199390000Y-147947500D01*
X199389338Y-147960977D01*
X199387358Y-147974325D01*
X199384079Y-147987414D01*
X199379533Y-148000119D01*
X199373764Y-148012317D01*
X199366827Y-148023891D01*
X199358789Y-148034729D01*
X199349727Y-148044727D01*
X199339729Y-148053789D01*
X199328891Y-148061827D01*
X199317317Y-148068764D01*
X199305119Y-148074533D01*
X199292414Y-148079079D01*
X199279325Y-148082358D01*
X199265977Y-148084338D01*
X199252500Y-148085000D01*
X198002500Y-148085000D01*
X197989023Y-148084338D01*
X197975675Y-148082358D01*
X197962586Y-148079079D01*
X197949881Y-148074533D01*
X197937683Y-148068764D01*
X197926109Y-148061827D01*
X197915271Y-148053789D01*
X197905273Y-148044727D01*
X197896211Y-148034729D01*
X197888173Y-148023891D01*
X197881236Y-148012317D01*
X197875467Y-148000119D01*
X197870921Y-147987414D01*
X197867642Y-147974325D01*
X197865662Y-147960977D01*
X197865000Y-147947500D01*
X197865000Y-147672500D01*
X197865662Y-147659023D01*
X197867642Y-147645675D01*
X197870921Y-147632586D01*
X197875467Y-147619881D01*
X197881236Y-147607683D01*
X197888173Y-147596109D01*
X197896211Y-147585271D01*
X197905273Y-147575273D01*
X197915271Y-147566211D01*
X197926109Y-147558173D01*
X197937683Y-147551236D01*
X197949881Y-147545467D01*
X197962586Y-147540921D01*
X197975675Y-147537642D01*
X197989023Y-147535662D01*
X198002500Y-147535000D01*
X199252500Y-147535000D01*
X199265977Y-147535662D01*
X199265977Y-147535662D01*
G37*
D11*
X198627500Y-147810000D03*
G04 #@! TD*
M02*
